<svg width="30" height="30" viewBox="0 0 30 30" fill="none" xmlns="http://www.w3.org/2000/svg">
<path d="M17.6399 24.6784C1.23579 24.0007 1.2396 0.675614 17.6399 0C20.9436 0 24.0484 1.27901 26.3824 3.60146C34.1524 11.2728 28.5597 24.7086 17.6399 24.6784ZM17.6399 2.33918C12.1141 2.33918 7.61855 6.82515 7.61855 12.3392C8.175 25.615 27.1185 25.5999 27.6612 12.3162C27.6612 6.81491 23.1657 2.33918 17.6399 2.33918ZM1.17209 30C0.871039 30 0.570106 29.885 0.340964 29.6551C-0.115446 29.1971 -0.113395 28.4566 0.345594 28.0011L5.61997 22.7672C6.07884 22.3118 6.82095 22.3137 7.27753 22.7718C7.73394 23.2298 7.73189 23.9704 7.2729 24.4258L1.99853 29.6598C1.76991 29.8867 1.47097 30 1.17209 30Z" fill="#333333"/>
</svg>
