<?xml version="1.0" standalone="no"?>
<!DOCTYPE svg PUBLIC "-//W3C//DTD SVG 1.1//EN" "http://www.w3.org/Graphics/SVG/1.1/DTD/svg11.dtd" >
<svg>
<metadata>
Created by FontForge 20090914 at Mon Mar  8 13:39:40 2021
 By www-data
&#194;&#169; 2014 Sergiy S. Tkachenko / 4th february
&#194;&#169; 2014 FirstSiteGuide.com
http://creativecommons.org/licenses/by-nd/4.0/
</metadata>
<defs>
<font id="BloggerSans-Medium" horiz-adv-x="260" >
  <font-face 
    font-family="Blogger Sans Medium"
    font-weight="500"
    font-stretch="squinchy"
    units-per-em="1000"
    panose-1="2 0 5 6 3 0 0 2 0 4"
    ascent="760"
    descent="-240"
    x-height="505"
    cap-height="706"
    bbox="-69.534 -241.997 881.994 948.001"
    underline-thickness="20"
    underline-position="-123"
    unicode-range="U+0021-U+F0434"
  />
<missing-glyph horiz-adv-x="760" 
 />
    <glyph glyph-name="ff" unicode="ff" horiz-adv-x="688" 
d="M69 532c0 32 4.99707 59.8311 14.9971 83.498s23.5 43.334 40.5 59.001s37 27.5 60 35.5s47.5 12.333 73.5 13c5.33301 0 13.833 -0.166992 25.5 -0.5s23.5 -2.33301 35.5 -6s22.667 -9.33398 32 -17.001s14 -18.5 14 -32.5c0 -15.333 -5.33301 -27.166 -16 -35.499
s-23 -12.5 -37 -12.5c-9.33301 0 -18.833 1 -28.5 3s-20.167 3 -31.5 3c-25.333 0 -44.166 -8.5 -56.499 -25.5s-18.5 -37.167 -18.5 -60.5v-55h89c14 0 26 -4.66699 36 -14s15 -21 15 -35c0 -13.333 -5 -24.666 -15 -33.999s-22 -14 -36 -14h-89v-343
c0 -13.333 -4.66699 -24.833 -14 -34.5s-22.666 -14.5 -39.999 -14.5s-30.666 4.83301 -39.999 14.5s-14 21.167 -14 34.5v488zM407.997 531.998c0 32 4.99707 59.8311 14.9971 83.498s23.5 43.334 40.5 59.001s37 27.5 60 35.5s47.5 12.333 73.5 13
c5.33301 0 13.833 -0.166992 25.5 -0.5s23.5 -2.33301 35.5 -6s22.667 -9.33398 32 -17.001s14 -18.5 14 -32.5c0 -15.333 -5.33301 -27.166 -16 -35.499s-23 -12.5 -37 -12.5c-9.33301 0 -18.833 1 -28.5 3s-20.167 3 -31.5 3c-25.333 0 -44.166 -8.5 -56.499 -25.5
s-18.5 -37.167 -18.5 -60.5v-55h89c14 0 26 -4.66699 36 -14s15 -21 15 -35c0 -13.333 -5 -24.666 -15 -33.999s-22 -14 -36 -14h-89v-343c0 -13.333 -4.66699 -24.833 -14 -34.5s-22.666 -14.5 -39.999 -14.5s-30.666 4.83301 -39.999 14.5s-14 21.167 -14 34.5v488z" />
    <glyph glyph-name="fi" unicode="fi" horiz-adv-x="604" 
d="M69 532c0 32 4.99707 59.8311 14.9971 83.498s23.5 43.334 40.5 59.001s37 27.5 60 35.5s47.5 12.333 73.5 13c5.33301 0 13.833 -0.166992 25.5 -0.5s23.5 -2.33301 35.5 -6s22.667 -9.33398 32 -17.001s14 -18.5 14 -32.5c0 -15.333 -5.33301 -27.166 -16 -35.499
s-23 -12.5 -37 -12.5c-9.33301 0 -18.833 1 -28.5 3s-20.167 3 -31.5 3c-25.333 0 -44.166 -8.5 -56.499 -25.5s-18.5 -37.167 -18.5 -60.5v-55h89c14 0 26 -4.66699 36 -14s15 -21 15 -35c0 -13.333 -5 -24.666 -15 -33.999s-22 -14 -36 -14h-89v-343
c0 -13.333 -4.66699 -24.833 -14 -34.5s-22.666 -14.5 -39.999 -14.5s-30.666 4.83301 -39.999 14.5s-14 21.167 -14 34.5v488zM533.997 655.998c-0.666992 -16.667 -6.99902 -30.667 -18.999 -42s-26.667 -17 -44 -17c-18 0 -33 5.83301 -45 17.5s-18 25.5 -18 41.5
c0 16.667 6 30.667 18 42s27 17 45 17c17.333 0 32.166 -5.83301 44.499 -17.5s18.5 -25.5 18.5 -41.5zM524.998 42.998c0 -14.667 -5.16699 -26.667 -15.5 -36s-23.166 -14 -38.499 -14s-28.166 4.66699 -38.499 14s-15.5 21.333 -15.5 36v417c0 13.333 5.16699 25 15.5 35
s23.166 15 38.499 15s28.166 -5 38.499 -15s15.5 -21.667 15.5 -35v-417z" />
    <glyph glyph-name="fl" unicode="fl" horiz-adv-x="587" 
d="M69 532c0 32 4.99707 59.8311 14.9971 83.498s23.5 43.334 40.5 59.001s37 27.5 60 35.5s47.5 12.333 73.5 13c5.33301 0 13.833 -0.166992 25.5 -0.5s23.5 -2.33301 35.5 -6s22.667 -9.33398 32 -17.001s14 -18.5 14 -32.5c0 -15.333 -5.33301 -27.166 -16 -35.499
s-23 -12.5 -37 -12.5c-9.33301 0 -18.833 1 -28.5 3s-20.167 3 -31.5 3c-25.333 0 -44.166 -8.5 -56.499 -25.5s-18.5 -37.167 -18.5 -60.5v-55h89c14 0 26 -4.66699 36 -14s15 -21 15 -35c0 -13.333 -5 -24.666 -15 -33.999s-22 -14 -36 -14h-89v-343
c0 -13.333 -4.66699 -24.833 -14 -34.5s-22.666 -14.5 -39.999 -14.5s-30.666 4.83301 -39.999 14.5s-14 21.167 -14 34.5v488zM486.997 -8.00195c-8 0 -16.665 1.16699 -25.998 3.5s-17.833 7.33301 -25.5 15s-14.167 18.834 -19.5 33.501s-8 34 -8 58v571
c0 13.333 5.16699 25 15.5 35s23.166 15 38.499 15s28.166 -4.83301 38.499 -14.5s15.5 -21.5 15.5 -35.5v-565c0 -10.667 0.666992 -18.834 2 -24.501s5.33301 -12.167 12 -19.5c3.33301 -3.33301 6.33301 -6.83301 9 -10.5s4 -9.16699 4 -16.5c0 -14 -5 -25 -15 -33
s-23.667 -12 -41 -12z" />
    <glyph glyph-name="ffi" unicode="ffi" horiz-adv-x="943" 
d="M69 532c0 32 4.99707 59.8311 14.9971 83.498s23.5 43.334 40.5 59.001s37 27.5 60 35.5s47.5 12.333 73.5 13c5.33301 0 13.833 -0.166992 25.5 -0.5s23.5 -2.33301 35.5 -6s22.667 -9.33398 32 -17.001s14 -18.5 14 -32.5c0 -15.333 -5.33301 -27.166 -16 -35.499
s-23 -12.5 -37 -12.5c-9.33301 0 -18.833 1 -28.5 3s-20.167 3 -31.5 3c-25.333 0 -44.166 -8.5 -56.499 -25.5s-18.5 -37.167 -18.5 -60.5v-55h89c14 0 26 -4.66699 36 -14s15 -21 15 -35c0 -13.333 -5 -24.666 -15 -33.999s-22 -14 -36 -14h-89v-343
c0 -13.333 -4.66699 -24.833 -14 -34.5s-22.666 -14.5 -39.999 -14.5s-30.666 4.83301 -39.999 14.5s-14 21.167 -14 34.5v488zM407.997 531.998c0 32 4.99707 59.8311 14.9971 83.498s23.5 43.334 40.5 59.001s37 27.5 60 35.5s47.5 12.333 73.5 13
c5.33301 0 13.833 -0.166992 25.5 -0.5s23.5 -2.33301 35.5 -6s22.667 -9.33398 32 -17.001s14 -18.5 14 -32.5c0 -15.333 -5.33301 -27.166 -16 -35.499s-23 -12.5 -37 -12.5c-9.33301 0 -18.833 1 -28.5 3s-20.167 3 -31.5 3c-25.333 0 -44.166 -8.5 -56.499 -25.5
s-18.5 -37.167 -18.5 -60.5v-55h89c14 0 26 -4.66699 36 -14s15 -21 15 -35c0 -13.333 -5 -24.666 -15 -33.999s-22 -14 -36 -14h-89v-343c0 -13.333 -4.66699 -24.833 -14 -34.5s-22.666 -14.5 -39.999 -14.5s-30.666 4.83301 -39.999 14.5s-14 21.167 -14 34.5v488z
M872.994 655.996c-0.666992 -16.667 -6.99902 -30.667 -18.999 -42s-26.667 -17 -44 -17c-18 0 -33 5.83301 -45 17.5s-18 25.5 -18 41.5c0 16.667 6 30.667 18 42s27 17 45 17c17.333 0 32.166 -5.83301 44.499 -17.5s18.5 -25.5 18.5 -41.5zM863.995 42.9961
c0 -14.667 -5.16699 -26.667 -15.5 -36s-23.166 -14 -38.499 -14s-28.166 4.66699 -38.499 14s-15.5 21.333 -15.5 36v417c0 13.333 5.16699 25 15.5 35s23.166 15 38.499 15s28.166 -5 38.499 -15s15.5 -21.667 15.5 -35v-417z" />
    <glyph glyph-name="ffl" unicode="ffl" horiz-adv-x="926" 
d="M69 532c0 32 4.99707 59.8311 14.9971 83.498s23.5 43.334 40.5 59.001s37 27.5 60 35.5s47.5 12.333 73.5 13c5.33301 0 13.833 -0.166992 25.5 -0.5s23.5 -2.33301 35.5 -6s22.667 -9.33398 32 -17.001s14 -18.5 14 -32.5c0 -15.333 -5.33301 -27.166 -16 -35.499
s-23 -12.5 -37 -12.5c-9.33301 0 -18.833 1 -28.5 3s-20.167 3 -31.5 3c-25.333 0 -44.166 -8.5 -56.499 -25.5s-18.5 -37.167 -18.5 -60.5v-55h89c14 0 26 -4.66699 36 -14s15 -21 15 -35c0 -13.333 -5 -24.666 -15 -33.999s-22 -14 -36 -14h-89v-343
c0 -13.333 -4.66699 -24.833 -14 -34.5s-22.666 -14.5 -39.999 -14.5s-30.666 4.83301 -39.999 14.5s-14 21.167 -14 34.5v488zM407.997 531.998c0 32 4.99707 59.8311 14.9971 83.498s23.5 43.334 40.5 59.001s37 27.5 60 35.5s47.5 12.333 73.5 13
c5.33301 0 13.833 -0.166992 25.5 -0.5s23.5 -2.33301 35.5 -6s22.667 -9.33398 32 -17.001s14 -18.5 14 -32.5c0 -15.333 -5.33301 -27.166 -16 -35.499s-23 -12.5 -37 -12.5c-9.33301 0 -18.833 1 -28.5 3s-20.167 3 -31.5 3c-25.333 0 -44.166 -8.5 -56.499 -25.5
s-18.5 -37.167 -18.5 -60.5v-55h89c14 0 26 -4.66699 36 -14s15 -21 15 -35c0 -13.333 -5 -24.666 -15 -33.999s-22 -14 -36 -14h-89v-343c0 -13.333 -4.66699 -24.833 -14 -34.5s-22.666 -14.5 -39.999 -14.5s-30.666 4.83301 -39.999 14.5s-14 21.167 -14 34.5v488z
M825.994 -8.00391c-8 0 -16.665 1.16699 -25.998 3.5s-17.833 7.33301 -25.5 15s-14.167 18.834 -19.5 33.501s-8 34 -8 58v571c0 13.333 5.16699 25 15.5 35s23.166 15 38.499 15s28.166 -4.83301 38.499 -14.5s15.5 -21.5 15.5 -35.5v-565
c0 -10.667 0.666992 -18.834 2 -24.501s5.33301 -12.167 12 -19.5c3.33301 -3.33301 6.33301 -6.83301 9 -10.5s4 -9.16699 4 -16.5c0 -14 -5 -25 -15 -33s-23.667 -12 -41 -12z" />
    <glyph glyph-name="uni0457_uni0457" unicode="&#x457;&#x457;" horiz-adv-x="520" 
d="M186 43c0 -14.667 -5.16699 -26.834 -15.5 -36.501s-23.166 -14.5 -38.499 -14.5s-28.166 4.83301 -38.499 14.5s-15.5 21.834 -15.5 36.501v417c0 13.333 5.16699 25 15.5 35s23.166 15 38.499 15s28.166 -5 38.499 -15s15.5 -21.667 15.5 -35v-417zM319 624
c0 -16 -5.83301 -29.666 -17.5 -40.999s-25.5 -17 -41.5 -17c-16.667 0 -30.834 5.83301 -42.501 17.5s-17.5 25.167 -17.5 40.5s5.83301 28.666 17.5 39.999s25.834 17 42.501 17c16 0 29.833 -5.5 41.5 -16.5s17.5 -24.5 17.5 -40.5zM99 624.001
c0 -16 -5.66699 -29.666 -17 -40.999s-25.333 -17 -42 -17s-30.5 5.83301 -41.5 17.5s-16.5 25.167 -16.5 40.5s5.5 28.666 16.5 39.999s24.833 17 41.5 17s30.667 -5.5 42 -16.5s17 -24.5 17 -40.5zM441 43.002c0 -14.667 -5.16699 -26.834 -15.5 -36.501
s-23.166 -14.5 -38.499 -14.5s-28.166 4.83301 -38.499 14.5s-15.5 21.834 -15.5 36.501v417c0 13.333 5.16699 25 15.5 35s23.166 15 38.499 15s28.166 -5 38.499 -15s15.5 -21.667 15.5 -35v-417zM538 624.002c0 -16 -5.83301 -29.666 -17.5 -40.999s-25.5 -17 -41.5 -17
c-16.667 0 -30.834 5.83301 -42.501 17.5s-17.5 25.167 -17.5 40.5s5.83301 28.666 17.5 39.999s25.834 17 42.501 17c16 0 29.833 -5.5 41.5 -16.5s17.5 -24.5 17.5 -40.5z" />
    <glyph glyph-name=".notdef" horiz-adv-x="760" 
 />
    <glyph glyph-name="space" unicode="&#xa0;" horiz-adv-x="300" 
 />
    <glyph glyph-name="space" unicode=" " horiz-adv-x="300" 
 />
    <glyph glyph-name="exclam" unicode="!" horiz-adv-x="247" 
d="M68 662c0 13.333 5.33203 25.333 15.999 36s23.667 16 39 16s28.333 -5.33301 39 -16s16 -22.667 16 -36l-10 -447c-0.666992 -12 -5.5 -22.333 -14.5 -31s-19.167 -13 -30.5 -13c-13.333 0 -24.166 4.33301 -32.499 13s-12.5 19 -12.5 31zM192.999 57
c0 -18 -6.66699 -33.667 -20 -47s-29.333 -20 -48 -20c-19.333 0 -35.666 6.66699 -48.999 20s-20 29 -20 47c0 17.333 6.66699 32.5 20 45.5s29.666 19.5 48.999 19.5c18.667 0 34.667 -6.5 48 -19.5s20 -28.167 20 -45.5z" />
    <glyph glyph-name="quotedbl" unicode="&#x22;" horiz-adv-x="362" 
d="M80 720c2.66699 12 9.83496 21.6641 21.502 28.9971s24.167 10.333 37.5 9c14.667 -2.66699 26.167 -9.16699 34.5 -19.5s10.833 -21.5 7.5 -33.5c-2 -9.33301 -5.5 -24.666 -10.5 -45.999l-15.5 -67l-15 -67c-4.66699 -21.333 -8.33398 -36.666 -11.001 -45.999
c-2 -9.33301 -7.33301 -16.666 -16 -21.999s-18 -7.33301 -28 -6c-9.33301 1.33301 -16.833 6.5 -22.5 15.5s-7.83398 18.167 -6.50098 27.5zM219.001 719.997c2 12 9.00195 21.6641 21.002 28.9971s24.667 10.333 38 9c14 -2.66699 25.167 -9.16699 33.5 -19.5
s10.833 -21.5 7.5 -33.5c-2 -9.33301 -5.5 -24.666 -10.5 -45.999l-15 -67l-15 -67c-5 -21.333 -8.5 -36.666 -10.5 -45.999c-2.66699 -9.33301 -8.33398 -16.666 -17.001 -21.999s-17.667 -7.33301 -27 -6c-10 1.33301 -17.833 6.5 -23.5 15.5
s-7.83398 18.167 -6.50098 27.5z" />
    <glyph glyph-name="numbersign" unicode="#" horiz-adv-x="561" 
d="M169 491l38.998 170.003c3.33301 13.333 9.83301 25 19.5 35s21.834 15 36.501 15c13.333 -1.33301 24.333 -7.5 33 -18.5s13 -21.5 13 -31.5v-3c-4.66699 -28 -10.5 -55.833 -17.5 -83.5l-20.5 -83.5h77l39 170c3.33301 13.333 9.83301 25 19.5 35s21.834 15 36.501 15
c13.333 -1.33301 24.333 -7.5 33 -18.5s13 -21.5 13 -31.5v-4c-4.66699 -28 -10.5 -55.833 -17.5 -83.5l-20.5 -82.5c8.66699 0 17.167 -0.833008 25.5 -2.5s15.833 -4.33398 22.5 -8.00098s12.167 -8.83398 16.5 -15.501s6.5 -15 6.5 -25
c0 -14.667 -5.16699 -26.834 -15.5 -36.501s-23.166 -14.5 -38.499 -14.5h-40l-17 -70h27c5.33301 0 11.166 -1.33301 17.499 -4s12.166 -6.33398 17.499 -11.001s9.83301 -10.167 13.5 -16.5s5.5 -13.166 5.5 -20.499c0 -18 -6.33301 -31 -19 -39s-28 -12 -46 -12h-39
l-40 -172c-3.33301 -15.333 -9.83301 -27.5 -19.5 -36.5s-21.834 -13.5 -36.501 -13.5c-4.66699 0.666992 -8.66699 2.5 -12 5.5s-5 7.16699 -5 12.5c-9.33301 1.33301 -16.5 5.66602 -21.5 12.999s-7.5 15.666 -7.5 24.999l38 166h-76l-40 -172
c-2 -7.33301 -5.33301 -13.666 -10 -18.999s-10 -9.83301 -16 -13.5s-12.167 -6.5 -18.5 -8.5s-11.833 -3 -16.5 -3c-11.333 0 -21.166 4.16699 -29.499 12.5s-12.5 18.5 -12.5 30.5l39 173c-19.333 0 -35.5 3.83301 -48.5 11.5s-19.5 20.834 -19.5 39.501
c0 14.667 5.5 27 16.5 37s23.5 15 37.5 15h38l16 70h-24c-13.333 0 -25.666 4.66699 -36.999 14s-17 21.666 -17 36.999c0 14.667 5.5 26.834 16.5 36.501s23.5 14.5 37.5 14.5h48zM231.998 319.003h77l16 70h-76z" />
    <glyph glyph-name="dollar" unicode="$" horiz-adv-x="513" 
d="M231 20c-19.333 0.666992 -40.002 2.66797 -62.002 6.00098s-42.667 8.33301 -62 15s-35.333 15.334 -48 26.001s-19 23.334 -19 38.001c0 13.333 4.83301 24.833 14.5 34.5s23.167 14.5 40.5 14.5c9.33301 0 18.666 -1.5 27.999 -4.5l30 -10
c10.667 -3.66699 22.334 -7.16699 35.001 -10.5s27 -5.33301 43 -6v188c-23.333 7.33301 -46.333 15.5 -69 24.5s-43 20.333 -61 34s-32.5 31 -43.5 52s-16.5 47.167 -16.5 78.5c0 55.333 17 98.666 51 129.999s80.333 49 139 53v50c0 7.33301 2.5 13.5 7.5 18.5
s11.167 7.5 18.5 7.5s13.5 -2.5 18.5 -7.5s7.5 -11.167 7.5 -18.5v-50c16 -1.33301 33.333 -3.33301 52 -6s36 -7 52 -13s29.5 -13.833 40.5 -23.5s16.5 -21.5 16.5 -35.5c0 -13.333 -5 -25 -15 -35s-23.333 -15 -40 -15c-8 0 -15.333 1.16699 -22 3.5l-22 8
c-8 3 -16.833 5.83301 -26.5 8.5s-21.5 4.66699 -35.5 6v-178c24 -8 47.333 -16.333 70 -25s42.834 -19.834 60.501 -33.501s32 -30.667 43 -51s16.5 -45.833 16.5 -76.5c0 -28.667 -4.66699 -54.334 -14 -77.001s-22.5 -42.167 -39.5 -58.5s-37.167 -29.5 -60.5 -39.5
s-48.666 -16.667 -75.999 -20v-50c0 -7.33301 -2.5 -13.5 -7.5 -18.5s-11.167 -7.5 -18.5 -7.5s-13.5 2.5 -18.5 7.5s-7.5 11.167 -7.5 18.5v48zM358.998 209.001c-0.666992 23.333 -6.33203 40.332 -16.999 50.999s-21.334 18.334 -32.001 23.001l-27 11v-168
c50.667 9.33301 76 37 76 83zM231 421v159c-21.333 -3.33301 -39.5 -10.5 -54.5 -21.5s-22.5 -28.5 -22.5 -52.5c0 -11.333 1.66699 -21.166 5 -29.499s7.5 -15.333 12.5 -21s10.333 -10.334 16 -14.001s11.167 -6.5 16.5 -8.5z" />
    <glyph glyph-name="percent" unicode="%" horiz-adv-x="723" 
d="M532 -10c-24.667 0 -46.501 4.33301 -65.501 13s-34.833 20.5 -47.5 35.5s-22.167 32.667 -28.5 53s-9.5 42.5 -9.5 66.5c0 23.333 3.33301 45.166 10 65.499s16.334 38 29.001 53s28.334 26.833 47.001 35.5s40.334 13 65.001 13c24 0 45.5 -4.33301 64.5 -13
s34.833 -20.5 47.5 -35.5s22.334 -32.667 29.001 -53s10 -42.166 10 -65.499c0 -24 -3.33301 -46.167 -10 -66.5s-16.334 -38 -29.001 -53s-28.334 -26.833 -47.001 -35.5s-40.334 -13 -65.001 -13zM237.999 23c-6 -11.333 -14.665 -19.0039 -25.998 -23.0039
s-23.333 -4.33301 -36 -1c-12.667 4.66699 -21.834 12.834 -27.501 24.501s-6.83398 23.834 -3.50098 36.501l4 10l337 621c6.66699 10.667 15.5 17.834 26.5 21.501s22.5 3.83398 34.5 0.500977s21.333 -10.333 28 -21s8.33398 -22 5.00098 -34
c-0.666992 -2 -1.33398 -4.33301 -2.00098 -7s-1.66699 -4.66699 -3 -6zM532.001 76.9961c19.333 0 33.833 7.16699 43.5 21.5s14.5 34.833 14.5 61.5c0 24.667 -4.83301 43.834 -14.5 57.501s-24.167 20.5 -43.5 20.5c-20 0 -34.667 -6.83301 -44 -20.5
s-14 -32.834 -14 -57.501c0 -26.667 4.66699 -47.167 14 -61.5s24 -21.5 44 -21.5zM191.001 466.996c19.333 0 33.833 7.16699 43.5 21.5s14.5 34.833 14.5 61.5c0 24.667 -4.83301 43.834 -14.5 57.501s-24.167 20.5 -43.5 20.5c-20 0 -34.667 -6.83301 -44 -20.5
s-14 -32.834 -14 -57.501c0 -26.667 4.66699 -47.167 14 -61.5s24 -21.5 44 -21.5zM191.001 379.996c-24.667 0 -46.3311 4.33301 -64.998 13s-34.334 20.5 -47.001 35.5s-22.334 32.667 -29.001 53s-10 42.5 -10 66.5c0 23.333 3.16699 45.166 9.5 65.499
s15.833 38 28.5 53s28.5 26.833 47.5 35.5s40.833 13 65.5 13s46.334 -4.33301 65.001 -13s34.334 -20.5 47.001 -35.5s22.334 -32.667 29.001 -53s10 -42.166 10 -65.499c0 -24 -3.33301 -46.167 -10 -66.5s-16.334 -38 -29.001 -53s-28.334 -26.833 -47.001 -35.5
s-40.334 -13 -65.001 -13z" />
    <glyph glyph-name="ampersand" unicode="&#x26;" horiz-adv-x="662" 
d="M620 42c0 -13.333 -4.66016 -24.999 -13.9932 -34.999s-21.666 -15 -36.999 -15c-18.667 0 -35.834 8.5 -51.501 25.5s-32.5 36.833 -50.5 59.5c-25.333 -23.333 -54.333 -43.5 -87 -60.5s-71.334 -25.5 -116.001 -25.5c-33.333 0 -63.5 5 -90.5 15
s-50.333 23.667 -70 41s-34.834 37.833 -45.501 61.5s-16 49.5 -16 77.5c0 25.333 4.16699 48.5 12.5 69.5s19.166 40 32.499 57s28.5 32.167 45.5 45.5s34.167 25.333 51.5 36c-23.333 26 -41.5 51.667 -54.5 77s-19.5 51.666 -19.5 78.999c0 24.667 5 47 15 67
s23.5 37 40.5 51s36.667 24.833 59 32.5s45.5 11.5 69.5 11.5c24.667 0 47.834 -4 69.501 -12s40.5 -18.333 56.5 -31s28.667 -27.167 38 -43.5s14 -32.833 14 -49.5c0 -8 -2 -15 -6 -21s-8.83301 -11.167 -14.5 -15.5s-11.834 -7.5 -18.501 -9.5s-12.334 -3 -17.001 -3
c-14.667 0 -25.334 4.33301 -32.001 13s-12.834 18.334 -18.501 29.001s-12.834 20.334 -21.501 29.001s-22 13 -40 13c-8 0 -16.833 -1.66699 -26.5 -5s-19 -7.83301 -28 -13.5s-16.5 -12.334 -22.5 -20.001s-9 -15.834 -9 -24.501c0 -18.667 7.5 -37.834 22.5 -57.501
s30.833 -38.834 47.5 -57.501l177 -195c8 12.667 15.333 26.5 22 41.5s13.5 28.667 20.5 41s14.5 22.666 22.5 30.999s17 12.5 27 12.5c12.667 0 25.334 -4.66699 38.001 -14s19 -21.666 19 -36.999c0 -10 -2.33301 -21.5 -7 -34.5s-10.834 -26.5 -18.501 -40.5
s-16 -28.167 -25 -42.5s-17.833 -27.5 -26.5 -39.5l70 -82c3.33301 -3.33301 6.33301 -7.66602 9 -12.999s4 -11.666 4 -18.999zM249.007 319.001c-12.667 -7.33301 -24.999 -15.167 -36.999 -23.5s-22.667 -17.5 -32 -27.5s-16.833 -21.167 -22.5 -33.5
s-8.5 -25.833 -8.5 -40.5c0 -14 2.5 -27.5 7.5 -40.5s12.167 -24.333 21.5 -34s20.833 -17.5 34.5 -23.5s29.167 -9 46.5 -9c29.333 0 55.166 6.33301 77.499 19s42.833 28.667 61.5 48z" />
    <glyph glyph-name="quotesingle" unicode="'" horiz-adv-x="242" 
d="M88 720c2 12 9.00195 21.6641 21.002 28.9971s24.667 10.333 38 9c14 -2.66699 25.167 -9.16699 33.5 -19.5s10.833 -21.5 7.5 -33.5c-2 -9.33301 -5.5 -24.666 -10.5 -45.999l-15 -67l-15 -67c-5 -21.333 -8.5 -36.666 -10.5 -45.999
c-2.66699 -9.33301 -8.33398 -16.666 -17.001 -21.999s-17.667 -7.33301 -27 -6c-10 1.33301 -17.833 6.5 -23.5 15.5s-7.83398 18.167 -6.50098 27.5z" />
    <glyph glyph-name="parenleft" unicode="(" horiz-adv-x="296" 
d="M169 226c0 -64.667 7.33301 -128.332 22 -190.999s38.667 -122.334 72 -179.001c3.33301 -5.33301 6.16602 -10.5 8.49902 -15.5s3.5 -10.833 3.5 -17.5c0 -13.333 -4.33301 -25.666 -13 -36.999s-22 -17 -40 -17c-20 0 -35.333 8.33301 -46 25
c-41.333 64.667 -71 134.334 -89 209.001s-27 149 -27 223c0 73.333 9 147.5 27 222.5s47.667 144.833 89 209.5c10.667 16.667 26 25 46 25c18 0 31.333 -5.66699 40 -17s13 -24 13 -38c0 -6 -1.16699 -11.5 -3.5 -16.5s-5.16602 -10.167 -8.49902 -15.5
c-33.333 -56.667 -57.333 -116.334 -72 -179.001s-22 -126.334 -22 -191.001z" />
    <glyph glyph-name="parenright" unicode=")" horiz-adv-x="295" 
d="M126 226c0 64.667 -7.5 128.332 -22.5 190.999s-38.833 122.334 -71.5 179.001c-3.33301 5.33301 -6.16602 10.5 -8.49902 15.5s-3.5 10.5 -3.5 16.5c0 14 4.16699 26.667 12.5 38s21.833 17 40.5 17c9.33301 0 18 -2 26 -6s14.667 -10.333 20 -19
c40.667 -64.667 70.167 -134.5 88.5 -209.5s27.5 -149.167 27.5 -222.5c0 -74 -9.16699 -148.333 -27.5 -223s-47.833 -144.334 -88.5 -209.001c-5.33301 -8.66699 -12 -15 -20 -19s-16.667 -6 -26 -6c-18.667 0 -32.167 5.66699 -40.5 17s-12.5 23.666 -12.5 36.999
c0 6.66699 1.16699 12.5 3.5 17.5s5.16602 10.167 8.49902 15.5c32.667 56.667 56.5 116.334 71.5 179.001s22.5 126.334 22.5 191.001z" />
    <glyph glyph-name="asterisk" unicode="*" horiz-adv-x="515" 
d="M398 419c2.66699 -3.33301 3.83789 -6.66602 3.50488 -9.99902s-0.5 -6.66602 -0.5 -9.99902c0 -11.333 -4.66699 -22.166 -14 -32.499s-21.333 -15.5 -36 -15.5c-10.667 0 -20.167 3.83301 -28.5 11.5s-16.333 17 -24 28s-14.667 22.667 -21 35
s-12.833 23.166 -19.5 32.499c-6.66699 -9.33301 -13.334 -20.166 -20.001 -32.499s-13.834 -24 -21.501 -35s-15.667 -20.333 -24 -28s-17.833 -11.5 -28.5 -11.5c-14.667 0 -26.667 5.16699 -36 15.5s-14 21.166 -14 32.499c0 3.33301 -0.166992 6.66602 -0.5 9.99902
s0.833984 6.66602 3.50098 9.99902l72 89l-88 18c-12.667 2.66699 -24.334 8 -35.001 16s-16 18.667 -16 32c0 16 5 28 15 36s20 12 30 12c5.33301 0 9 -0.333008 11 -1c18.667 -6.66699 37.167 -13.667 55.5 -21s36.833 -14.333 55.5 -21l-9 90
c-0.666992 2 -1 4.66699 -1 8c0 4.66699 0.833008 10.167 2.5 16.5s4.5 12.166 8.5 17.499s9.16699 10 15.5 14s14.166 6 23.499 6s17.166 -2 23.499 -6s11.5 -8.66699 15.5 -14s6.83301 -11.166 8.5 -17.499s2.5 -11.833 2.5 -16.5c0 -3.33301 -0.333008 -6 -1 -8l-9 -90
c18.667 6.66699 37.167 13.667 55.5 21s36.833 14.333 55.5 21c2 0.666992 5.66699 1 11 1c10 0 20 -4 30 -12s15 -20 15 -36c0 -13.333 -5.33301 -24 -16 -32s-22.334 -13.333 -35.001 -16l-88 -18z" />
    <glyph glyph-name="plus" unicode="+" horiz-adv-x="520" 
d="M206 302l-140.001 0.00195312c-15.333 0 -28.166 5 -38.499 15s-15.5 22.333 -15.5 37s5.5 26.834 16.5 36.501s23.5 14.5 37.5 14.5h140v149c0 13.333 5.16699 25.333 15.5 36s23.166 16 38.499 16s28.166 -5 38.499 -15s15.5 -22.333 15.5 -37v-149h140
c13.333 0 25.666 -4.83301 36.999 -14.5s17 -21.834 17 -36.501s-5.16699 -27 -15.5 -37s-23.166 -15 -38.499 -15h-140v-149c0 -14.667 -5.16699 -26.834 -15.5 -36.501s-23.166 -14.5 -38.499 -14.5s-28.166 5.16699 -38.499 15.5s-15.5 22.166 -15.5 35.499v149z" />
    <glyph glyph-name="comma" unicode="," horiz-adv-x="250" 
d="M78 -99c0 8 1.49902 15.3301 4.49902 21.9971s6.33301 13.334 10 20.001s7.33398 13.834 11.001 21.501s6.83398 16.834 9.50098 27.501c-16.667 2.66699 -30.334 10 -41.001 22s-16 26.333 -16 43c0 17.333 6.66699 32.5 20 45.5s29.666 19.5 48.999 19.5
c18 0 33.833 -6.33301 47.5 -19s20.5 -28.667 20.5 -48c0 -16 -2.66699 -34.667 -8 -56s-12.166 -41.5 -20.499 -60.5s-17.5 -35.167 -27.5 -48.5s-19.667 -20 -29 -20c-6.66699 0 -13.667 1.83301 -21 5.5s-10.333 12.167 -9 25.5z" />
    <glyph glyph-name="hyphen" unicode="-" horiz-adv-x="419" 
d="M385 297c0 -13.333 -5 -24.666 -15 -33.999s-22 -14 -36 -14h-249c-15.333 0 -27.833 4.66699 -37.5 14s-14.5 20.666 -14.5 33.999s4.83301 24.833 14.5 34.5s22.167 14.5 37.5 14.5h249c14 0 26 -4.83301 36 -14.5s15 -21.167 15 -34.5z" />
    <glyph glyph-name="period" unicode="." horiz-adv-x="250" 
d="M193 57c0 -18 -6.66699 -33.667 -20 -47s-29.333 -20 -48 -20c-19.333 0 -35.666 6.66699 -48.999 20s-20 29 -20 47c0 17.333 6.66699 32.5 20 45.5s29.666 19.5 48.999 19.5c18.667 0 34.667 -6.5 48 -19.5s20 -28.167 20 -45.5z" />
    <glyph glyph-name="slash" unicode="/" horiz-adv-x="320" 
d="M80 -10c-4 -10.667 -10.668 -19.001 -20.001 -25.001s-19.333 -9 -30 -9c-14 0 -26.167 4.83301 -36.5 14.5s-15.5 20.834 -15.5 33.501c0 4 0.333008 7.33301 1 10l260 710c4 11.333 10.333 19.833 19 25.5s18.334 8.5 29.001 8.5c15.333 0 28 -5.5 38 -16.5
s15 -23.167 15 -36.5c0 -2.66699 -0.333008 -5.5 -1 -8.5s-1.66699 -5.5 -3 -7.5z" />
    <glyph glyph-name="zero" unicode="0" horiz-adv-x="520" 
d="M260 626c-38.667 0 -66.167 -11.833 -82.5 -35.5s-24.5 -54.5 -24.5 -92.5v-294c0 -34.667 9 -62.5 27 -83.5s44.667 -31.5 80 -31.5c34.667 0 61.167 10.5 79.5 31.5s27.5 48.833 27.5 83.5v294c0 38 -8.33301 68.833 -25 92.5s-44 35.5 -82 35.5zM260 724
c37.333 0 69.665 -6.16699 96.998 -18.5s49.833 -29 67.5 -50s30.667 -45.833 39 -74.5s12.5 -59 12.5 -91v-286c0 -30 -4.66699 -58 -14 -84s-23.166 -48.667 -41.499 -68s-41 -34.5 -68 -45.5s-57.833 -16.5 -92.5 -16.5c-35.333 0 -66.333 5.5 -93 16.5
s-49.167 26.167 -67.5 45.5s-32.166 42 -41.499 68s-14 54 -14 84v286c0 32 4.16699 62.333 12.5 91s21.333 53.5 39 74.5s40 37.667 67 50s59.5 18.5 97.5 18.5z" />
    <glyph glyph-name="one" unicode="1" horiz-adv-x="520" 
d="M266 577l-101.001 -63.999c-8.66699 -5.33301 -17.167 -10 -25.5 -14s-17.166 -6 -26.499 -6c-11.333 0 -22.333 3.83301 -33 11.5s-16 19.167 -16 34.5c0 20.667 8 35.667 24 45l198 121c5.33301 3.33301 10.5 5.66602 15.5 6.99902s10.167 2 15.5 2
c16.667 0 30.667 -5.33301 42 -16s17 -23.667 17 -39v-616c0 -13.333 -5.33301 -25.333 -16 -36s-23.667 -16 -39 -16s-28.333 5.33301 -39 16s-16 22.667 -16 36v534z" />
    <glyph glyph-name="two" unicode="2" horiz-adv-x="520" 
d="M479 50c0 -14 -5.1748 -25.834 -15.5078 -35.501s-23.166 -14.5 -38.499 -14.5h-329c-16.667 0 -30.167 5.16699 -40.5 15.5s-15.5 23.166 -15.5 38.499c0 6.66699 0.333008 13.834 1 21.501s2.66699 14.834 6 21.501c18.667 42 43.334 79.667 74.001 113s63 66 97 98
c15.333 14.667 31.833 29.667 49.5 45s33.834 31.5 48.501 48.5s26.834 35 36.501 54s14.5 39.167 14.5 60.5c0 30.667 -9.16699 56.667 -27.5 78s-45.5 32 -81.5 32c-18 0 -34.167 -1.5 -48.5 -4.5s-28.166 -7.16699 -41.499 -12.5
c-11.333 -5.33301 -22.166 -11.333 -32.499 -18s-21.166 -10 -32.499 -10c-13.333 0 -25.5 4.5 -36.5 13.5s-16.5 20.833 -16.5 35.5c0 15.333 7.33301 28.833 22 40.5s32.834 21.5 54.501 29.5s44.5 14 68.5 18s45.333 6 64 6c34 0 64.333 -5.16699 91 -15.5
s49.334 -24.333 68.001 -42s32.834 -38.5 42.501 -62.5s14.5 -49.667 14.5 -77c0 -42 -7.16699 -77.833 -21.5 -107.5s-32.5 -56.167 -54.5 -79.5c-18.667 -20 -38.334 -39.667 -59.001 -59l-61 -58c-20 -19.333 -39 -39 -57 -59s-33.333 -41.333 -46 -64h249
c15.333 0 28.166 -4.83301 38.499 -14.5s15.5 -21.5 15.5 -35.5z" />
    <glyph glyph-name="three" unicode="3" horiz-adv-x="520" 
d="M438 612l-76.0039 -94.5039l-76 -94.5c27.333 -2.66699 52.5 -9 75.5 -19s42.667 -23.5 59 -40.5s29.166 -37.167 38.499 -60.5s14 -49.333 14 -78c0 -26.667 -4.33301 -53.834 -13 -81.501s-22.167 -52.667 -40.5 -75s-41.666 -40.666 -69.999 -54.999
s-62.5 -21.5 -102.5 -21.5c-11.333 0 -28 1 -50 3s-44.167 6 -66.5 12s-41.833 14.5 -58.5 25.5s-25 25.5 -25 43.5c0 13.333 4.83301 25 14.5 35s21.834 15 36.501 15c8.66699 0 17.5 -2 26.5 -6l29.5 -13c10.667 -4.66699 22.334 -9 35.001 -13s27.334 -6 44.001 -6
c24.667 0 45.5 4 62.5 12s30.5 18.333 40.5 31s17.167 26.834 21.5 42.501s6.5 31.167 6.5 46.5c0 39.333 -11.833 67.5 -35.5 84.5s-53.5 25.5 -89.5 25.5c-7.33301 0 -13.166 -0.5 -17.499 -1.5s-8.5 -2.33301 -12.5 -4s-7.83301 -3 -11.5 -4s-8.5 -1.5 -14.5 -1.5
c-13.333 0 -24.5 4.83301 -33.5 14.5s-13.5 20.834 -13.5 33.501c0 4 0.5 8.83301 1.5 14.5s2.16699 9.83398 3.5 12.501l164 207h-191c-15.333 0 -28.166 5 -38.499 15s-15.5 22 -15.5 36c0 12 5.16699 24 15.5 36s23.166 18 38.499 18h279
c15.333 0 28.833 -5.16699 40.5 -15.5s17.5 -24.166 17.5 -41.499c0 -12.667 -4.33301 -25 -13 -37z" />
    <glyph glyph-name="four" unicode="4" horiz-adv-x="520" 
d="M429 42c0 -14.667 -5.16797 -26.834 -15.501 -36.501s-23.166 -14.5 -38.499 -14.5s-28.166 4.83301 -38.499 14.5s-15.5 21.834 -15.5 36.501v101h-235c-16.667 0 -30.167 5.5 -40.5 16.5s-15.5 23.833 -15.5 38.5c0 2 0.666992 6.33301 2 13s3.66602 12.667 6.99902 18
l192 462c4 9.33301 10.5 16.833 19.5 22.5s18.5 8.5 28.5 8.5c13.333 0 25.666 -5.16699 36.999 -15.5s17 -22.5 17 -36.5c0 -2.66699 -0.166992 -5.5 -0.5 -8.5s-1.16602 -6.16699 -2.49902 -9.5l-20.5 -49l-30 -72l-35 -83.5l-35 -83.5l-30 -72l-20.5 -49h162v174
c0 14.667 5.16699 26.834 15.5 36.501s23.166 14.5 38.499 14.5c14.667 0 27.334 -4.83301 38.001 -14.5s16 -21.834 16 -36.501v-174h28c14.667 0 27 -5 37 -15s15 -21.667 15 -35c0 -14 -5 -25.833 -15 -35.5s-22.333 -14.5 -37 -14.5h-28v-101z" />
    <glyph glyph-name="five" unicode="5" horiz-adv-x="520" 
d="M473 230c0 -28.667 -4.16797 -57.168 -12.501 -85.501s-21.166 -53.833 -38.499 -76.5s-39.833 -41 -67.5 -55s-60.5 -21 -98.5 -21c-11.333 0 -28.5 1 -51.5 3s-46.167 6 -69.5 12s-43.833 14.5 -61.5 25.5s-26.5 25.5 -26.5 43.5c0 13.333 4.83301 25 14.5 35
s22.167 15 37.5 15c8 0 16.333 -2 25 -6l29 -13c10.667 -4.66699 22.334 -9 35.001 -13s27.667 -6 45 -6c24.667 0 45.5 4 62.5 12s30.5 18.5 40.5 31.5s17.167 27.667 21.5 44s6.5 33.166 6.5 50.499c0 22 -2.83301 40.833 -8.5 56.5s-13.5 28.834 -23.5 39.501
s-21.833 18.5 -35.5 23.5s-28.167 7.5 -43.5 7.5c-13.333 0 -25 -1.33301 -35 -4s-19.667 -6.66699 -29 -12c-2.66699 -1.33301 -6.33398 -3.66602 -11.001 -6.99902s-9.66699 -6.66602 -15 -9.99902s-11.166 -6.33301 -17.499 -9s-12.833 -4 -19.5 -4
c-16 0 -29.167 5.16699 -39.5 15.5s-15.5 23.833 -15.5 40.5l10 287c0.666992 17.333 7.16699 31 19.5 41s26.166 15 41.499 15h241c6.66699 0 13.5 -0.833008 20.5 -2.5s13.5 -4.5 19.5 -8.5s11 -9.33301 15 -16s6 -14.667 6 -24c0 -18 -6.5 -30.667 -19.5 -38
s-26.833 -11 -41.5 -11h-202c-1.33301 -28.667 -2.5 -57.334 -3.5 -86.001s-2.16699 -57.667 -3.5 -87c12.667 6 25.667 10.167 39 12.5s27.333 3.5 42 3.5c32 0 61.333 -5 88 -15s49.667 -24.333 69 -43s34.333 -41.667 45 -69s16 -58 16 -92z" />
    <glyph glyph-name="six" unicode="6" horiz-adv-x="520" 
d="M148 409c19.333 14.667 39.3301 24.6641 59.9971 29.9971s41.334 8 62.001 8c28.667 0 56 -4.66699 82 -14s48.833 -23.166 68.5 -41.499s35.167 -41.5 46.5 -69.5s17 -60.333 17 -97c0 -32 -4.66699 -62.167 -14 -90.5s-23.166 -53.166 -41.499 -74.499
s-41.5 -38.166 -69.5 -50.499s-61 -18.5 -99 -18.5c-43.333 0 -79.5 8.5 -108.5 25.5s-52 40.667 -69 71s-29 66.333 -36 108s-10.5 87.5 -10.5 137.5c0 123.333 19.167 217.666 57.5 282.999s97.5 98 177.5 98c10 0 24.333 -0.666992 43 -2s37.334 -4.5 56.001 -9.5
s35 -12 49 -21s21 -21.5 21 -37.5c0 -11.333 -4.5 -21.833 -13.5 -31.5s-20.833 -14.5 -35.5 -14.5c-14 0 -29.5 3 -46.5 9s-37.167 9.66699 -60.5 11c-27.333 0 -49.5 -5.33301 -66.5 -16s-30.5 -25.5 -40.5 -44.5s-17.167 -41.167 -21.5 -66.5
s-6.83301 -52.666 -7.5 -81.999zM145.997 283.997c0 -25.333 1.49707 -49.502 4.49707 -72.502s8.83301 -43.167 17.5 -60.5s20.834 -31.333 36.501 -42s35.834 -16 60.501 -16c20.667 0 38 3.66699 52 11s25.333 17 34 29s14.834 25.833 18.501 41.5s5.5 31.834 5.5 48.501
c0 42.667 -10.167 74 -30.5 94s-47.5 30 -81.5 30c-23.333 0 -45.5 -4.16699 -66.5 -12.5s-37.833 -19.166 -50.5 -32.499v-18z" />
    <glyph glyph-name="seven" unicode="7" horiz-adv-x="520" 
d="M475 652c0 -3.33301 -0.332031 -7.49805 -0.999023 -12.498s-2 -9.5 -4 -13.5l-249 -602c-3.33301 -8.66699 -9 -16.334 -17 -23.001s-18.667 -10 -32 -10c-14.667 0 -27.5 4.16699 -38.5 12.5s-16.833 19.833 -17.5 34.5c0 3.33301 0.333008 7.16602 1 11.499
s1.66699 8.16602 3 11.499l227 541h-249c-14 0 -26.333 5 -37 15s-16 22.333 -16 37s5 27 15 37s22.667 15 38 15h320c15.333 0 28.666 -5.16699 39.999 -15.5s17 -23.166 17 -38.499z" />
    <glyph glyph-name="eight" unicode="8" horiz-adv-x="520" 
d="M496 201c0 -30 -5.83203 -57.9951 -17.499 -83.9951s-27.834 -48.333 -48.501 -67s-45.5 -33.334 -74.5 -44.001s-60.833 -16 -95.5 -16c-34 0 -65.5 5.16699 -94.5 15.5s-54 24.666 -75 42.999s-37.5 40.166 -49.5 65.499s-18 53 -18 83
c0 41.333 10.667 76.166 32 104.499s47.666 51.833 78.999 70.5c-25.333 17.333 -46 38.666 -62 63.999s-24 55.333 -24 90c0 28.667 5.66699 54.667 17 78s26.5 43 45.5 59s41.333 28.333 67 37s52.834 13 81.501 13c29.333 0 56.833 -4.5 82.5 -13.5s48 -21.5 67 -37.5
s34 -35.333 45 -58s16.5 -47.667 16.5 -75c0 -32 -7.33301 -60.333 -22 -85s-36 -46.334 -64 -65.001c32 -19.333 58.667 -43.166 80 -71.499s32 -63.833 32 -106.5zM363.001 526.005c0 27.333 -10 49.5 -30 66.5s-44.333 25.5 -73 25.5c-30 0 -54.833 -8.5 -74.5 -25.5
s-29.5 -39.167 -29.5 -66.5c0 -28.667 10.5 -52 31.5 -70s45.833 -29.667 74.5 -35c28 6.66699 51.833 19 71.5 37s29.5 40.667 29.5 68zM387.001 201.005c0 17.333 -3.66504 32.833 -10.998 46.5s-17 25.667 -29 36s-25.833 18.833 -41.5 25.5s-31.834 11.667 -48.501 15
c-35.333 -7.33301 -65 -21.5 -89 -42.5s-36 -47.833 -36 -80.5c0 -16 3.16699 -31 9.5 -45s15.333 -26 27 -36s25.334 -17.833 41.001 -23.5s32.5 -8.5 50.5 -8.5c18.667 0 35.667 3 51 9s28.666 14 39.999 24s20.166 21.833 26.499 35.5s9.5 28.5 9.5 44.5z" />
    <glyph glyph-name="nine" unicode="9" horiz-adv-x="520" 
d="M371 296c-19.333 -14.667 -39.1631 -24.8301 -59.4961 -30.4971s-40.833 -8.5 -61.5 -8.5c-29.333 0 -56.833 4.66699 -82.5 14s-48.334 23.166 -68.001 41.499s-35.167 41.5 -46.5 69.5s-17 61 -17 99c0 31.333 4.5 61.166 13.5 89.499s22.5 53.166 40.5 74.499
s40.833 38.166 68.5 50.499s60.5 18.5 98.5 18.5c44 0 80.5 -8.5 109.5 -25.5s52.167 -40.667 69.5 -71s29.666 -66.833 36.999 -109.5s11 -89.667 11 -141c0 -123.333 -19.167 -216.833 -57.5 -280.5s-97.833 -95.5 -178.5 -95.5c-10 0 -24.333 0.666992 -43 2
s-37.167 4.33301 -55.5 9s-34.5 11.667 -48.5 21s-21 21.666 -21 36.999c0 11.333 4.33301 21.833 13 31.5s20.667 14.5 36 14.5c13.333 0 28.666 -3.16699 45.999 -9.5s37.666 -9.5 60.999 -9.5c26.667 0 48.667 5.33301 66 16s31 25.334 41 44.001s17 40.834 21 66.501
s6.33301 53.167 7 82.5zM374.003 421.004c0 26 -1.83105 50.501 -5.49805 73.501s-10.167 43.333 -19.5 61s-21.833 31.5 -37.5 41.5s-35.167 15 -58.5 15c-20 0 -36.833 -3.66699 -50.5 -11s-24.834 -17.166 -33.501 -29.499s-14.834 -26.333 -18.501 -42
s-5.5 -31.834 -5.5 -48.501c0 -42 10 -73 30 -93s47.333 -30 82 -30c23.333 0 45.5 4.16699 66.5 12.5s37.833 19.166 50.5 32.499v18z" />
    <glyph glyph-name="colon" unicode=":" horiz-adv-x="250" 
d="M193 357c0 -18 -6.66699 -33.667 -20 -47s-29.333 -20 -48 -20c-19.333 0 -35.666 6.66699 -48.999 20s-20 29 -20 47c0 17.333 6.66699 32.5 20 45.5s29.666 19.5 48.999 19.5c18.667 0 34.667 -6.5 48 -19.5s20 -28.167 20 -45.5zM193 57
c0 -18 -6.66699 -33.667 -20 -47s-29.333 -20 -48 -20c-19.333 0 -35.666 6.66699 -48.999 20s-20 29 -20 47c0 17.333 6.66699 32.5 20 45.5s29.666 19.5 48.999 19.5c18.667 0 34.667 -6.5 48 -19.5s20 -28.167 20 -45.5z" />
    <glyph glyph-name="semicolon" unicode=";" horiz-adv-x="250" 
d="M78 -99c0 8 1.49902 15.3301 4.49902 21.9971s6.33301 13.334 10 20.001s7.33398 13.834 11.001 21.501s6.83398 16.834 9.50098 27.501c-16.667 2.66699 -30.334 10 -41.001 22s-16 26.333 -16 43c0 17.333 6.66699 32.5 20 45.5s29.666 19.5 48.999 19.5
c18 0 33.833 -6.33301 47.5 -19s20.5 -28.667 20.5 -48c0 -16 -2.66699 -34.667 -8 -56s-12.166 -41.5 -20.499 -60.5s-17.5 -35.167 -27.5 -48.5s-19.667 -20 -29 -20c-6.66699 0 -13.667 1.83301 -21 5.5s-10.333 12.167 -9 25.5zM192.999 356.997
c0 -18 -6.66699 -33.667 -20 -47s-29.333 -20 -48 -20c-19.333 0 -35.666 6.66699 -48.999 20s-20 29 -20 47c0 17.333 6.66699 32.5 20 45.5s29.666 19.5 48.999 19.5c18.667 0 34.667 -6.5 48 -19.5s20 -28.167 20 -45.5z" />
    <glyph glyph-name="less" unicode="&#x3c;" horiz-adv-x="645" 
d="M546 191c10.667 -5.33301 19.333 -12.167 26 -20.5s10 -17.166 10 -26.499c0 -14 -4.83301 -26.167 -14.5 -36.5s-21.5 -15.5 -35.5 -15.5c-5.33301 0 -13.833 2.16699 -25.5 6.5s-22.834 9.16602 -33.501 14.499l-364 181c-12.667 7.33301 -23.5 14.5 -32.5 21.5
s-13.5 19.167 -13.5 36.5s4.33301 29.5 13 36.5s19.334 14.167 32.001 21.5l365 181l14 7c5.33301 2.66699 10.666 5 15.999 7s10.333 3.66699 15 5s8.33398 2 11.001 2c15.333 0 28 -5 38 -15s15 -22.333 15 -37c0 -9.33301 -3.5 -18.333 -10.5 -27
s-15.5 -15.667 -25.5 -21l-332 -160z" />
    <glyph glyph-name="equal" unicode="=" horiz-adv-x="520" 
d="M414 404c13.333 0 25.665 -5 36.998 -15s17 -22.333 17 -37s-5.16699 -26.834 -15.5 -36.501s-23.166 -14.5 -38.499 -14.5h-308c-15.333 0 -28.166 4.83301 -38.499 14.5s-15.5 21.834 -15.5 36.501s5.5 27 16.5 37s23.5 15 37.5 15h308zM413.999 406
c13.333 0 25.665 -4.83301 36.998 -14.5s17 -21.834 17 -36.501s-5.16699 -26.834 -15.5 -36.501s-23.166 -14.5 -38.499 -14.5h-308c-15.333 0 -28.166 4.83301 -38.499 14.5s-15.5 21.834 -15.5 36.501s5.5 26.834 16.5 36.501s23.5 14.5 37.5 14.5h308z" />
    <glyph glyph-name="greater" unicode="&#x3e;" horiz-adv-x="645" 
d="M430 352l-331 160.004c-10.667 5.33301 -19.334 12.333 -26.001 21s-10 17.667 -10 27c0 14 4.83301 26.333 14.5 37s21.834 16 36.501 16c5.33301 0 13.166 -2 23.499 -6s20.166 -8.33301 29.499 -13l369 -184c13.333 -6.66699 24.333 -13.834 33 -21.501
s13 -19.834 13 -36.501c0 -17.333 -4.5 -29.5 -13.5 -36.5s-19.833 -14.167 -32.5 -21.5l-369 -183c-9.33301 -5.33301 -19.666 -9.83301 -30.999 -13.5s-19.333 -5.5 -24 -5.5c-14 0 -25.667 5.16699 -35 15.5s-14 22.5 -14 36.5c0 9.33301 3.33301 18.166 10 26.499
s15.334 15.166 26.001 20.499z" />
    <glyph glyph-name="question" unicode="?" horiz-adv-x="482" 
d="M299 256c-3.33301 -4 -5.33496 -9.49805 -6.00195 -16.498s-1 -13.167 -1 -18.5c-2.66699 -13.333 -8.66699 -25.333 -18 -36s-21.666 -16 -36.999 -16c-17.333 0 -30.833 6 -40.5 18s-14.5 27.667 -14.5 47c1.33301 14 4.83301 27.167 10.5 39.5s12.5 24.333 20.5 36
s16.5 22.667 25.5 33l26.5 30.5l21 24c14 16 27.333 34 40 54s18.667 42.667 18 68c0 29.333 -9.33301 54.666 -28 75.999s-46.667 32 -84 32c-15.333 0 -30.333 -1.33301 -45 -4s-28.667 -7 -42 -13c-11.333 -5.33301 -21.5 -11.333 -30.5 -18s-19.167 -10 -30.5 -10
c-12.667 0 -24.5 4.5 -35.5 13.5s-16.5 20.833 -16.5 35.5c0 16 7.16699 30 21.5 42s32 21.833 53 29.5s43.5 13.334 67.5 17.001s45.333 5.5 64 5.5c32.667 0 62.334 -5 89.001 -15s49.167 -24 67.5 -42s32.5 -39.333 42.5 -64s15 -51.334 15 -80.001c0 -36 -6 -67 -18 -93
s-26.333 -49.167 -43 -69.5s-33.5 -38.833 -50.5 -55.5s-30.833 -33.334 -41.5 -50.001zM304.998 56.002c0 -18 -6.66699 -33.5 -20 -46.5s-29.333 -19.5 -48 -19.5c-19.333 0 -35.666 6.5 -48.999 19.5s-20 28.5 -20 46.5s6.66699 33.333 20 46s29.666 19 48.999 19
c18.667 0 34.667 -6.33301 48 -19s20 -28 20 -46z" />
    <glyph glyph-name="at" unicode="@" horiz-adv-x="764" 
d="M527 14c-8.66699 -4 -19.001 -7.50293 -31.001 -10.5029s-24.833 -5.83301 -38.5 -8.5s-27.834 -4.66699 -42.501 -6s-29 -2 -43 -2c-48.667 0 -92.334 8 -131.001 24s-71.5 38.333 -98.5 67s-47.667 63 -62 103s-21.5 84.333 -21.5 133
c0 47.333 6.83301 90.833 20.5 130.5s34 73.667 61 102s60.5 50.5 100.5 66.5s86 24 138 24c53.333 0 100.333 -8.16699 141 -24.5s74.667 -38.833 102 -67.5s48 -62 62 -100s21 -78.667 21 -122c0 -24 -2.5 -46.167 -7.5 -66.5s-12.833 -37.833 -23.5 -52.5
s-24.5 -26.167 -41.5 -34.5s-37.833 -12.5 -62.5 -12.5c-23.333 0 -42.666 3.5 -57.999 10.5s-28.333 17.167 -39 30.5c-17.333 -19.333 -33.666 -32.666 -48.999 -39.999s-32.666 -11 -51.999 -11c-22.667 0 -43.167 4.16699 -61.5 12.5s-33.833 20 -46.5 35
s-22.5 33 -29.5 54s-10.5 43.833 -10.5 68.5c0 48 13.167 87.5 39.5 118.5s65.833 46.5 118.5 46.5c28 0 50.833 -4.5 68.5 -13.5s32 -21 43 -36s19.167 -32.167 24.5 -51.5s9.33301 -39.666 12 -60.999c0.666992 -8.66699 1.66699 -17.5 3 -26.5s3.5 -17.333 6.5 -25
s6.83301 -13.834 11.5 -18.501s11 -7 19 -7c15.333 0 25.666 7 30.999 21s8 31.667 8 53c0 33.333 -4.83301 64.333 -14.5 93s-24 53.667 -43 75s-42.833 38 -71.5 50s-61.667 18 -99 18s-70 -5.83301 -98 -17.5s-51.667 -28.167 -71 -49.5s-33.833 -46.666 -43.5 -75.999
s-14.5 -61.666 -14.5 -96.999s4.83301 -67.333 14.5 -96s24.334 -53.5 44.001 -74.5s44 -37.167 73 -48.5s63.167 -17 102.5 -17c14.667 0 27.5 0.833008 38.5 2.5s21.167 3.83398 30.5 6.50098s18 5.5 26 8.5l25 9.5c13.333 3.33301 26.333 3.66602 39 0.999023
s21.667 -11 27 -25c2.66699 -8.66699 3.16699 -16.5 1.5 -23.5s-5 -13.167 -10 -18.5s-11 -10 -18 -14s-13.833 -7.33301 -20.5 -10zM375.999 231.997c11.333 0 22 2.33105 32 6.99805s20.667 11.667 32 21c-2 8 -3.33301 14.5 -4 19.5s-1.33398 9.33301 -2.00098 13
s-1 7.5 -1 11.5s-0.333008 9.33301 -1 16c-0.666992 8 -1.5 16.333 -2.5 25s-3.33301 16.834 -7 24.501s-8.66699 13.834 -15 18.501s-15.5 7 -27.5 7c-20.667 0 -35.5 -7.5 -44.5 -22.5s-13.5 -35.167 -13.5 -60.5s4.33301 -45 13 -59s22.334 -21 41.001 -21z" />
    <glyph glyph-name="A" unicode="A" horiz-adv-x="569" 
d="M129 29c-3.33301 -12 -10.5 -21.333 -21.5 -28s-21.167 -10 -30.5 -10c-15.333 0 -28.666 4.66699 -39.999 14s-17 21.666 -17 36.999c0 2.66699 0.166992 6 0.5 10s0.833008 7 1.5 9l195 593c5.33301 17.333 13 31.666 23 42.999s24.667 17 44 17
s33.833 -5.66699 43.5 -17s17.5 -25.666 23.5 -42.999l195 -593c1.33301 -2 2.16602 -5 2.49902 -9s0.5 -7.33301 0.5 -10c0 -15.333 -5.5 -27.666 -16.5 -36.999s-24.5 -14 -40.5 -14c-18 0 -31 5.66699 -39 17s-15.333 26 -22 44l-32 97h-233zM284 549
c-12.667 -53.333 -26.499 -104.667 -41.499 -154l-45.5 -150h173l-46.5 151c-15.667 50 -28.834 101 -39.501 153z" />
    <glyph glyph-name="B" unicode="B" horiz-adv-x="562" 
d="M293 417c12.667 0 25.333 2 38 6s24.167 10 34.5 18s18.666 18.167 24.999 30.5s9.5 26.833 9.5 43.5c0 11.333 -1.66699 22.333 -5 33s-8.66602 20 -15.999 28s-17 14.5 -29 19.5s-27 7.5 -45 7.5h-127v-186h115zM177.999 314l-0.000976562 -212h117
c42 0 73.167 9.33301 93.5 28s30.5 43.667 30.5 75c0 35.333 -11.667 62.333 -35 81s-52.666 28 -87.999 28h-118zM130.998 0c-18 0 -33.001 5.83203 -45.001 17.499s-18 25.834 -18 42.501v585c0 17.333 6.16699 31.666 18.5 42.999s27.166 17 44.499 17h169
c34.667 0 65.167 -5.33301 91.5 -16s48.333 -24.834 66 -42.501s30.834 -37.834 39.501 -60.501s13 -46 13 -70c0 -19.333 -3 -36.666 -9 -51.999s-14.167 -29.166 -24.5 -41.499s-22.666 -23.166 -36.999 -32.499s-29.833 -17.666 -46.5 -24.999c16 -6 32 -13 48 -21
s30.5 -18.167 43.5 -30.5s23.667 -27.333 32 -45s12.5 -38.834 12.5 -63.501c0 -28.667 -5.33301 -55.5 -16 -80.5s-26.167 -46.667 -46.5 -65s-44.833 -32.833 -73.5 -43.5s-61 -16 -97 -16h-165z" />
    <glyph glyph-name="C" unicode="C" horiz-adv-x="502" 
d="M40 456c0 38.667 4.83398 74.0029 14.501 106.003s24.334 59.167 44.001 81.5s44.5 39.666 74.5 51.999s65.667 18.5 107 18.5c24.667 0 48.5 -2.5 71.5 -7.5s43.5 -12 61.5 -21s32.333 -19.333 43 -31s16 -23.834 16 -36.501c0 -13.333 -4.83301 -24.666 -14.5 -33.999
s-21.834 -14 -36.501 -14c-9.33301 0 -16.5 1.5 -21.5 4.5l-18.5 11.5l-5 3c-26.667 18.667 -57 28 -91 28c-25.333 0 -46.666 -3.66699 -63.999 -11s-31.333 -18 -42 -32s-18.167 -31 -22.5 -51s-6.5 -42.333 -6.5 -67v-206c0 -24.667 2.16699 -47 6.5 -67
s11.833 -37 22.5 -51s24.667 -24.667 42 -32s38.666 -11 63.999 -11c33.333 0 63.666 9 90.999 27l5 3l18.5 11.5c5 3 12.167 4.5 21.5 4.5c14.667 0 26.834 -4.66699 36.501 -14s14.5 -20.333 14.5 -33c0 -13.333 -5.33301 -25.833 -16 -37.5s-25 -21.834 -43 -30.501
s-38.5 -15.5 -61.5 -20.5s-46.833 -7.5 -71.5 -7.5c-41.333 0 -77 6.16699 -107 18.5s-54.833 29.666 -74.5 51.999s-34.334 49.333 -44.001 81s-14.5 67.167 -14.5 106.5v206z" />
    <glyph glyph-name="D" unicode="D" horiz-adv-x="574" 
d="M533 267c0 -34.667 -5.00098 -68.167 -15.001 -100.5s-26.167 -60.833 -48.5 -85.5s-52 -44.334 -89 -59.001s-82.5 -22 -136.5 -22h-113c-17.333 0 -32.166 5.83301 -44.499 17.5s-18.5 25.834 -18.5 42.501v586c0 16 6.16699 30 18.5 42s27.166 18 44.499 18h113
c54 0 99.333 -7.16699 136 -21.5s66.334 -33.333 89.001 -57s39 -51.167 49 -82.5s15 -64 15 -98v-180zM422.999 447c0 22 -2.83496 42.5 -8.50195 61.5s-15 35.5 -28 49.5s-29.667 25 -50 33s-45.5 12 -75.5 12h-83v-501h83c30 0 55.333 4.33301 76 13
s37.334 20.5 50.001 35.5s21.834 32.5 27.501 52.5s8.5 41.333 8.5 64v180z" />
    <glyph glyph-name="E" unicode="E" horiz-adv-x="494" 
d="M466 53c0 -15.333 -5.33203 -27.999 -15.999 -37.999s-23.667 -15 -39 -15h-265c-20.667 0 -38.834 4.16699 -54.501 12.5s-23.5 23.833 -23.5 46.5v587c0 14.667 5.83301 28.167 17.5 40.5s26.5 18.5 44.5 18.5h271c15.333 0 28.333 -5.16699 39 -15.5
s16 -22.833 16 -37.5s-5.33301 -26.667 -16 -36s-23.667 -14 -39 -14h-223v-197h204c13.333 0 25.666 -4.83301 36.999 -14.5s17 -21.834 17 -36.501s-5.16699 -27 -15.5 -37s-23.166 -15 -38.499 -15h-204v-200h233c14.667 0 27.5 -4.83301 38.5 -14.5
s16.5 -21.167 16.5 -34.5z" />
    <glyph glyph-name="F" unicode="F" horiz-adv-x="494" 
d="M178 42c0 -13.333 -5.33301 -25.332 -16 -35.999s-23.667 -16 -39 -16s-28.333 5.33301 -39 16s-16 22.667 -16 36v604c0 14.667 5.83301 28.167 17.5 40.5s26.5 18.5 44.5 18.5h271c15.333 0 28.333 -5.16699 39 -15.5s16 -22.5 16 -36.5
c0 -14.667 -5.33301 -26.667 -16 -36s-23.667 -14 -39 -14h-223v-198h204c13.333 0 25.666 -4.83301 36.999 -14.5s17 -21.834 17 -36.501s-5.16699 -27 -15.5 -37s-23.166 -15 -38.499 -15h-204v-260z" />
    <glyph glyph-name="G" unicode="G" horiz-adv-x="540" 
d="M150 250c0 -24.667 2.16699 -46.998 6.5 -66.998s11.833 -37 22.5 -51s24.667 -24.667 42 -32s38.666 -11 63.999 -11c20.667 0 38.834 2.5 54.501 7.5s30.167 12.167 43.5 21.5v185h-75c-13.333 0 -25 5 -35 15s-15 22 -15 36s5 25.833 15 35.5s21.667 14.5 35 14.5h114
c18.667 0 35 -4.83301 49 -14.5s21 -24.167 21 -43.5v-230c0 -22 -6.5 -40.833 -19.5 -56.5s-29.833 -28.5 -50.5 -38.5s-43.5 -17.333 -68.5 -22s-49.5 -7 -73.5 -7c-41.333 0 -77 6.16699 -107 18.5s-54.833 29.666 -74.5 51.999s-34.334 49.333 -44.001 81
s-14.5 67.167 -14.5 106.5v206c0 38.667 4.83301 74 14.5 106s24.334 59.167 44.001 81.5s44.5 39.666 74.5 51.999s65.667 18.5 107 18.5c24.667 0 48.5 -2.5 71.5 -7.5s43.5 -12 61.5 -21s32.333 -19.333 43 -31s16 -23.834 16 -36.501
c0 -13.333 -4.83301 -24.666 -14.5 -33.999s-21.834 -14 -36.501 -14c-9.33301 0 -16.5 1.5 -21.5 4.5l-18.5 11.5l-5 3c-13.333 9.33301 -27.5 16.333 -42.5 21s-31.167 7 -48.5 7c-25.333 0 -46.666 -3.66699 -63.999 -11s-31.333 -18 -42 -32s-18.167 -31 -22.5 -51
s-6.5 -42.333 -6.5 -67v-206z" />
    <glyph glyph-name="H" unicode="H" horiz-adv-x="600" 
d="M531 43c0 -14 -5.33301 -26.333 -16 -37s-23.667 -16 -39 -16c-14.667 0 -27.5 5.33301 -38.5 16s-16.5 23 -16.5 37v258h-243v-258c0 -14 -5.33301 -26.333 -16 -37s-23.667 -16 -39 -16s-28.333 5.33301 -39 16s-16 23 -16 37v619c0 14 5.33301 26.167 16 36.5
s23.667 15.5 39 15.5s28.333 -5.16699 39 -15.5s16 -22.5 16 -36.5v-258h243v258c0 14 5.5 26.167 16.5 36.5s23.833 15.5 38.5 15.5s27.5 -5.16699 38.5 -15.5s16.5 -22.5 16.5 -36.5v-619v0z" />
    <glyph glyph-name="I" unicode="I" horiz-adv-x="247" 
d="M68 662c0 14 5.33301 26.167 16 36.5s23.667 15.5 39 15.5s28.333 -5.16699 39 -15.5s16 -22.5 16 -36.5v-620c0 -13.333 -5.33301 -25.333 -16 -36s-23.667 -16 -39 -16s-28.333 5.33301 -39 16s-16 22.667 -16 36v620z" />
    <glyph glyph-name="J" unicode="J" horiz-adv-x="405" 
d="M337 230c0 -37.333 -3.50098 -70.834 -10.501 -100.501s-18.833 -54.834 -35.5 -75.501s-39 -36.5 -67 -47.5s-62.667 -16.5 -104 -16.5c-8 0 -17.833 0.5 -29.5 1.5s-22.667 3.33301 -33 7s-19.166 9.33398 -26.499 17.001s-11 18.167 -11 31.5
c0 16.667 5.5 29.334 16.5 38.001s22.167 13 33.5 13c8.66699 0 17.5 -1 26.5 -3s20.5 -3 34.5 -3c20 0 36.167 3.16699 48.5 9.5s22 15.5 29 27.5s11.833 26.5 14.5 43.5s4 36.167 4 57.5v432c0 14.667 5.16699 27 15.5 37s23.5 15 39.5 15
c14.667 0 27.5 -5.16699 38.5 -15.5s16.5 -22.5 16.5 -36.5v-432z" />
    <glyph glyph-name="K" unicode="K" horiz-adv-x="527" 
d="M212 302l-33.998 -41.001v-218c0 -14 -5.33301 -26.167 -16 -36.5s-23.667 -15.5 -39 -15.5s-28.333 5.16699 -39 15.5s-16 22.5 -16 36.5v619c0 14 5.33301 26.167 16 36.5s23.667 15.5 39 15.5s28.333 -5.16699 39 -15.5s16 -22.5 16 -36.5v-240l225 268
c5.33301 6 12.166 11.5 20.499 16.5s17.166 7.5 26.499 7.5c11.333 0 22.833 -4.66699 34.5 -14s17.5 -21.666 17.5 -36.999c0 -6 -0.833008 -11.833 -2.5 -17.5s-5.16699 -11.5 -10.5 -17.5l-207 -244l113 -156l113 -156c3.33301 -5.33301 5.5 -10 6.5 -14
s1.5 -8.33301 1.5 -13c0 -12 -4.33301 -24 -13 -36s-22 -18 -40 -18c-20 0 -35.333 7.66699 -46 23z" />
    <glyph glyph-name="L" unicode="L" horiz-adv-x="475" 
d="M463 51c0 -14.667 -5.16699 -26.833 -15.5 -36.5s-22.833 -14.5 -37.5 -14.5h-282c-16 0 -30 5.5 -42 16.5s-18 24.5 -18 40.5v605c0 14 5.33301 26.167 16 36.5s23.667 15.5 39 15.5s28.333 -5.16699 39 -15.5s16 -22.5 16 -36.5v-561h232
c14 0 26.333 -4.83301 37 -14.5s16 -21.5 16 -35.5z" />
    <glyph glyph-name="M" unicode="M" horiz-adv-x="729" 
d="M663 41c0 -13.333 -5.33398 -25.166 -16.001 -35.499s-23.334 -15.5 -38.001 -15.5c-15.333 0 -28.5 5.16699 -39.5 15.5s-16.5 22.166 -16.5 35.499v416l-138 -284c-5.33301 -10.667 -12.5 -18.5 -21.5 -23.5s-19.167 -7.5 -30.5 -7.5s-21.5 2.5 -30.5 7.5
s-16.167 12.833 -21.5 23.5l-137 284v-416c0 -13.333 -5.66699 -25.166 -17 -35.499s-24.666 -15.5 -39.999 -15.5s-28 5.16699 -38 15.5s-15 22.166 -15 35.499v619c0 15.333 5.33301 28.166 16 38.499s24.334 15.5 41.001 15.5c26 0 44.667 -10.667 56 -32l187 -386
l186 387c6 11.333 14 19.333 24 24s20.667 7 32 7c16 0 29.5 -5.16699 40.5 -15.5s16.5 -23.166 16.5 -38.499v-619z" />
    <glyph glyph-name="N" unicode="N" horiz-adv-x="620" 
d="M492 -10c-10.667 0 -21 2.66602 -31 7.99902s-17.667 12.333 -23 21l-260 469v-445c0 -14 -5.5 -26.333 -16.5 -37s-24.167 -16 -39.5 -16s-28.166 5.33301 -38.499 16s-15.5 23 -15.5 37v615c0 16 5.33301 29.333 16 40s24.667 16 42 16c11.333 0 22 -2.66699 32 -8
s17.667 -12.666 23 -21.999l31.5 -56l45.5 -82l52.5 -95l52.5 -96l45.5 -83l32.5 -57v446c0 14.667 5.5 27.167 16.5 37.5s24.167 15.5 39.5 15.5s28.166 -5.16699 38.499 -15.5s15.5 -22.833 15.5 -37.5v-615c0 -15.333 -5.5 -28.5 -16.5 -39.5s-25.167 -16.5 -42.5 -16.5z
" />
    <glyph glyph-name="O" unicode="O" horiz-adv-x="580" 
d="M290 -10c-40.667 0 -76.334 6.83301 -107.001 20.5s-56.167 32.167 -76.5 55.5s-35.666 50.833 -45.999 82.5s-15.5 65.5 -15.5 101.5v206c0 34.667 4.5 67.667 13.5 99s23.333 58.833 43 82.5s45 42.334 76 56.001s68.5 20.5 112.5 20.5s81.5 -6.83301 112.5 -20.5
s56.333 -32.334 76 -56.001s34 -51.167 43 -82.5s13.5 -64.333 13.5 -99v-206c0 -36 -5.16699 -69.833 -15.5 -101.5s-25.666 -59.167 -45.999 -82.5s-45.833 -41.833 -76.5 -55.5s-66.334 -20.5 -107.001 -20.5zM290 612c-49.333 0 -84.1689 -14.333 -104.502 -43
s-30.5 -66.334 -30.5 -113.001v-206c0 -46.667 10.833 -84.5 32.5 -113.5s55.834 -43.5 102.501 -43.5c46 0 80 14.5 102 43.5s33 66.833 33 113.5v206c0 46.667 -10.167 84.334 -30.5 113.001s-55.166 43 -104.499 43z" />
    <glyph glyph-name="P" unicode="P" horiz-adv-x="550" 
d="M178 250l0.000976562 -206.002c0 -14 -5.33301 -26.5 -16 -37.5s-23.667 -16.5 -39 -16.5c-14.667 0 -27.5 5.33301 -38.5 16s-16.5 23.334 -16.5 38.001v601c0 16 6.16699 30 18.5 42s27.166 18 44.499 18h147c44 0 81.333 -6.33301 112 -19s55.5 -29.667 74.5 -51
s32.667 -45.666 41 -72.999s12.5 -56 12.5 -86c0 -36 -5.66699 -68.167 -17 -96.5s-27.5 -52 -48.5 -71s-46.167 -33.5 -75.5 -43.5s-62.333 -15 -99 -15h-100zM178.001 351.998h100.003c86.667 0 130 41.667 130 125c0 15.333 -1.83301 30.5 -5.5 45.5
s-10.334 28.333 -20.001 40s-22.834 21.167 -39.501 28.5s-38.334 11 -65.001 11h-100v-250z" />
    <glyph glyph-name="Q" unicode="Q" horiz-adv-x="580" 
d="M398 -175c-45.333 0 -81.3301 15.333 -107.997 46s-43 71.667 -49 123c-32.667 5.33301 -61.334 15.666 -86.001 30.999s-45.167 34.166 -61.5 56.499s-28.5 48 -36.5 77s-12 59.5 -12 91.5v206c0 34.667 4.5 67.667 13.5 99s23.333 58.833 43 82.5s45 42.334 76 56.001
s68.5 20.5 112.5 20.5s81.5 -6.83301 112.5 -20.5s56.333 -32.334 76 -56.001s34 -51.167 43 -82.5s13.5 -64.333 13.5 -99v-206c0 -31.333 -3.83301 -61.166 -11.5 -89.499s-19.334 -53.666 -35.001 -75.999s-35.167 -41 -58.5 -56s-50.333 -25.5 -81 -31.5
c2.66699 -28 9.16699 -47.5 19.5 -58.5s24.5 -16.5 42.5 -16.5h29c16 0 29 -4.33301 39 -13s15 -20.667 15 -36c0 -12 -2.5 -21.167 -7.5 -27.5s-11.833 -11 -20.5 -14s-18.834 -4.83301 -30.501 -5.5s-24.167 -1 -37.5 -1zM290.003 612
c-49.333 0 -84.1689 -14.333 -104.502 -43s-30.5 -66.334 -30.5 -113.001v-206c0 -46.667 10.833 -84.5 32.5 -113.5s55.834 -43.5 102.501 -43.5c46 0 80 14.5 102 43.5s33 66.833 33 113.5v206c0 46.667 -10.167 84.334 -30.5 113.001s-55.166 43 -104.499 43z" />
    <glyph glyph-name="R" unicode="R" horiz-adv-x="595" 
d="M536 499c0 -52 -13.168 -94.001 -39.501 -126.001s-62.166 -53.667 -107.499 -65l74 -117.5l74 -117.5c2.66699 -2.66699 4.66699 -7 6 -13s2 -10.667 2 -14c0 -15.333 -6.16699 -28.166 -18.5 -38.499s-25.166 -15.5 -38.499 -15.5c-20.667 0 -36 8 -46 24l-173 282h-91
v-254c0 -14 -5.5 -26.333 -16.5 -37s-24.167 -16 -39.5 -16c-14.667 0 -27.334 5.16699 -38.001 15.5s-16 22.833 -16 37.5v601c0 16 6 30 18 42s26.333 18 43 18h174c44 0 80.833 -6 110.5 -18s53.667 -27.667 72 -47s31.333 -41.333 39 -66s11.5 -49.667 11.5 -75z
M425.999 498.999c0 12.667 -1.83398 25.167 -5.50098 37.5s-10.167 23.333 -19.5 33s-22.166 17.5 -38.499 23.5s-37.5 9 -63.5 9h-121v-203h127c39.333 0 69.333 8.5 90 25.5s31 41.833 31 74.5z" />
    <glyph glyph-name="S" unicode="S" horiz-adv-x="506" 
d="M355 197c0 26.667 -5.5 46.1631 -16.5 58.4961s-21.833 21.166 -32.5 26.499c-16.667 8 -34.834 15.167 -54.501 21.5l-59.5 20c-20 7 -39.333 15.167 -58 24.5s-35.167 21.166 -49.5 35.499s-25.833 32 -34.5 53s-13 46.5 -13 76.5c0 62.667 19.5 111.834 58.5 147.501
s91.833 53.5 158.5 53.5c13.333 0 30.5 -1 51.5 -3s41.5 -5.83301 61.5 -11.5s37.167 -13.667 51.5 -24s21.5 -23.833 21.5 -40.5c0 -13.333 -4.83301 -25 -14.5 -35s-23.167 -15 -40.5 -15c-8.66699 0 -17 1.33301 -25 4s-16.667 5.83398 -26 9.50098
s-19.833 6.83398 -31.5 9.50098s-25.834 4 -42.501 4c-14 0 -27.667 -1.5 -41 -4.5s-25.166 -8 -35.499 -15s-18.5 -16.667 -24.5 -29s-9 -27.5 -9 -45.5c0 -14 1.66699 -25.667 5 -35s7.5 -17.333 12.5 -24s10.333 -11.834 16 -15.501s11.167 -6.83398 16.5 -9.50098
c16.667 -8.66699 35 -16.167 55 -22.5s40 -13.166 60 -20.499s39.167 -15.666 57.5 -24.999s34.666 -21 48.999 -35s25.833 -31.333 34.5 -52s13 -45.667 13 -75c0 -34 -5.83301 -64.167 -17.5 -90.5s-28 -48.666 -49 -66.999s-45.833 -32.166 -74.5 -41.499
s-59.667 -14 -93 -14c-17.333 0 -37.5 1.5 -60.5 4.5s-44.667 7.83301 -65 14.5s-37.666 15.334 -51.999 26.001s-21.5 23.667 -21.5 39c0 13.333 4.83301 25.166 14.5 35.499s21.834 15.5 36.501 15.5c7.33301 0 15.5 -1.66699 24.5 -5l31 -11.5
c11.667 -4.33301 25.167 -8.16602 40.5 -11.499s33 -5 53 -5c40 0 69.833 9 89.5 27s29.5 43.667 29.5 77z" />
    <glyph glyph-name="T" unicode="T" horiz-adv-x="503" 
d="M196 602h-121c-16 0 -29.167 5.16699 -39.5 15.5s-15.5 22.166 -15.5 35.499c0 11.333 5.33301 22.833 16 34.5s23.667 17.5 39 17.5h352c14 0 26.833 -5 38.5 -15s17.5 -22.333 17.5 -37c0 -13.333 -5.5 -25.166 -16.5 -35.499s-24.167 -15.5 -39.5 -15.5h-121v-560
c0 -13.333 -5.33301 -25.333 -16 -36s-23.667 -16 -39 -16s-28.333 5.33301 -39 16s-16 22.667 -16 36v560z" />
    <glyph glyph-name="U" unicode="U" horiz-adv-x="592" 
d="M532 235c0 -35.333 -5.33301 -68 -16 -98s-26.167 -55.833 -46.5 -77.5s-45.166 -38.667 -74.499 -51s-62.333 -18.5 -99 -18.5c-38 0 -71.667 6.16699 -101 18.5s-54 29.333 -74 51s-35.167 47.5 -45.5 77.5s-15.5 62.667 -15.5 98v425
c0 15.333 5.33301 28.166 16 38.499s24 15.5 40 15.5c14.667 0 27.334 -5.16699 38.001 -15.5s16 -23.166 16 -38.499v-425c0 -42 10.167 -76.167 30.5 -102.5s52.166 -39.5 95.499 -39.5c42.667 0 74.167 13.167 94.5 39.5s30.5 60.5 30.5 102.5v425
c0 14.667 5.16699 27.334 15.5 38.001s23.166 16 38.499 16c16 0 29.5 -5.33301 40.5 -16s16.5 -23.334 16.5 -38.001v-425v0z" />
    <glyph glyph-name="V" unicode="V" horiz-adv-x="556" 
d="M122 676l82 -259.499c27.333 -85.667 51.666 -172.5 72.999 -260.5l14 59.5c4.66699 20.333 10 39.833 16 58.5l125 402c3.33301 11.333 10.5 20.5 21.5 27.5s21.5 10.5 31.5 10.5c16.667 0 30.334 -4.83301 41.001 -14.5s16 -22.167 16 -37.5c0 -2 -0.166992 -5 -0.5 -9
s-0.833008 -7 -1.5 -9l-195 -593c-6 -18 -14 -32.5 -24 -43.5s-24.667 -16.5 -44 -16.5s-33.833 5.66699 -43.5 17s-17.167 25.666 -22.5 42.999l-195 593c-1.33301 2 -2.16602 5 -2.49902 9s-0.5 7 -0.5 9c0 15.333 5.66699 27.833 17 37.5s24.666 14.5 39.999 14.5
c9.33301 0 19.333 -3.5 30 -10.5s18 -16.167 22 -27.5z" />
    <glyph glyph-name="W" unicode="W" horiz-adv-x="803" 
d="M443 299c-8 34 -15.1689 68.168 -21.502 102.501s-13.166 68.833 -20.499 103.5c-15.333 -76.667 -31.666 -152.667 -48.999 -228l-52 -228c-4 -13.333 -11 -26.333 -21 -39s-25.667 -19 -47 -19c-17.333 0 -32.166 6 -44.499 18s-20.166 25.667 -23.499 41l-76.5 306.5
l-74.5 306.5c0 15.333 6.5 27.166 19.5 35.499s26.5 12.5 40.5 12.5c11.333 0 21.833 -3.16699 31.5 -9.5s16.167 -16.166 19.5 -29.499l34 -141l34 -140c8 -32.667 15 -65.5 21 -98.5s12.667 -65.833 20 -98.5c7.33301 34 14.166 68.833 20.499 104.5
s13.833 70.834 22.5 105.501l59 244c5.33301 21.333 12.166 37.666 20.499 48.999s23.5 17 45.5 17c21.333 0 36.333 -6 45 -18s15.667 -28 21 -48l58 -244c8 -35.333 15.167 -70.5 21.5 -105.5s13.5 -70.167 21.5 -105.5c7.33301 33.333 14.166 66.333 20.499 99
s13.5 65.667 21.5 99l67 280c3.33301 12.667 9.5 22.5 18.5 29.5s19.167 10.5 30.5 10.5c14 0 28 -3.83301 42 -11.5s21 -20.167 21 -37.5v-4.5c0 -1.66699 -0.666992 -4.16699 -2 -7.5l-149 -600c-4.66699 -15.333 -12.334 -29 -23.001 -41s-25.667 -18 -45 -18
s-34.666 6.16699 -45.999 18.5s-18.666 26.166 -21.999 41.499z" />
    <glyph glyph-name="X" unicode="X" horiz-adv-x="527" 
d="M263 277l-72.499 -126l-73.5 -126c-4.66699 -7.33301 -11 -14.833 -19 -22.5s-18.667 -11.5 -32 -11.5c-14 0 -26.333 5.33301 -37 16s-16 22.667 -16 36c0 5.33301 0.833008 10.5 2.5 15.5s3.5 9.16699 5.5 12.5l89 148l89 147l-163 269
c-4.66699 9.33301 -7 18.666 -7 27.999c0 13.333 5.16699 25.166 15.5 35.499s22.5 15.5 36.5 15.5c12.667 0 23.667 -4 33 -12s17 -17.333 23 -28l126 -218l126 218c5.33301 8.66699 12.833 17.334 22.5 26.001s21.167 13.334 34.5 14.001c13.333 0 25.166 -5 35.499 -15
s15.5 -22.333 15.5 -37c0 -7.33301 -2.33301 -16.333 -7 -27l-162 -269l177 -295c2 -3.33301 3.83301 -7.5 5.5 -12.5s2.5 -10.167 2.5 -15.5c0 -13.333 -5.33301 -25.333 -16 -36s-22.667 -16 -36 -16s-24 3.5 -32 10.5s-14.667 14.833 -20 23.5l-146 252v0z" />
    <glyph glyph-name="Y" unicode="Y" horiz-adv-x="503" 
d="M251 -10c-15.333 0 -28.5 5.33301 -39.5 16s-16.5 23.334 -16.5 38.001v232l-177 361c-1.33301 3.33301 -2.5 7.16602 -3.5 11.499s-1.5 8.5 -1.5 12.5c0 14.667 5.83301 27.167 17.5 37.5s24.5 15.5 38.5 15.5c8.66699 0 17 -1.83301 25 -5.5s14.333 -9.5 19 -17.5
l138 -288l138 288c4.66699 8 11 13.833 19 17.5s16.333 5.5 25 5.5c14.667 0 27.667 -5.16699 39 -15.5s17 -22.833 17 -37.5c0 -3.33301 -0.5 -7.33301 -1.5 -12s-2.16699 -8.66699 -3.5 -12l-177 -362v-231c0 -14 -5.33301 -26.5 -16 -37.5s-24 -16.5 -40 -16.5z" />
    <glyph glyph-name="Z" unicode="Z" horiz-adv-x="504" 
d="M479 53c0 -15.333 -5.33398 -28 -16.001 -38s-23.667 -15 -39 -15h-343c-16.667 0 -30.334 5.5 -41.001 16.5s-16 24.167 -16 39.5c0 5.33301 1.33301 11.833 4 19.5s5.33398 13.834 8.00098 18.501l35.5 60l52 89l60 103.5l60 104l52 89l35.5 60.5h-251
c-15.333 0 -28.166 5 -38.499 15s-15.5 22.333 -15.5 37c0 14 5.16699 26.333 15.5 37s23.166 16 38.499 16h339c16.667 0 30.5 -5.33301 41.5 -16s16.5 -23.667 16.5 -39c0 -7.33301 -1.16699 -14 -3.5 -20s-5.16602 -11.667 -8.49902 -17l-298 -509h257
c14.667 0 27.5 -4.83301 38.5 -14.5s16.5 -21.834 16.5 -36.501z" />
    <glyph glyph-name="bracketleft" unicode="[" horiz-adv-x="314" 
d="M293 -66c0 -10 -2 -18.166 -6 -24.499s-9.16699 -11.5 -15.5 -15.5s-13.333 -6.83301 -21 -8.5s-15.5 -2.5 -23.5 -2.5h-102c-14 0 -26.333 5.16699 -37 15.5s-16 22.166 -16 35.499v813c0 18.667 6.66699 31.667 20 39s29 11 47 11h102
c12.667 0 24.5 -4.83301 35.5 -14.5s16.5 -21.167 16.5 -34.5c0 -10 -2 -18.167 -6 -24.5s-9 -11.5 -15 -15.5s-12.833 -6.83301 -20.5 -8.5s-15.5 -2.5 -23.5 -2.5h-47v-714h47c17.333 0 32.5 -3.5 45.5 -10.5s19.5 -19.833 19.5 -38.5z" />
    <glyph glyph-name="backslash" unicode="\" horiz-adv-x="320" 
d="M235 -10l-128.499 349.501l-127.5 349.5c-1.33301 2 -2.33301 4.5 -3 7.5s-1 5.83301 -1 8.5c0 14 4.83301 26.333 14.5 37s21.834 16 36.501 16c11.333 0 21.666 -2.83301 30.999 -8.5s15.666 -14.167 18.999 -25.5l11 -33l249 -677c0.666992 -2.66699 1 -6 1 -10
c0 -12.667 -5.16699 -23.834 -15.5 -33.501s-22.5 -14.5 -36.5 -14.5c-11.333 0 -21.5 3 -30.5 9s-15.5 14.333 -19.5 25z" />
    <glyph glyph-name="bracketright" unicode="]" horiz-adv-x="314" 
d="M241 -66c0 -14 -5.16797 -26.001 -15.501 -36.001s-22.833 -15 -37.5 -15h-102c-16 0 -31.167 3.66699 -45.5 11s-21.5 20.666 -21.5 39.999s6.83301 32.333 20.5 39s28.834 10 45.501 10h47v714h-47c-8 0 -15.833 0.833008 -23.5 2.5s-14.667 4.33398 -21 8.00098
s-11.5 8.83398 -15.5 15.501s-6 15 -6 25c0 18.667 7.16699 31.5 21.5 38.5s29.5 10.5 45.5 10.5h102c13.333 0 25.5 -5.16699 36.5 -15.5s16.5 -21.833 16.5 -34.5v-813v0z" />
    <glyph glyph-name="asciicircum" unicode="^" horiz-adv-x="346" 
d="M79 505c-3.33301 -5.33301 -8.50293 -9.66895 -15.5029 -13.002s-14.167 -5 -21.5 -5c-13.333 0 -24.166 3.66699 -32.499 11s-12.5 17.333 -12.5 30c1.33301 14.667 8.66602 29.334 21.999 44.001l111 130c10 13.333 24 20 42 20c16.667 0 30.667 -6.66699 42 -20
l22.5 -26l32.5 -39l32.5 -39.5c10.333 -12.333 17.833 -20.833 22.5 -25.5c6.66699 -7.33301 12 -14.666 16 -21.999s6.33301 -14.666 7 -21.999c0 -12.667 -4.16699 -22.667 -12.5 -30s-19.166 -11 -32.499 -11c-7.33301 0 -14.666 1.66699 -21.999 5
s-12.666 7.66602 -15.999 12.999l-19 23l-27 33l-27 32.5l-19 22.5z" />
    <glyph glyph-name="underscore" unicode="_" horiz-adv-x="620" 
d="M605 -127c13.333 0 25.665 -5 36.998 -15s17 -22.333 17 -37s-5.16699 -26.834 -15.5 -36.501s-23.166 -14.5 -38.499 -14.5h-590c-15.333 0 -28.166 4.83301 -38.499 14.5s-15.5 21.834 -15.5 36.501s5.5 27 16.5 37s23.5 15 37.5 15h590z" />
    <glyph glyph-name="grave" unicode="`" horiz-adv-x="217" 
d="M122 707l25.5 -24.501c9.66699 -9 19 -18.167 28 -27.5s16.667 -18.166 23 -26.499s9.5 -15.5 9.5 -21.5c0 -12.667 -4.16699 -22.834 -12.5 -30.501s-18.166 -11.5 -29.499 -11.5c-8.66699 0 -15.834 1.66699 -21.501 5s-11.5 8.33301 -17.5 15l-75 78
c-8.66699 8.66699 -13 18 -13 28c0 12 4.33301 21.833 13 29.5s17.667 11.5 27 11.5c8.66699 0 15 -1.16699 19 -3.5s8.66699 -6.16602 14 -11.499l10 -10v0z" />
    <glyph glyph-name="a" unicode="a" horiz-adv-x="502" 
d="M317 333c0 58.667 -30.666 88.0029 -91.999 88.0029c-13.333 0 -24.333 -1.33301 -33 -4s-17.334 -5.66699 -26.001 -9l-19 -8c-6.66699 -3.33301 -15.334 -5 -26.001 -5c-14.667 0 -25.167 4.66699 -31.5 14s-9.5 19.333 -9.5 30c0 13.333 4.33301 24.666 13 33.999
s20.334 17 35.001 23s31.334 10.333 50.001 13s37.667 4 57 4c68 0 116.667 -17.333 146 -52s44 -85.334 44 -152.001v-203c0 -12.667 2.33301 -20.834 7 -24.501s10.667 -6.16699 18 -7.5c20 -4 30 -16 30 -36c0 -28 -19.667 -42 -59 -42c-34.667 0 -61.334 15 -80.001 45
c-37.333 -32 -82.666 -48 -135.999 -48c-54.667 0 -95.834 14 -123.501 42s-41.5 65.333 -41.5 112v3c0 100.667 62.333 151 187 151c30.667 0 60.667 -4 90 -12v44zM230.001 219.003c-17.333 0 -31.498 -1.83301 -42.498 -5.5s-19.5 -8.66699 -25.5 -15
s-10 -13.833 -12 -22.5s-3 -17.667 -3 -27v-3c0 -20 5.5 -35.5 16.5 -46.5s30.5 -16.5 58.5 -16.5c17.333 0 33.666 2.66699 48.999 8s30.666 14.333 45.999 27v90c-14.667 3.33301 -29.667 6 -45 8s-29.333 3 -42 3z" />
    <glyph glyph-name="b" unicode="b" horiz-adv-x="510" 
d="M177 155c0 -22.667 7.99902 -40.5 23.999 -53.5s38 -19.5 66 -19.5c30.667 0 53.334 7.66699 68.001 23s22 36.666 22 63.999v186c0 22.667 -6.5 40.334 -19.5 53.001s-34.167 19 -63.5 19c-40 0 -72.333 -13 -97 -39v-233zM68.999 674
c0 13.333 4.66797 24.8301 14.001 34.4971s22.666 14.5 39.999 14.5s30.666 -4.83301 39.999 -14.5s14 -21.167 14 -34.5v-195c17.333 11.333 35.5 19.833 54.5 25.5s41.167 8.5 66.5 8.5c30 0 55.5 -4.16699 76.5 -12.5s38.333 -19.666 52 -33.999s23.5 -31.333 29.5 -51
s9 -40.834 9 -63.501v-178c0 -25.333 -4.16699 -49.166 -12.5 -71.499s-20.666 -41.666 -36.999 -57.999s-37 -29.166 -62 -38.499s-53.833 -14 -86.5 -14c-31.333 0 -59.333 4.16699 -84 12.5s-45.5 19.833 -62.5 34.5s-29.833 32 -38.5 52s-13 41.333 -13 64v519z" />
    <glyph glyph-name="c" unicode="c" horiz-adv-x="418" 
d="M45 323c0 26 3.83398 50.502 11.501 73.502s19.334 42.833 35.001 59.5s35.667 29.834 60 39.501s53.166 14.5 86.499 14.5c13.333 0 28.833 -1 46.5 -3s34.5 -5.83301 50.5 -11.5s29.667 -13.334 41 -23.001s17 -21.834 17 -36.501
c0 -10.667 -3.66699 -20.334 -11 -29.001s-19.666 -13 -36.999 -13c-8 0 -16.333 1.33301 -25 4c-11.333 5.33301 -22.333 10 -33 14s-24.334 6 -41.001 6c-34 0 -58 -8.33301 -72 -25s-21 -40 -21 -70v-143c0 -30 7 -53.5 21 -70.5s38 -25.5 72 -25.5
c16.667 0 30.334 2 41.001 6s21.667 8.66699 33 14c4 1.33301 7.66699 2.5 11 3.5s7.66602 1.5 12.999 1.5c17.333 0 29.833 -4.5 37.5 -13.5s11.5 -18.833 11.5 -29.5c0 -14.667 -5.66699 -26.834 -17 -36.501s-25 -17.167 -41 -22.5s-33 -9.16602 -51 -11.499
s-33.667 -3.5 -47 -3.5c-33.333 0 -62 4.83301 -86 14.5s-43.833 23 -59.5 40s-27.334 37 -35.001 60s-11.5 47.5 -11.5 73.5v143z" />
    <glyph glyph-name="d" unicode="d" horiz-adv-x="513" 
d="M223 509c16 0 32.167 -1.33301 48.5 -4s33.5 -7.66699 51.5 -15v184c0 13.333 4.66699 24.833 14 34.5s22.666 14.5 39.999 14.5s30.666 -4.83301 39.999 -14.5s14 -21.167 14 -34.5v-553c0 -10.667 1.66699 -19.334 5 -26.001s9 -13.667 17 -21
c7.33301 -8.66699 11 -17.667 11 -27c0 -15.333 -5.33301 -27.166 -16 -35.499s-22 -12.5 -34 -12.5s-22.667 3.16699 -32 9.5s-17.666 14.833 -24.999 25.5c-23.333 -12.667 -46.333 -22.834 -69 -30.501s-46.667 -11.5 -72 -11.5c-28 0 -52.5 4.66699 -73.5 14
s-38.833 22.5 -53.5 39.5s-25.667 37.333 -33 61s-11 49.834 -11 78.501v120c0 30 3 57.5 9 82.5s15.833 46.5 29.5 64.5s31.834 32 54.501 42s51 15 85 15zM323 401c-16 6 -32 10.333 -48 13s-29 4 -39 4c-30.667 0 -52.167 -9.16699 -64.5 -27.5
s-18.5 -46.833 -18.5 -85.5v-120c0 -66.667 27 -100 81 -100c26 0 56.333 8.33301 91 25c-1.33301 4 -2 7.66699 -2 11v10v270z" />
    <glyph glyph-name="e" unicode="e" horiz-adv-x="460" 
d="M242 197c-14 0 -28.3379 0.499023 -43.0049 1.49902s-30 2.83301 -46 5.5v-46c0 -22.667 7.66699 -40.667 23 -54s39 -20 71 -20c18.667 0 35.334 2.33301 50.001 7s30.334 10.667 47.001 18c1.33301 1.33301 3.83301 2.5 7.5 3.5s8.5 1.5 14.5 1.5
c17.333 0 29.833 -5 37.5 -15s11.5 -20 11.5 -30c0 -15.333 -6.5 -27.833 -19.5 -37.5s-28.667 -17.5 -47 -23.5s-37.666 -10.167 -57.999 -12.5s-37.833 -3.5 -52.5 -3.5c-30.667 0 -58 4.33301 -82 13s-44.167 20.667 -60.5 36s-28.833 33.5 -37.5 54.5s-13 43.5 -13 67.5
v177c0 24.667 4.33301 47.5 13 68.5s21.334 39.167 38.001 54.5s37.334 27.5 62.001 36.5s53 13.5 85 13.5c60.667 0 106 -15.167 136 -45.5s45 -70.5 45 -120.5c0 -47.333 -14.333 -84.166 -43 -110.499s-75 -39.5 -139 -39.5zM316.995 349.999
c0 26.667 -6.5 45.668 -19.5 57.001s-31.833 17 -56.5 17c-28 0 -49.667 -7 -65 -21s-23 -33 -23 -57v-59c17.333 -2 34.5 -3.5 51.5 -4.5s29.167 -1.5 36.5 -1.5c28.667 0 48.5 6.16699 59.5 18.5s16.5 29.166 16.5 50.499z" />
    <glyph glyph-name="f" unicode="f" horiz-adv-x="349" 
d="M69 532c0 32 4.99707 59.8311 14.9971 83.498s23.5 43.334 40.5 59.001s37 27.5 60 35.5s47.5 12.333 73.5 13c5.33301 0 13.833 -0.166992 25.5 -0.5s23.5 -2.33301 35.5 -6s22.667 -9.33398 32 -17.001s14 -18.5 14 -32.5c0 -15.333 -5.33301 -27.166 -16 -35.499
s-23 -12.5 -37 -12.5c-9.33301 0 -18.833 1 -28.5 3s-20.167 3 -31.5 3c-25.333 0 -44.166 -8.5 -56.499 -25.5s-18.5 -37.167 -18.5 -60.5v-55h89c14 0 26 -4.66699 36 -14s15 -21 15 -35c0 -13.333 -5 -24.666 -15 -33.999s-22 -14 -36 -14h-89v-343
c0 -13.333 -4.66699 -24.833 -14 -34.5s-22.666 -14.5 -39.999 -14.5s-30.666 4.83301 -39.999 14.5s-14 21.167 -14 34.5v488z" />
    <glyph glyph-name="g" unicode="g" horiz-adv-x="513" 
d="M236 513c24.667 0 47.8311 -2.82617 69.498 -8.49316s42.834 -14.167 63.501 -25.5c12 19.333 25.833 33.666 41.5 42.999s29.834 14 42.501 14s24.334 -4.5 35.001 -13.5s16 -20.167 16 -33.5c0 -6.66699 -1.33301 -12.334 -4 -17.001
s-5.33398 -8.33398 -8.00098 -11.001l-15 -15c-6.66699 -6.66699 -12.167 -12.5 -16.5 -17.5s-7.83301 -9.83301 -10.5 -14.5s-4.5 -9.83398 -5.5 -15.501s-1.5 -12.167 -1.5 -19.5v-59c0 -26 -4 -50 -12 -72s-20.333 -41 -37 -57s-37.334 -28.667 -62.001 -38
s-53.667 -14 -87 -14c-11.333 0 -22.833 0.666992 -34.5 2s-22.5 3.66602 -32.5 6.99902c-3.33301 -7.33301 -5.66602 -13.666 -6.99902 -18.999s-2 -10.666 -2 -15.999c0 -15.333 4.66699 -25.5 14 -30.5s18.333 -7.5 27 -7.5h42c30.667 0 59 -3 85 -9
s48.667 -15.167 68 -27.5s34.5 -27.833 45.5 -46.5s16.5 -41 16.5 -67s-5.5 -49.167 -16.5 -69.5s-26.333 -37.833 -46 -52.5s-42.834 -25.834 -69.501 -33.501s-56 -11.5 -88 -11.5c-30.667 0 -58.667 3.66699 -84 11s-47.166 17.666 -65.499 30.999
s-32.5 29.833 -42.5 49.5s-15 41.834 -15 66.501c0 22 4.66699 42.167 14 60.5s24 36.166 44 53.499c-9.33301 13.333 -15.833 27.166 -19.5 41.499s-5.5 27.166 -5.5 38.499s2.33301 23.666 7 36.999s13.334 26.666 26.001 39.999c-39.333 35.333 -59 82 -59 140
c0 26.667 4 51.334 12 74.001s20 42.334 36 59.001s35.667 29.667 59 39s50.666 14 81.999 14zM334.997 350.007l0.000976562 24.5c0 8.33301 0.333008 16.5 1 24.5c-14.667 7.33301 -28.834 13.166 -42.501 17.499s-28.167 6.5 -43.5 6.5c-32 0 -55.833 -8.33301 -71.5 -25
s-23.5 -41 -23.5 -73c0 -29.333 7.16699 -52.666 21.5 -69.999s37.833 -26 70.5 -26c30 0 52.167 7.83301 66.5 23.5s21.5 37.5 21.5 65.5v32zM232.998 -16.9932c-10.667 0 -20.833 0.333008 -30.5 1l-28.5 2c-17.333 -17.333 -26 -37.333 -26 -60
c0 -24 8.33301 -42.667 25 -56s42 -20 76 -20c32 0 58.333 6.16699 79 18.5s31 30.5 31 54.5c0 40 -35 60 -105 60h-21z" />
    <glyph glyph-name="h" unicode="h" horiz-adv-x="527" 
d="M176 43c0 -14.667 -5.00391 -26.666 -15.0039 -35.999s-22.667 -14 -38 -14s-28.166 4.66699 -38.499 14s-15.5 21.333 -15.5 36v635c0 13.333 5 25.166 15 35.499s22.667 15.5 38 15.5s28.166 -4.83301 38.499 -14.5s15.5 -21.834 15.5 -36.501v-199
c15.333 10.667 32.333 19 51 25s38.334 9 59.001 9c58.667 0 101.834 -15.833 129.501 -47.5s41.5 -72.5 41.5 -122.5v-300c0 -14.667 -5.33301 -26.667 -16 -36s-23.334 -14 -38.001 -14c-15.333 0 -28.166 4.66699 -38.499 14s-15.5 21.333 -15.5 36v304
c0 24 -6 42.5 -18 55.5s-30 19.5 -54 19.5c-17.333 0 -35.166 -3.66699 -53.499 -11s-34.166 -18.666 -47.499 -33.999v-334v0z" />
    <glyph glyph-name="i" unicode="i" horiz-adv-x="265" 
d="M195 656c-0.666992 -16.667 -6.99902 -30.667 -18.999 -42s-26.667 -17 -44 -17c-18 0 -33 5.83301 -45 17.5s-18 25.5 -18 41.5c0 16.667 6 30.667 18 42s27 17 45 17c17.333 0 32.166 -5.83301 44.499 -17.5s18.5 -25.5 18.5 -41.5zM186.001 43
c0 -14.667 -5.16699 -26.667 -15.5 -36s-23.166 -14 -38.499 -14s-28.166 4.66699 -38.499 14s-15.5 21.333 -15.5 36v417c0 13.333 5.16699 25 15.5 35s23.166 15 38.499 15s28.166 -5 38.499 -15s15.5 -21.667 15.5 -35v-417z" />
    <glyph glyph-name="j" unicode="j" horiz-adv-x="265" 
d="M186 -11c0 -28 -3.99805 -53.666 -11.998 -76.999s-19.5 -43.5 -34.5 -60.5s-33.333 -30.167 -55 -39.5s-46.167 -14 -73.5 -14c-14.667 0 -26.5 4.66699 -35.5 14s-13.5 20.666 -13.5 33.999s4.83301 23.5 14.5 30.5s19.167 11.5 28.5 13.5
c22.667 4.66699 40.5 14.167 53.5 28.5s19.5 36.833 19.5 67.5v474c0 13.333 5.16699 25 15.5 35s23.166 15 38.499 15s28.166 -5 38.499 -15s15.5 -21.667 15.5 -35v-471zM195.002 656.001c0 -16.667 -6.16699 -30.667 -18.5 -42s-27.166 -17 -44.499 -17
c-18 0 -33 5.83301 -45 17.5s-18 25.5 -18 41.5c0 16.667 6 30.667 18 42s27 17 45 17c17.333 0 32.166 -5.83301 44.499 -17.5s18.5 -25.5 18.5 -41.5z" />
    <glyph glyph-name="k" unicode="k" horiz-adv-x="463" 
d="M177 328l144.002 153.001c6.66699 7.33301 14 13.833 22 19.5s17.667 8.5 29 8.5c14.667 0 27 -4.5 37 -13.5s15 -20.167 15 -33.5s-4.66699 -24.666 -14 -33.999l-135 -140l79.5 -111l78.5 -111c3.33301 -4 5.66602 -8.83301 6.99902 -14.5s2 -10.834 2 -15.501
c-1.33301 -13.333 -6.83301 -23.833 -16.5 -31.5s-21.5 -11.5 -35.5 -11.5c-8 0 -14.5 0.666992 -19.5 2s-9.5 3.66602 -13.5 6.99902s-7.83301 7.66602 -11.5 12.999l-13.5 20l-132 190c-4 -3.33301 -7.83301 -7.16602 -11.5 -11.499s-7.5 -8.16602 -11.5 -11.499v-137
c0 -18.667 -3.83301 -35.334 -11.5 -50.001s-21.834 -22 -42.501 -22c-15.333 0 -28.166 4.66699 -38.499 14s-15.5 21.333 -15.5 36v605c0 10 0.666992 19.5 2 28.5s4 17 8 24s9.5 12.5 16.5 16.5s16.167 6 27.5 6c15.333 0 28.166 -4.83301 38.499 -14.5
s15.5 -21.5 15.5 -35.5v-345z" />
    <glyph glyph-name="l" unicode="l" horiz-adv-x="248" 
d="M148 -8c-8 0 -16.665 1.16699 -25.998 3.5s-17.833 7.33301 -25.5 15s-14.167 18.834 -19.5 33.501s-8 34 -8 58v571c0 13.333 5.16699 25 15.5 35s23.166 15 38.499 15s28.166 -4.83301 38.499 -14.5s15.5 -21.5 15.5 -35.5v-565c0 -10.667 0.666992 -18.834 2 -24.501
s5.33301 -12.167 12 -19.5c3.33301 -3.33301 6.33301 -6.83301 9 -10.5s4 -9.16699 4 -16.5c0 -14 -5 -25 -15 -33s-23.667 -12 -41 -12z" />
    <glyph glyph-name="m" unicode="m" horiz-adv-x="798" 
d="M620 337c0 22.667 -6.33496 41.832 -19.002 57.499s-31.334 23.5 -56.001 23.5c-17.333 0 -34.166 -4 -50.499 -12s-31.166 -18.667 -44.499 -32c1.33301 -5.33301 2.33301 -11 3 -17s1 -12 1 -18v-296c0 -14 -4.5 -25.833 -13.5 -35.5s-22.5 -14.5 -40.5 -14.5
s-31.5 4.83301 -40.5 14.5s-13.5 21.5 -13.5 35.5v274c0 14.667 -0.833008 28.167 -2.5 40.5s-5 23 -10 32s-11.833 16 -20.5 21s-20.334 7.5 -35.001 7.5c-17.333 0 -34.666 -3.16699 -51.999 -9.5s-33.333 -14.166 -48 -23.499
c0.666992 -3.33301 1.16699 -6.83301 1.5 -10.5s0.5 -7.16699 0.5 -10.5v-321c0 -14 -4.5 -25.833 -13.5 -35.5s-22.5 -14.5 -40.5 -14.5s-31.5 4.83301 -40.5 14.5s-13.5 21.5 -13.5 35.5v321c0 10.667 -0.333008 19.167 -1 25.5s-1.66699 11.333 -3 15
s-2.83301 6.5 -4.5 8.5s-3.16699 4.33301 -4.5 7c-4 6 -7 11 -9 15s-3 8.66699 -3 14c0 14 5 25.333 15 34s22 13 36 13c10 0 18.833 -2.5 26.5 -7.5s14.167 -11.5 19.5 -19.5c22.667 14 45.834 24.833 69.501 32.5s47.5 11.5 71.5 11.5s45.5 -4 64.5 -12
s36.167 -19.667 51.5 -35c24 15.333 47.667 27 71 35s49 12 77 12c56.667 0 100.667 -16 132 -48s47 -74 47 -126v-296c0 -14 -4.5 -25.833 -13.5 -35.5s-22.5 -14.5 -40.5 -14.5s-31.5 4.83301 -40.5 14.5s-13.5 21.5 -13.5 35.5v294z" />
    <glyph glyph-name="n" unicode="n" horiz-adv-x="529" 
d="M180 43c0 -14 -4.50391 -25.834 -13.5039 -35.501s-22.5 -14.5 -40.5 -14.5s-31.5 4.83301 -40.5 14.5s-13.5 21.5 -13.5 35.5v321c0 10.667 -0.333008 19.167 -1 25.5s-1.66699 11.333 -3 15s-2.83301 6.5 -4.5 8.5s-3.16699 4.33301 -4.5 7c-4 6 -7 11 -9 15
s-3 9 -3 15c0 13.333 4.83301 24.333 14.5 33s22.167 13 37.5 13c18.667 0 34.334 -9.66699 47.001 -29c22.667 15.333 45.834 26.5 69.501 33.5s46.5 10.5 68.5 10.5c58 0 101.5 -17.667 130.5 -53s43.5 -81.666 43.5 -138.999v-276c0 -14 -4.66699 -25.833 -14 -35.5
s-22.666 -14.5 -39.999 -14.5s-30.666 4.83301 -39.999 14.5s-14 21.5 -14 35.5v276c0 32 -6.83301 56.667 -20.5 74s-33.167 26 -58.5 26c-28.667 0 -60 -10.333 -94 -31c2 -9.33301 3 -17.333 3 -24v-321z" />
    <glyph glyph-name="o" unicode="o" horiz-adv-x="494" 
d="M247 -8c-33.333 0 -62.5 4.66699 -87.5 14s-46 22.166 -63 38.499s-29.833 35.666 -38.5 57.999s-13 46.166 -13 71.499v158c0 26 4.33301 50 13 72s21.5 41.167 38.5 57.5s38 29.166 63 38.499s54.167 14 87.5 14c32.667 0 61.667 -4.66699 87 -14
s46.5 -22.166 63.5 -38.499s29.833 -35.5 38.5 -57.5s13 -46 13 -72v-158c0 -25.333 -4.33301 -49.166 -13 -71.499s-21.5 -41.666 -38.5 -57.999s-38.167 -29.166 -63.5 -38.499s-54.333 -14 -87 -14zM247 87c31.333 0 54.833 7.66699 70.5 23s23.5 36.666 23.5 63.999v159
c0 26.667 -7.83301 47.667 -23.5 63s-39.167 23 -70.5 23s-54.833 -7.66699 -70.5 -23s-23.5 -36.333 -23.5 -63v-159c0 -27.333 7.83301 -48.666 23.5 -63.999s39.167 -23 70.5 -23z" />
    <glyph glyph-name="p" unicode="p" horiz-adv-x="503" 
d="M279 -7c-15.333 0 -31.166 1.49902 -47.499 4.49902s-33.5 8.16699 -51.5 15.5v-177c0 -14 -4.66699 -25.833 -14 -35.5s-22.666 -14.5 -39.999 -14.5s-30.666 5 -39.999 15s-14 21.667 -14 35v527c0 14 -1 25.333 -3 34s-5.66699 16.667 -11 24
c-3.33301 4 -5.83301 8 -7.5 12s-2.5 8.66699 -2.5 14c0 14.667 5.33301 26.334 16 35.001s22 13 34 13c17.333 0 32.666 -8.66699 45.999 -26c23.333 13.333 46.5 24 69.5 32s47.5 12 73.5 12c27.333 0 51.666 -4.66699 72.999 -14s39.166 -22.5 53.499 -39.5
s25.333 -37.167 33 -60.5s11.5 -49.333 11.5 -78v-123c0 -30 -3 -57.5 -9 -82.5s-16 -46.5 -30 -64.5s-32.333 -32.167 -55 -42.5s-51 -15.5 -85 -15.5zM180 100.999c15.333 -6 30.834 -10.3311 46.501 -12.998s29.167 -4 40.5 -4c30.667 0 52.167 9.16699 64.5 27.5
s18.5 47.166 18.5 86.499v123c0 66 -27 99 -81 99c-14 0 -28.833 -2.33301 -44.5 -7s-31.834 -11.334 -48.501 -20.001c1.33301 -5.33301 2.33301 -10.5 3 -15.5s1 -9.83301 1 -14.5v-262z" />
    <glyph glyph-name="q" unicode="q" horiz-adv-x="510" 
d="M333 347c0 22.667 -8.00195 40.166 -24.002 52.499s-38 18.5 -66 18.5c-31.333 0 -54.166 -8 -68.499 -24s-21.5 -38 -21.5 -66v-149c0 -30 6.33301 -53.333 19 -70s34.334 -25 65.001 -25c17.333 0 34.333 2.83301 51 8.5s31.667 14.834 45 27.501v227z
M440.998 -154.001c0 -14 -4.49805 -25.8359 -13.498 -35.5029s-22.5 -14.5 -40.5 -14.5s-31.5 4.83301 -40.5 14.5s-13.5 21.5 -13.5 35.5v179c-16.667 -10.667 -34.167 -18.667 -52.5 -24s-39.166 -8 -62.499 -8c-32.667 0 -60 4.66699 -82 14s-39.833 22.333 -53.5 39
s-23.334 36.334 -29.001 59.001s-8.5 47.334 -8.5 74.001v149c0 26 4.16699 50.333 12.5 73s20.666 42.334 36.999 59.001s36.833 29.667 61.5 39s53.667 14 87 14c31.333 0 59.166 -4.33301 83.499 -13s45 -20.5 62 -35.5s30 -32.5 39 -52.5s13.5 -41.667 13.5 -65v-501z
" />
    <glyph glyph-name="r" unicode="r" horiz-adv-x="357" 
d="M289 409l-29.5029 0.000976562c-9 0 -17.667 -0.666992 -26 -2s-17 -3.66602 -26 -6.99902s-18.833 -8 -29.5 -14c0.666992 -4.66699 1.16699 -8.83398 1.5 -12.501s0.5 -7.16699 0.5 -10.5v-320c0 -14.667 -5.16699 -26.834 -15.5 -36.501s-23.166 -14.5 -38.499 -14.5
s-28.166 4.83301 -38.499 14.5s-15.5 21.834 -15.5 36.501v320c0 14 -1 25.333 -3 34s-5.66699 16.667 -11 24c-3.33301 4 -5.83301 8 -7.5 12s-2.5 9 -2.5 15c0 14 5.16699 25.333 15.5 34s22.5 13 36.5 13c9.33301 0 17.833 -2.66699 25.5 -8s14.5 -12.333 20.5 -21
c22.667 13.333 45.834 23.833 69.501 31.5s44.167 11.5 61.5 11.5c25.333 0 42.833 -4.66699 52.5 -14s14.5 -21 14.5 -35c0 -16 -5.33301 -28.833 -16 -38.5s-23.667 -13.834 -39 -12.501z" />
    <glyph glyph-name="s" unicode="s" horiz-adv-x="426" 
d="M48 363c0 45.333 14.833 81.6641 44.5 108.997s73.834 41 132.501 41c14.667 0 30.5 -1.16699 47.5 -3.5s32.667 -6.16602 47 -11.499s26.166 -12.666 35.499 -21.999s14 -21.333 14 -36c0 -13.333 -4 -23.5 -12 -30.5s-18.667 -10.5 -32 -10.5
c-8 0 -15.167 1.16699 -21.5 3.5l-20.5 7.5c-7.33301 2.66699 -15.5 5.16699 -24.5 7.5s-20.167 3.5 -33.5 3.5c-6 0 -13.167 -0.5 -21.5 -1.5s-16.166 -3.16699 -23.499 -6.5s-13.5 -8.16602 -18.5 -14.499s-7.5 -14.833 -7.5 -25.5c0 -16.667 5.83301 -29.667 17.5 -39
s26 -17.5 43 -24.5s35.667 -14 56 -21s39 -16.167 56 -27.5s31.333 -26.166 43 -44.499s17.5 -42.5 17.5 -72.5c0 -46.667 -15.333 -83.5 -46 -110.5s-76 -40.5 -136 -40.5c-14 0 -30.5 1 -49.5 3s-36.833 5.5 -53.5 10.5s-30.834 11.667 -42.501 20
s-17.5 19.166 -17.5 32.499c0 4.66699 0.833008 10.334 2.5 17.001s4.66699 12.667 9 18s10 9.5 17 12.5s16.167 3.16699 27.5 0.5c9.33301 -2 23.5 -6.33301 42.5 -13s39.167 -10 60.5 -10c22.667 0 41.667 5.16699 57 15.5s23 24.5 23 42.5
c0 15.333 -5.83301 27.5 -17.5 36.5s-26 16.833 -43 23.5s-35.667 13.167 -56 19.5s-39 15.166 -56 26.499s-31.333 26 -43 44s-17.5 41.667 -17.5 71z" />
    <glyph glyph-name="t" unicode="t" horiz-adv-x="341" 
d="M69 608c0 14 4.66992 25.8301 14.0029 35.4971s22.666 14.5 39.999 14.5s30.666 -5 39.999 -15s14 -21.667 14 -35v-124h89c14 0 26 -4.66699 36 -14s15 -21 15 -35c0 -13.333 -5 -24.666 -15 -33.999s-22 -14 -36 -14h-89v-175c0 -22 0.666992 -40.667 2 -56
s4.5 -27.666 9.5 -36.999s11.833 -16.166 20.5 -20.499s20.667 -6.5 36 -6.5c3.33301 0 6.66602 0.166992 9.99902 0.5s6 0.5 8 0.5c21.333 0 37.833 -3.16699 49.5 -9.5s17.5 -18.166 17.5 -35.499c0 -11.333 -2.16699 -20.5 -6.5 -27.5s-10.166 -12.333 -17.499 -16
s-15.5 -6 -24.5 -7s-18.5 -1.5 -28.5 -1.5c-36.667 0 -66.834 4.5 -90.501 13.5s-42.5 22.167 -56.5 39.5s-23.667 39.166 -29 65.499s-8 56.5 -8 90.5v403z" />
    <glyph glyph-name="u" unicode="u" horiz-adv-x="529" 
d="M381 32c-22.667 -14.667 -45.833 -25.001 -69.5 -31.001s-47.167 -9 -70.5 -9c-28 0 -52.833 4.66699 -74.5 14s-39.667 22.5 -54 39.5s-25.166 37.333 -32.499 61s-11 49.834 -11 78.501v276c0 14 4.66699 25.667 14 35s22.666 14 39.999 14s30.666 -4.66699 39.999 -14
s14 -21 14 -35v-276c0 -32 6.5 -56.667 19.5 -74s32.5 -26 58.5 -26c15.333 0 30.833 2.33301 46.5 7s31.5 11.334 47.5 20.001c-0.666992 4.66699 -1.16699 9 -1.5 13s-0.5 7.66699 -0.5 11v325c0 14 4.5 25.667 13.5 35s22.5 14 40.5 14s31.5 -4.66699 40.5 -14
s13.5 -21 13.5 -35v-335c0 -17.333 1.66699 -28.833 5 -34.5s7.66602 -11.834 12.999 -18.501c3.33301 -3.33301 6 -7.16602 8 -11.499s3 -9.5 3 -15.5c0 -14.667 -5.16699 -26.334 -15.5 -35.001s-22.166 -13 -35.499 -13c-11.333 0 -21.166 3.16699 -29.499 9.5
s-15.833 14.5 -22.5 24.5z" />
    <glyph glyph-name="v" unicode="v" horiz-adv-x="450" 
d="M419 417l-63.999 -185l-63 -186c-6.66699 -19.333 -15 -33 -25 -41s-23.333 -12 -40 -12c-18 0 -31.833 4 -41.5 12s-17.834 21.333 -24.501 40l-64.5 187l-64.5 187l-11 39c0 1.33301 -0.166992 2.33301 -0.5 3s-0.5 1.66699 -0.5 3c0 13.333 5.66699 24.5 17 33.5
s23.666 13.5 36.999 13.5c10 0 20 -3 30 -9s16.667 -14.667 20 -26l28 -89l28 -89c9.33301 -30 17.5 -59.5 24.5 -88.5s14.5 -58.5 22.5 -88.5l21 88.5c6.66699 29 14.667 58.5 24 88.5l27.5 89l27.5 89c3.33301 10 9.83301 18.167 19.5 24.5s19.834 9.5 30.501 9.5
c14 0 26.167 -4.5 36.5 -13.5s15.5 -20.5 15.5 -34.5v-6z" />
    <glyph glyph-name="w" unicode="w" horiz-adv-x="675" 
d="M538 44c-5.33301 -17.333 -12.4932 -30.168 -21.4932 -38.501s-23.167 -12.5 -42.5 -12.5c-13.333 0 -26 3.5 -38 10.5s-19.667 17.167 -23 30.5l-75 317l-36 -159.5c-12 -52.333 -25 -104.833 -39 -157.5c-4 -15.333 -11 -26 -21 -32s-23.333 -9 -40 -9
c-18 0 -32.167 4.5 -42.5 13.5s-17.833 21.833 -22.5 38.5l-116 407c-0.666992 2.66699 -1 6 -1 10c0 12.667 5.16699 23.834 15.5 33.501s23.166 14.5 38.499 14.5c11.333 0 21.666 -3.16699 30.999 -9.5s15.666 -15.166 18.999 -26.499l49 -188
c6.66699 -25.333 12 -51 16 -77s8.66699 -52 14 -78c6.66699 30 12.667 59.833 18 89.5s11.666 59.5 18.999 89.5l39 157c3.33301 12.667 10.166 23 20.499 31s23.5 12 39.5 12c15.333 0 27.833 -4 37.5 -12s16.167 -18.333 19.5 -31l39 -157
c7.33301 -30 13.666 -59.833 18.999 -89.5s11.666 -59.5 18.999 -89.5c5.33301 26 10 52 14 78s9.33301 51.667 16 77l48 188c2.66699 10 9 18.5 19 25.5s20.667 10.5 32 10.5c14 0 26.333 -4.66699 37 -14s16 -21.333 16 -36c0 -0.666992 -0.166992 -1.83398 -0.5 -3.50098
s-0.5 -3.16699 -0.5 -4.5z" />
    <glyph glyph-name="x" unicode="x" horiz-adv-x="451" 
d="M423 68c5.33301 -7.33301 8.00098 -15.332 8.00098 -23.999c0 -14 -5 -26.167 -15 -36.5s-23.333 -15.5 -40 -15.5c-12.667 0 -22.5 2.5 -29.5 7.5s-14.167 13.167 -21.5 24.5l-100 147l-106 -154c-12 -16.667 -26.667 -25 -44 -25c-15.333 0 -28.333 4.66699 -39 14
s-16 21.666 -16 36.999c0 8.66699 2.33301 16.334 7 23.001l135 190l-125 179c-6 9.33301 -9 17.333 -9 24c0 13.333 5.16699 25.166 15.5 35.499s23.166 15.5 38.499 15.5s27 -4.16699 35 -12.5s15 -16.833 21 -25.5l89 -129l92 137c6 9.33301 12.667 16.666 20 21.999
s17.333 8 30 8s24.667 -4.66699 36 -14s17 -20.666 17 -33.999c0 -4 -0.5 -8.33301 -1.5 -13s-3.16699 -9 -6.5 -13l-125 -179z" />
    <glyph glyph-name="y" unicode="y" horiz-adv-x="443" 
d="M304 69c-12.667 -39.333 -25.1631 -75.667 -37.4961 -109s-26.833 -62 -43.5 -86s-36.834 -42.833 -60.501 -56.5s-53.167 -20.5 -88.5 -20.5c-16 0 -29.167 4.66699 -39.5 14s-15.5 21 -15.5 35c0 12 4.5 22.833 13.5 32.5s21.5 15.167 37.5 16.5
c26.667 0 47.5 9.5 62.5 28.5s29.5 49.5 43.5 91.5l-157 428c-1.33301 3.33301 -2.16602 6.83301 -2.49902 10.5s-0.5 6.83398 -0.5 9.50098c0 13.333 5.16699 24.5 15.5 33.5s23.166 13.5 38.499 13.5c10 0 19.667 -2.83301 29 -8.5s16 -14.167 20 -25.5l9 -27l51 -151
l50 -153l46 166.5c15.333 54.333 31.666 109.166 48.999 164.499c3.33301 11.333 10.166 19.833 20.499 25.5s20.5 8.5 30.5 8.5c13.333 0 25.666 -4.5 36.999 -13.5s17 -21.167 17 -36.5c0 -5.33301 -1 -10.333 -3 -15z" />
    <glyph glyph-name="z" unicode="z" horiz-adv-x="409" 
d="M394 454c0 -5.33301 -0.833008 -11.1689 -2.5 -17.502s-4.5 -12.166 -8.5 -17.499l-232 -324h193c15.333 0 27.833 -4.66699 37.5 -14s14.5 -20.666 14.5 -33.999s-4.83301 -24.5 -14.5 -33.5s-22.167 -13.5 -37.5 -13.5h-277c-14.667 0 -27.5 5 -38.5 15
s-16.5 22.667 -16.5 38c0 5.33301 0.666992 10.5 2 15.5s4 10.167 8 15.5l232 326h-181c-14 0 -26 4.5 -36 13.5s-15 20.167 -15 33.5c0 14 5 25.5 15 34.5s22 13.5 36 13.5h265c15.333 0 28.5 -4.5 39.5 -13.5s16.5 -21.5 16.5 -37.5z" />
    <glyph glyph-name="braceleft" unicode="{" horiz-adv-x="427" 
d="M75 193c-12 0.666992 -23.1689 4.16406 -33.502 10.4971s-15.5 19.166 -15.5 38.499s5.33301 32 16 38s21.667 9.33301 33 10c19.333 1.33301 34.333 6.83301 45 16.5s17 28.834 19 57.501l2 37c0.666992 12 1.33398 24.833 2.00098 38.5s1.5 28.834 2.5 45.501
s2.5 36.667 4.5 60c2.66699 41.333 19.834 73.5 51.501 96.5s72.167 34.5 121.5 34.5c8.66699 0 17.334 -0.5 26.001 -1.5s16.5 -3.5 23.5 -7.5s12.667 -9.66699 17 -17s6.5 -17.333 6.5 -30c0 -12 -2 -21 -6 -27s-9 -10.333 -15 -13s-12.333 -3.83398 -19 -3.50098
s-13 0.833008 -19 1.5c-4 0.666992 -8.5 1.16699 -13.5 1.5s-9.16699 0.5 -12.5 0.5c-13.333 0 -25.666 -4.16699 -36.999 -12.5s-17.333 -20.166 -18 -35.499c0 -2 -0.5 -10.667 -1.5 -26s-2 -32.5 -3 -51.5s-1.83301 -37 -2.5 -54s-1.33398 -27.833 -2.00098 -32.5
c-2 -28 -9.5 -52.667 -22.5 -74s-33.5 -38.666 -61.5 -51.999c52.667 -26.667 80.667 -69 84 -127l9 -164c0.666992 -15.333 6.66699 -27.166 18 -35.499s23.333 -12.5 36 -12.5c2.66699 0 7.16699 0.333008 13.5 1s10.833 1 13.5 1c5.33301 0.666992 11.5 1 18.5 1
s13.5 -1.16699 19.5 -3.5s11 -6.5 15 -12.5s6 -15 6 -27s-2.16699 -21.667 -6.5 -29s-10 -13 -17 -17s-14.833 -6.66699 -23.5 -8s-17.334 -2 -26.001 -2c-24 0 -46.333 3 -67 9s-38.667 14.833 -54 26.5s-27.5 25.5 -36.5 41.5s-14.167 34 -15.5 54l-11 182
c-2 29.333 -9 48.833 -21 58.5s-26.333 14.5 -43 14.5z" />
    <glyph glyph-name="bar" unicode="|" horiz-adv-x="247" 
d="M72 708c0 13.333 4.83301 24.833 14.5 34.5s21.834 14.5 36.501 14.5c14 0 26 -4.83301 36 -14.5s15 -21.167 15 -34.5v-890c0 -13.333 -5 -24.833 -15 -34.5s-22 -14.5 -36 -14.5c-14.667 0 -26.834 4.83301 -36.501 14.5s-14.5 21.167 -14.5 34.5v890z" />
    <glyph glyph-name="braceright" unicode="}" horiz-adv-x="427" 
d="M354 193c-18.667 -0.666992 -33.5 -6.00293 -44.5 -16.0029s-17.5 -29 -19.5 -57l-11 -182c-1.33301 -20 -6.5 -38 -15.5 -54s-21.167 -29.667 -36.5 -41s-33.333 -20.166 -54 -26.499s-43 -9.5 -67 -9.5c-8.66699 0 -17.334 0.666992 -26.001 2s-16.5 4 -23.5 8
s-12.667 9.66699 -17 17s-6.5 17.333 -6.5 30c0 10.667 1.66699 19 5 25s7.83301 10.333 13.5 13s12 4 19 4h21.5c2 -0.666992 5.83301 -1.16699 11.5 -1.5s10.5 -0.5 14.5 -0.5c15.333 0 28.166 4.33301 38.499 13s15.833 20 16.5 34l9 164c3.33301 58.667 31 101 83 127
c-26 12.667 -46 29.834 -60 51.501s-21.667 46.5 -23 74.5c-1.33301 16.667 -2.5 34.334 -3.5 53.001s-1.83301 36 -2.5 52s-1.33398 29.5 -2.00098 40.5s-1 17.167 -1 18.5c-1.33301 15.333 -7.5 27.166 -18.5 35.499s-23.167 12.5 -36.5 12.5
c-3.33301 0 -7.5 -0.166992 -12.5 -0.5s-9.5 -0.833008 -13.5 -1.5c-6 -0.666992 -12.333 -1.16699 -19 -1.5s-13 0.833984 -19 3.50098s-11 7 -15 13s-6 15 -6 27c0 12.667 2.16699 22.667 6.5 30s10 13 17 17s14.833 6.5 23.5 7.5s17.334 1.5 26.001 1.5
c49.333 0 89.833 -11.5 121.5 -34.5s48.834 -55.167 51.501 -96.5c2 -26.667 3.5 -49.167 4.5 -67.5s1.83301 -34.166 2.5 -47.499s1.33398 -25 2.00098 -35l2 -31c2 -28.667 8.33301 -47.834 19 -57.501s25.667 -15.167 45 -16.5c11.333 -0.666992 22.333 -4 33 -10
s16 -18.667 16 -38c0 -20 -5.33301 -33 -16 -39s-21.667 -9.33301 -33 -10z" />
    <glyph glyph-name="asciitilde" unicode="~" horiz-adv-x="475" 
d="M414 348c0 -11.333 -3.33496 -21.835 -10.002 -31.502s-15 -18 -25 -25s-21.167 -12.667 -33.5 -17s-24.166 -6.5 -35.499 -6.5c-14 0 -26.833 2 -38.5 6s-22.5 8.66699 -32.5 14s-19.5 10.166 -28.5 14.499s-17.833 7.16602 -26.5 8.49902
c-10 0.666992 -18.167 -0.833008 -24.5 -4.5s-12 -8 -17 -13s-10.167 -9.66699 -15.5 -14s-12.333 -6.5 -21 -6.5c-10.667 0 -20.5 3.66699 -29.5 11s-14.167 17.333 -15.5 30c0 12.667 2.83301 24.334 8.5 35.001s13.167 19.834 22.5 27.501s20.166 13.667 32.499 18
s25.166 6.5 38.499 6.5c14.667 0 27.834 -2.16699 39.501 -6.5s22.334 -9.16602 32.001 -14.499s19 -10.166 28 -14.499s18.167 -6.83301 27.5 -7.5c10 0 18 2 24 6s11.5 8.33301 16.5 13s10 9 15 13s11.833 6.33301 20.5 7c12.667 0 23.834 -4.66699 33.501 -14
s14.5 -21 14.5 -35z" />
    <glyph glyph-name="exclamdown" unicode="&#xa1;" horiz-adv-x="247" 
d="M78 284c0 12 4.16797 22.333 12.501 31s19.166 13 32.499 13c11.333 0 21.5 -4.33301 30.5 -13s13.833 -19 14.5 -31l10 -447c0 -13.333 -5.33301 -25.333 -16 -36s-23.667 -16 -39 -16s-28.333 5.33301 -39 16s-16 22.667 -16 36zM193.001 442
c0 -17.333 -6.66699 -32.5 -20 -45.5s-29.333 -19.5 -48 -19.5c-19.333 0 -35.666 6.5 -48.999 19.5s-20 28.167 -20 45.5c0 18 6.66699 33.667 20 47s29.666 20 48.999 20c18.667 0 34.667 -6.66699 48 -20s20 -29 20 -47z" />
    <glyph glyph-name="cent" unicode="&#xa2;" horiz-adv-x="471" 
d="M230 23c-30 2 -55.832 8.16309 -77.499 18.4961s-39.5 23.833 -53.5 40.5s-24.333 35.834 -31 57.501s-10 45.167 -10 70.5v93c0 24.667 3.33301 47.834 10 69.501s17 40.834 31 57.501s31.833 30.167 53.5 40.5s47.5 16.5 77.5 18.5v44c0 7.33301 2.5 13.5 7.5 18.5
s11.167 7.5 18.5 7.5s13.5 -2.5 18.5 -7.5s7.5 -11.167 7.5 -18.5v-44c13.333 -1.33301 27 -3.66602 41 -6.99902s26.667 -8 38 -14s20.666 -13.5 27.999 -22.5s11 -19.833 11 -32.5c0 -10 -4 -19 -12 -27s-19.667 -12 -35 -12c-7.33301 0 -15.333 1.33301 -24 4l-10 5
c-6 2.66699 -11.833 5 -17.5 7s-12.167 3.66699 -19.5 5v-279c13.333 2 25.333 6.33301 36 13s22 10 34 10c16 0 28 -4.33301 36 -13s12 -17.667 12 -27c0 -13.333 -3.66699 -24.5 -11 -33.5s-16.833 -16.333 -28.5 -22s-24.5 -10.167 -38.5 -13.5s-27.333 -5.33301 -40 -6
v-52c0 -7.33301 -2.5 -13.5 -7.5 -18.5s-11.167 -7.5 -18.5 -7.5s-13.5 2.5 -18.5 7.5s-7.5 11.167 -7.5 18.5v51zM166.001 209.996c0 -25.333 5 -45.999 15 -61.999s26.333 -26.333 49 -31v278c-22.667 -4.66699 -39 -14.834 -49 -30.501s-15 -36.167 -15 -61.5v-93z" />
    <glyph glyph-name="yen" unicode="&#xa5;" horiz-adv-x="508" 
d="M152 369l-62.5049 126.504l-62.5 127.5c-4 7.33301 -6.66699 14.333 -8 21l-3 12c0 15.333 5.16699 28.666 15.5 39.999s23.5 17 39.5 17c14.667 0 25.334 -3.33301 32.001 -10s13.334 -15.667 20.001 -27l131 -273l130 273c6 10 13 18.667 21 26s18.333 11 31 11
c15.333 0 28.333 -5.33301 39 -16s16 -22.667 16 -36c0 -4.66699 -0.666992 -10.334 -2 -17.001l-134 -275h62c10 0 19 -3.5 27 -10.5s12 -15.833 12 -26.5s-3.66699 -19.5 -11 -26.5s-16.666 -10.5 -27.999 -10.5h-98l-9 -20v-36h107c10 0 19 -3.5 27 -10.5
s12 -15.833 12 -26.5s-3.66699 -19.5 -11 -26.5s-16.666 -10.5 -27.999 -10.5h-107v-121c0 -8 -2.83301 -15 -8.5 -21s-12.834 -9.66699 -21.501 -11c-1.33301 -6 -4.33301 -11.167 -9 -15.5s-10.667 -6.5 -18 -6.5s-13.5 2.16699 -18.5 6.5s-8.16699 9.5 -9.5 15.5
c-8 1.33301 -14.5 5.16602 -19.5 11.499s-7.5 13.166 -7.5 20.499v121h-109c-11.333 0 -20.666 3.5 -27.999 10.5s-11 15.833 -11 26.5s4 19.5 12 26.5s17 10.5 27 10.5h109v37l-10 19h-99c-11.333 0 -20.666 3.5 -27.999 10.5s-11 15.833 -11 26.5s4 19.5 12 26.5
s17 10.5 27 10.5h63z" />
    <glyph glyph-name="dieresis" unicode="&#xa8;" horiz-adv-x="423" 
d="M362 634c0 -15.333 -5.5 -28.502 -16.5 -39.502s-24.167 -16.5 -39.5 -16.5s-28.666 5.5 -39.999 16.5s-17 24.167 -17 39.5c0 14.667 5.66699 27.334 17 38.001s24.666 16 39.999 16s28.5 -5.16699 39.5 -15.5s16.5 -23.166 16.5 -38.499zM188 633.998
c0 -15.333 -5.5 -28.502 -16.5 -39.502s-24.5 -16.5 -40.5 -16.5c-15.333 0 -28.333 5.5 -39 16.5s-16 24.167 -16 39.5c0 14.667 5.33301 27.334 16 38.001s23.667 16 39 16c16 0 29.5 -5.16699 40.5 -15.5s16.5 -23.166 16.5 -38.499z" />
    <glyph glyph-name="copyright" unicode="&#xa9;" horiz-adv-x="740" 
d="M676 313c0 -47.333 -6.66699 -90.666 -20 -129.999s-33 -73.333 -59 -102s-58 -50.834 -96 -66.501s-81.667 -23.5 -131 -23.5s-93 7.83301 -131 23.5s-70 37.834 -96 66.501s-45.667 62.667 -59 102s-20 82.666 -20 129.999s6.66699 90.666 20 129.999s33 73.333 59 102
s58 50.834 96 66.501s81.667 23.5 131 23.5s93 -7.83301 131 -23.5s70 -37.834 96 -66.501s45.667 -62.667 59 -102s20 -82.666 20 -129.999zM616 313c0 38.667 -5.33301 74 -16 106s-26.5 59.5 -47.5 82.5s-46.667 41 -77 54s-65.5 19.5 -105.5 19.5
s-75.167 -6.5 -105.5 -19.5s-56 -31 -77 -54s-36.833 -50.5 -47.5 -82.5s-16 -67.333 -16 -106s5.33301 -74 16 -106s26.5 -59.5 47.5 -82.5s46.667 -41 77 -54s65.5 -19.5 105.5 -19.5s75.167 6.5 105.5 19.5s56 31 77 54s36.833 50.5 47.5 82.5s16 67.333 16 106zM231 344
c0 20.667 2.83301 39.833 8.5 57.5s14.5 33.167 26.5 46.5s27.333 23.833 46 31.5s41 11.5 67 11.5c10 0 21.667 -0.833008 35 -2.5s26 -4.5 38 -8.5s22.167 -9.5 30.5 -16.5s12.5 -15.833 12.5 -26.5c0 -8.66699 -3 -16.167 -9 -22.5s-13.667 -9.5 -23 -9.5
c-2 0 -4 0.166992 -6 0.5s-4.33301 0.833008 -7 1.5c-9.33301 5.33301 -18.833 9.83301 -28.5 13.5s-21.5 5.5 -35.5 5.5c-28 0 -48 -7.16699 -60 -21.5s-18 -34.5 -18 -60.5v-61c0 -26.667 6 -47 18 -61s32 -21 60 -21c14 0 25.833 1.83301 35.5 5.5
s19.167 7.83398 28.5 12.501c4.66699 2 9 3 13 3c9.33301 0 17 -3.33301 23 -10s9 -14.334 9 -23.001c0 -10 -4.16699 -18.5 -12.5 -25.5s-18.5 -12.5 -30.5 -16.5s-24.667 -6.83301 -38 -8.5s-25 -2.5 -35 -2.5c-26 0 -48.333 3.83301 -67 11.5s-34 18 -46 31
s-20.833 28.5 -26.5 46.5s-8.5 37.333 -8.5 58v61z" />
    <glyph glyph-name="guillemotleft" unicode="&#xab;" horiz-adv-x="431" 
d="M272 50c3.33301 -5.33301 5 -10.999 5 -16.999c0 -11.333 -3.66699 -21 -11 -29s-17 -12 -29 -12c-9.33301 0 -16.5 2.16699 -21.5 6.5s-10.5 11.166 -16.5 20.499l-158 237l152 229c5.33301 8 10.5 14.333 15.5 19s12.167 7 21.5 7s18 -3.5 26 -10.5
s12 -15.833 12 -26.5c0 -3.33301 -0.333008 -6.5 -1 -9.5s-2 -6.16699 -4 -9.5l-131 -197zM385 114.001c3.33301 -5.33301 5 -11.667 5 -19c0 -10.667 -4 -19.5 -12 -26.5s-16.667 -10.5 -26 -10.5s-16.5 2.33301 -21.5 7s-10.167 11 -15.5 19l-114 172l114 172
c5.33301 8 10.5 14.333 15.5 19s12.167 7 21.5 7s18 -3.5 26 -10.5s12 -15.833 12 -26.5c0 -3.33301 -0.333008 -6.5 -1 -9.5s-2 -6.16699 -4 -9.5l-93 -142z" />
    <glyph glyph-name="registered" unicode="&#xae;" horiz-adv-x="700" 
d="M636 423c0 -42.667 -6.16699 -81.834 -18.5 -117.501s-30.5 -66.5 -54.5 -92.5s-53.833 -46.167 -89.5 -60.5s-76.834 -21.5 -123.501 -21.5s-87.834 7.16699 -123.501 21.5s-65.5 34.5 -89.5 60.5s-42.167 56.833 -54.5 92.5s-18.5 74.834 -18.5 117.501
c0 44 6.16699 84.5 18.5 121.5s30.5 68.833 54.5 95.5s53.833 47.5 89.5 62.5s76.834 22.5 123.501 22.5s87.834 -7.5 123.501 -22.5s65.5 -35.833 89.5 -62.5s42.167 -58.5 54.5 -95.5s18.5 -77.5 18.5 -121.5zM576 423c0 35.333 -4.83301 67.833 -14.5 97.5
s-24 55.167 -43 76.5s-42.667 38 -71 50s-60.833 18 -97.5 18s-69.167 -6 -97.5 -18s-52 -28.667 -71 -50s-33.333 -46.833 -43 -76.5s-14.5 -62.167 -14.5 -97.5c0 -34 4.83301 -65.167 14.5 -93.5s24 -52.833 43 -73.5s42.667 -36.667 71 -48s60.833 -17 97.5 -17
s69.167 5.66699 97.5 17s52 27.333 71 48s33.333 45.167 43 73.5s14.5 59.5 14.5 93.5zM466 486c0 -21.333 -4.66895 -39.165 -14.002 -53.498s-22.333 -25.166 -39 -32.499l62 -94c0 -1.33301 0.666992 -3.33301 2 -6s2 -5.33398 2 -8.00098c0 -6 -3 -11 -9 -15
s-13 -6 -21 -6c-16 0 -28 4 -36 12l-69 106h-32v-88c0 -8 -3.66699 -15 -11 -21s-15.666 -9 -24.999 -9c-8.66699 0 -16.5 2.66699 -23.5 8s-10.5 12.666 -10.5 21.999v245c0 9.33301 3.83301 18.166 11.5 26.499s16.5 12.5 26.5 12.5h72
c20.667 0 38.334 -2.83301 53.001 -8.5s26.5 -13.167 35.5 -22.5s15.5 -20 19.5 -32s6 -24 6 -36zM395.998 486.001c0 8 -2.5 15.833 -7.5 23.5s-16.167 11.5 -33.5 11.5h-43v-69h46c25.333 0 38 11.333 38 34z" />
    <glyph glyph-name="macron" unicode="&#xaf;" horiz-adv-x="423" 
d="M387 633c0 -12 -4.5 -22.167 -13.5 -30.5s-19.833 -12.5 -32.5 -12.5h-259c-13.333 0 -24.5 4.16699 -33.5 12.5s-13.5 18.5 -13.5 30.5s4.5 22.333 13.5 31s20.167 13 33.5 13h259c12.667 0 23.5 -4.33301 32.5 -13s13.5 -19 13.5 -31z" />
    <glyph glyph-name="degree" unicode="&#xb0;" horiz-adv-x="392" 
d="M196 436c-22.667 0 -42.832 3.66699 -60.499 11s-32.5 17.333 -44.5 30s-21 27.5 -27 44.5s-9 35.167 -9 54.5s3 37.5 9 54.5s15 31.833 27 44.5s26.667 22.667 44 30s37.666 11 60.999 11c22.667 0 42.834 -3.66699 60.501 -11s32.5 -17.333 44.5 -30s21 -27.5 27 -44.5
s9 -35.167 9 -54.5s-3 -37.5 -9 -54.5s-15 -31.833 -27 -44.5s-26.833 -22.667 -44.5 -30s-37.834 -11 -60.501 -11zM196.002 502c46 0 68.999 25.333 68.999 76c0 22.667 -5.66699 40.334 -17 53.001s-28.666 19 -51.999 19c-24 0 -41.667 -6.33301 -53 -19
s-17 -30.334 -17 -53.001c0 -50.667 23.333 -76 70 -76z" />
    <glyph glyph-name="plusminus" unicode="&#xb1;" horiz-adv-x="520" 
d="M206 337l-124.001 0.00292969c-17.333 0 -33.333 3.83301 -48 11.5s-22 21.167 -22 40.5c0 17.333 7.5 30.166 22.5 38.499s30.833 12.5 47.5 12.5h124v132c0 8 0.833008 16.167 2.5 24.5s4.5 15.666 8.5 21.999s9.5 11.666 16.5 15.999s15.833 6.5 26.5 6.5
c19.333 0 33.166 -7.16699 41.499 -21.5s12.5 -30.166 12.5 -47.499v-132h124c6.66699 0 14.167 -1.16699 22.5 -3.5s16 -5.83301 23 -10.5s12.833 -10 17.5 -16s7 -13 7 -21c0 -19.333 -7.33301 -32.833 -22 -40.5s-30.667 -11.5 -48 -11.5h-124v-132
c0 -19.333 -4.16699 -35.5 -12.5 -48.5s-22.166 -19.5 -41.499 -19.5c-15.333 0 -28.166 5.16699 -38.499 15.5s-15.5 22.166 -15.5 35.499v149zM453.999 102.003c13.333 0 25.665 -4.83301 36.998 -14.5s17 -21.834 17 -36.501s-5.16699 -26.834 -15.5 -36.501
s-23.166 -14.5 -38.499 -14.5h-388c-15.333 0 -28.166 4.83301 -38.499 14.5s-15.5 21.834 -15.5 36.501s5.5 26.834 16.5 36.501s23.5 14.5 37.5 14.5h388z" />
    <glyph glyph-name="twosuperior" unicode="&#xb2;" 
d="M239 417c0 -7.33301 -2.66504 -13.334 -7.99805 -18.001s-11.666 -7 -18.999 -7h-164c-8.66699 0 -15.5 2.5 -20.5 7.5s-7.5 11.5 -7.5 19.5c0 3.33301 0.166992 6.83301 0.5 10.5s1.16602 7.16699 2.49902 10.5c9.33301 21.333 21.666 40.333 36.999 57
s31.666 33 48.999 49l25 22.5c8.66699 7.66699 16.667 15.667 24 24s13.333 17.333 18 27s7 19.834 7 30.501c0 15.333 -4.66699 28.333 -14 39s-22.666 16 -39.999 16s-32.333 -3 -45 -9c-6 -2.66699 -11.5 -5.66699 -16.5 -9s-10.5 -5 -16.5 -5
c-6.66699 0 -12.667 2.33301 -18 7s-8 10.667 -8 18c0 8 3.66699 14.833 11 20.5s16.333 10.5 27 14.5s22 7 34 9s22.667 3 32 3c34 0 60.5 -9.5 79.5 -28.5s28.5 -42.5 28.5 -70.5c0 -21.333 -3.5 -39.333 -10.5 -54s-16.167 -27.667 -27.5 -39
c-18.667 -20.667 -38.5 -40.167 -59.5 -58.5s-38.167 -38.833 -51.5 -61.5h124c7.33301 0 13.666 -2.33301 18.999 -7s8 -10.667 8 -18z" />
    <glyph glyph-name="threesuperior" unicode="&#xb3;" 
d="M219 698l-38.499 -47.499l-37.5 -47.5c27.333 -2.66699 49.666 -12.5 66.999 -29.5s26 -40.167 26 -69.5c0 -13.333 -2.16699 -26.833 -6.5 -40.5s-11 -26.167 -20 -37.5s-20.667 -20.5 -35 -27.5s-31.5 -10.5 -51.5 -10.5c-5.33301 0 -13.666 0.5 -24.999 1.5
s-22.5 3 -33.5 6s-20.667 7.16699 -29 12.5s-12.5 12.666 -12.5 21.999c0 6.66699 2.5 12.5 7.5 17.5s11.167 7.5 18.5 7.5c4.66699 0 9.16699 -1 13.5 -3l14.5 -6.5c5.33301 -2.33301 11.166 -4.5 17.499 -6.5s13.5 -3 21.5 -3c12.667 0 23.167 2 31.5 6
s15 9.16699 20 15.5s8.66699 13.333 11 21s3.5 15.5 3.5 23.5c0 19.333 -6 33.333 -18 42s-27 13 -45 13c-7.33301 0 -12.333 -1 -15 -3s-7 -3 -13 -3c-6.66699 0 -12.167 2.5 -16.5 7.5s-6.5 10.5 -6.5 16.5c0 5.33301 0.666992 10 2 14l82 103h-95
c-8 0 -14.5 2.5 -19.5 7.5s-7.5 11.167 -7.5 18.5c0 6 2.5 12 7.5 18s11.5 9 19.5 9h139c7.33301 0 14 -2.66699 20 -8s9 -12.333 9 -21c0 -7.33301 -2 -13.333 -6 -18z" />
    <glyph glyph-name="acute" unicode="&#xb4;" horiz-adv-x="296" 
d="M178 717c5.33301 5.33301 10 9.16699 14 11.5s10.333 3.5 19 3.5c9.33301 0 18.333 -3.83301 27 -11.5s13 -17.5 13 -29.5c0 -10 -4.33301 -19.333 -13 -28l-75 -78c-6 -6.66699 -11.833 -11.667 -17.5 -15s-12.834 -5 -21.501 -5
c-11.333 0 -21.166 3.83301 -29.499 11.5s-12.5 17.834 -12.5 30.501c0 6 3.16699 13.167 9.5 21.5s14 17.166 23 26.499s18.333 18.5 28 27.5l25.5 24.5z" />
    <glyph glyph-name="periodcentered" unicode="&#xb7;" horiz-adv-x="275" 
d="M203 277c0 -18.667 -6.66699 -34.334 -20 -47.001s-29.666 -19 -48.999 -19c-18.667 0 -34.667 6.33301 -48 19s-20 28.334 -20 47.001c0 17.333 6.66699 32.5 20 45.5s29.333 19.5 48 19.5c19.333 0 35.666 -6.5 48.999 -19.5s20 -28.167 20 -45.5z" />
    <glyph glyph-name="cedilla" unicode="&#xb8;" horiz-adv-x="320" 
d="M260 -121c0 -25.333 -9.00195 -47.1621 -27.002 -65.4951s-46.333 -27.5 -85 -27.5c-10 0 -20.833 0.833008 -32.5 2.5s-22.5 4.33398 -32.5 8.00098s-18.167 8.66699 -24.5 15s-9.5 14.166 -9.5 23.499s2.83301 15.5 8.5 18.5s12.5 4.5 20.5 4.5
c9.33301 0 18.333 -1.16699 27 -3.5s17.667 -3.5 27 -3.5c5.33301 0 11.333 0.666992 18 2s12.834 3.16602 18.501 5.49902s10.334 5.5 14.001 9.5s5.5 9 5.5 15c0 10 -5.33301 16.667 -16 20s-22.167 6.16602 -34.5 8.49902s-23.833 5.66602 -34.5 9.99902
s-16 12.5 -16 24.5v2l1 6l14 78h63l-10 -68c20 -1.33301 36.833 -4.5 50.5 -9.5s24.5 -11.333 32.5 -19s13.667 -16.334 17 -26.001s5 -19.834 5 -30.501z" />
    <glyph glyph-name="onesuperior" unicode="&#xb9;" 
d="M133 680l-51.0029 -32c-4 -2.66699 -8 -5 -12 -7s-8.66699 -3 -14 -3s-10.666 2 -15.999 6s-8 9.66699 -8 17c0 10 4 17.667 12 23l99 60c4 3.33301 9 5 15 5c8.66699 0 15.834 -2.66699 21.501 -8s8.5 -12 8.5 -20v-308c0 -6.66699 -2.83301 -12.667 -8.5 -18
s-12.167 -8 -19.5 -8s-13.666 2.66699 -18.999 8s-8 11.333 -8 18v267z" />
    <glyph glyph-name="ordmasculine" unicode="&#xba;" horiz-adv-x="404" 
d="M202 332c-26 0 -48.833 3.83301 -68.5 11.5s-36 18.334 -49 32.001s-22.833 29.834 -29.5 48.501s-10 38.667 -10 60v77c0 22 3.33301 42.333 10 61s16.5 34.834 29.5 48.501s29.333 24.334 49 32.001s42.5 11.5 68.5 11.5s48.833 -3.83301 68.5 -11.5
s36 -18.334 49 -32.001s22.833 -29.834 29.5 -48.501s10 -39 10 -61v-77c0 -21.333 -3.33301 -41.333 -10 -60s-16.5 -34.834 -29.5 -48.501s-29.333 -24.334 -49 -32.001s-42.5 -11.5 -68.5 -11.5zM202 626c-22 0 -37.5 -6 -46.5 -18s-13.5 -29 -13.5 -51v-75
c0 -19.333 4.66699 -34.666 14 -45.999s24.666 -17 45.999 -17c20.667 0 35.834 5.66699 45.501 17s14.5 26.666 14.5 45.999v75c0 22 -4.5 39 -13.5 51s-24.5 18 -46.5 18z" />
    <glyph glyph-name="guillemotright" unicode="&#xbb;" horiz-adv-x="431" 
d="M299 258l-131 196.999c-2 3.33301 -3.33301 6.5 -4 9.5s-1 6.16699 -1 9.5c0 10.667 4 19.5 12 26.5s16.667 10.5 26 10.5s16.5 -2.33301 21.5 -7s10.167 -11 15.5 -19l152 -229l-158 -237c-6 -9.33301 -11.5 -16.166 -16.5 -20.499s-12.167 -6.5 -21.5 -6.5
c-12 0 -21.667 4 -29 12s-11 17.667 -11 29c0 6 1.66699 11.667 5 17zM139 255.999l-93 142.001c-2 3.33301 -3.33301 6.5 -4 9.5s-1 6.16699 -1 9.5c0 10.667 4 19.5 12 26.5s16.667 10.5 26 10.5s16.5 -2.33301 21.5 -7s10.167 -11 15.5 -19l114 -172l-114 -172
c-5.33301 -8 -10.5 -14.333 -15.5 -19s-12.167 -7 -21.5 -7s-18 3.5 -26 10.5s-12 15.833 -12 26.5c0 7.33301 1.66699 13.666 5 18.999z" />
    <glyph glyph-name="questiondown" unicode="&#xbf;" horiz-adv-x="482" 
d="M185 243c2.66699 4.66699 4.49805 10.335 5.49805 17.002s1.5 12.667 1.5 18c0 13.333 5.5 25.333 16.5 36s23.833 16 38.5 16s27.334 -5.66699 38.001 -17s16 -25.333 16 -42c0 -13.333 -2.66699 -26.5 -8 -39.5s-12.166 -25.667 -20.499 -38
s-17.333 -24.166 -27 -35.499l-27.5 -32l-21 -23c-14.667 -16 -27.834 -34.333 -39.501 -55s-17.5 -43 -17.5 -67c0 -30 8.83301 -55.5 26.5 -76.5s45.834 -31.5 84.501 -31.5c15.333 0 30.333 1.33301 45 4s28.667 7 42 13c11.333 5.33301 21.5 11.333 30.5 18
s19.167 10 30.5 10c13.333 0 25.5 -4.5 36.5 -13.5s16.5 -20.833 16.5 -35.5c0 -16 -7.16699 -30 -21.5 -42s-32 -21.833 -53 -29.5s-43.5 -13.334 -67.5 -17.001s-45.333 -5.5 -64 -5.5c-33.333 0 -63.166 5 -89.499 15s-48.666 24 -66.999 42s-32.5 39.167 -42.5 63.5
s-15 51.166 -15 80.499c0 35.333 6.16699 66.166 18.5 92.499s26.666 49.833 42.999 70.5s33.166 39.167 50.499 55.5s31 32.5 41 48.5zM177.998 443.001c0 18 6.66699 33.667 20 47s29.666 20 48.999 20s35.5 -6.66699 48.5 -20s19.5 -29 19.5 -47
c0 -17.333 -6.5 -32.5 -19.5 -45.5s-29.167 -19.5 -48.5 -19.5s-35.666 6.5 -48.999 19.5s-20 28.167 -20 45.5z" />
    <glyph glyph-name="Agrave" unicode="&#xc0;" horiz-adv-x="569" 
d="M129 29c-3.33301 -12 -10.5 -21.333 -21.5 -28s-21.167 -10 -30.5 -10c-15.333 0 -28.666 4.66699 -39.999 14s-17 21.666 -17 36.999c0 2.66699 0.166992 6 0.5 10s0.833008 7 1.5 9l195 593c5.33301 17.333 13 31.666 23 42.999s24.667 17 44 17
s33.833 -5.66699 43.5 -17s17.5 -25.666 23.5 -42.999l195 -593c1.33301 -2 2.16602 -5 2.49902 -9s0.5 -7.33301 0.5 -10c0 -15.333 -5.5 -27.666 -16.5 -36.999s-24.5 -14 -40.5 -14c-18 0 -31 5.66699 -39 17s-15.333 26 -22 44l-32 97h-233zM284 549
c-12.667 -53.333 -26.499 -104.667 -41.499 -154l-45.5 -150h173l-46.5 151c-15.667 50 -28.834 101 -39.501 153zM246.001 906.999l25.5 -24.501c9.66699 -9 19 -18.167 28 -27.5s16.667 -18.166 23 -26.499s9.5 -15.5 9.5 -21.5c0 -12.667 -4.16699 -22.834 -12.5 -30.501
s-18.166 -11.5 -29.499 -11.5c-8.66699 0 -15.834 1.66699 -21.501 5s-11.5 8.33301 -17.5 15l-75 78c-8.66699 8.66699 -13 18 -13 28c0 12 4.33301 21.833 13 29.5s17.667 11.5 27 11.5c8.66699 0 15 -1.16699 19 -3.5s8.66699 -6.16602 14 -11.499l10 -10v0z" />
    <glyph glyph-name="Aacute" unicode="&#xc1;" horiz-adv-x="569" 
d="M129 29c-3.33301 -12 -10.5 -21.333 -21.5 -28s-21.167 -10 -30.5 -10c-15.333 0 -28.666 4.66699 -39.999 14s-17 21.666 -17 36.999c0 2.66699 0.166992 6 0.5 10s0.833008 7 1.5 9l195 593c5.33301 17.333 13 31.666 23 42.999s24.667 17 44 17
s33.833 -5.66699 43.5 -17s17.5 -25.666 23.5 -42.999l195 -593c1.33301 -2 2.16602 -5 2.49902 -9s0.5 -7.33301 0.5 -10c0 -15.333 -5.5 -27.666 -16.5 -36.999s-24.5 -14 -40.5 -14c-18 0 -31 5.66699 -39 17s-15.333 26 -22 44l-32 97h-233zM284 549
c-12.667 -53.333 -26.499 -104.667 -41.499 -154l-45.5 -150h173l-46.5 151c-15.667 50 -28.834 101 -39.501 153zM338.001 916.999c5.33301 5.33301 10 9.16699 14 11.5s10.333 3.5 19 3.5c9.33301 0 18.333 -3.83301 27 -11.5s13 -17.5 13 -29.5
c0 -10 -4.33301 -19.333 -13 -28l-75 -78c-6 -6.66699 -11.833 -11.667 -17.5 -15s-12.834 -5 -21.501 -5c-11.333 0 -21.166 3.83301 -29.499 11.5s-12.5 17.834 -12.5 30.501c0 6 3.16699 13.167 9.5 21.5s14 17.166 23 26.499s18.333 18.5 28 27.5l25.5 24.5z" />
    <glyph glyph-name="Acircumflex" unicode="&#xc2;" horiz-adv-x="569" 
d="M129 29c-3.33301 -12 -10.5 -21.333 -21.5 -28s-21.167 -10 -30.5 -10c-15.333 0 -28.666 4.66699 -39.999 14s-17 21.666 -17 36.999c0 2.66699 0.166992 6 0.5 10s0.833008 7 1.5 9l195 593c5.33301 17.333 13 31.666 23 42.999s24.667 17 44 17
s33.833 -5.66699 43.5 -17s17.5 -25.666 23.5 -42.999l195 -593c1.33301 -2 2.16602 -5 2.49902 -9s0.5 -7.33301 0.5 -10c0 -15.333 -5.5 -27.666 -16.5 -36.999s-24.5 -14 -40.5 -14c-18 0 -31 5.66699 -39 17s-15.333 26 -22 44l-32 97h-233zM284 549
c-12.667 -53.333 -26.499 -104.667 -41.499 -154l-45.5 -150h173l-46.5 151c-15.667 50 -28.834 101 -39.501 153zM284.001 824.999c-6.66699 -5.33301 -13.6689 -11.666 -21.002 -18.999s-15 -14.5 -23 -21.5s-15.667 -12.833 -23 -17.5s-14.333 -7 -21 -7
c-10 0 -19.667 3.16699 -29 9.5s-14 15.166 -14 26.499c0 8 3.5 16.333 10.5 25s14.167 15.667 21.5 21l69 55c4 3.33301 8.33301 6 13 8s10.334 3 17.001 3s12.334 -1 17.001 -3s9 -4.66699 13 -8l69 -55c7.33301 -5.33301 14.5 -12.333 21.5 -21s10.5 -17 10.5 -25
c0 -11.333 -4.66699 -20.166 -14 -26.499s-19 -9.5 -29 -9.5c-6.66699 0 -13.667 2.33301 -21 7s-15 10.5 -23 17.5s-15.667 14.167 -23 21.5s-14.333 13.666 -21 18.999z" />
    <glyph glyph-name="Atilde" unicode="&#xc3;" horiz-adv-x="569" 
d="M129 29c-3.33301 -12 -10.5 -21.333 -21.5 -28s-21.167 -10 -30.5 -10c-15.333 0 -28.666 4.66699 -39.999 14s-17 21.666 -17 36.999c0 2.66699 0.166992 6 0.5 10s0.833008 7 1.5 9l195 593c5.33301 17.333 13 31.666 23 42.999s24.667 17 44 17
s33.833 -5.66699 43.5 -17s17.5 -25.666 23.5 -42.999l195 -593c1.33301 -2 2.16602 -5 2.49902 -9s0.5 -7.33301 0.5 -10c0 -15.333 -5.5 -27.666 -16.5 -36.999s-24.5 -14 -40.5 -14c-18 0 -31 5.66699 -39 17s-15.333 26 -22 44l-32 97h-233zM284 549
c-12.667 -53.333 -26.499 -104.667 -41.499 -154l-45.5 -150h173l-46.5 151c-15.667 50 -28.834 101 -39.501 153zM431.001 845.999c0 -9.33301 -2.66895 -18 -8.00195 -26s-12.333 -15 -21 -21s-18 -10.833 -28 -14.5s-19.667 -5.5 -29 -5.5c-12 0 -22.833 1.66699 -32.5 5
s-18.667 7.16602 -27 11.499l-24 12.5c-7.66699 4 -15.167 6.33301 -22.5 7c-8 0.666992 -14.667 -0.666016 -20 -3.99902s-10.166 -7 -14.499 -11s-8.66602 -7.66699 -12.999 -11s-9.83301 -5 -16.5 -5c-9.33301 0 -18 3 -26 9s-12 14.333 -12 25
c0 20.667 8.66699 37.834 26 51.501s37 20.5 59 20.5c12 0 22.833 -1.83301 32.5 -5.5s18.667 -7.66699 27 -12l23.5 -12c7.33301 -3.66699 15 -5.83398 23 -6.50098c8.66699 0 15.5 1.66699 20.5 5s9.5 7 13.5 11s8 7.66699 12 11s9.66699 5 17 5
c10.667 0 20 -3.83301 28 -11.5s12 -17.167 12 -28.5z" />
    <glyph glyph-name="Adieresis" unicode="&#xc4;" horiz-adv-x="569" 
d="M129 29c-3.33301 -12 -10.5 -21.333 -21.5 -28s-21.167 -10 -30.5 -10c-15.333 0 -28.666 4.66699 -39.999 14s-17 21.666 -17 36.999c0 2.66699 0.166992 6 0.5 10s0.833008 7 1.5 9l195 593c5.33301 17.333 13 31.666 23 42.999s24.667 17 44 17
s33.833 -5.66699 43.5 -17s17.5 -25.666 23.5 -42.999l195 -593c1.33301 -2 2.16602 -5 2.49902 -9s0.5 -7.33301 0.5 -10c0 -15.333 -5.5 -27.666 -16.5 -36.999s-24.5 -14 -40.5 -14c-18 0 -31 5.66699 -39 17s-15.333 26 -22 44l-32 97h-233zM284 549
c-12.667 -53.333 -26.499 -104.667 -41.499 -154l-45.5 -150h173l-46.5 151c-15.667 50 -28.834 101 -39.501 153zM427.001 833.999c0 -15.333 -5.5 -28.502 -16.5 -39.502s-24.167 -16.5 -39.5 -16.5s-28.666 5.5 -39.999 16.5s-17 24.167 -17 39.5
c0 14.667 5.66699 27.334 17 38.001s24.666 16 39.999 16s28.5 -5.16699 39.5 -15.5s16.5 -23.166 16.5 -38.499zM253.001 833.997c0 -15.333 -5.5 -28.502 -16.5 -39.502s-24.5 -16.5 -40.5 -16.5c-15.333 0 -28.333 5.5 -39 16.5s-16 24.167 -16 39.5
c0 14.667 5.33301 27.334 16 38.001s23.667 16 39 16c16 0 29.5 -5.16699 40.5 -15.5s16.5 -23.166 16.5 -38.499z" />
    <glyph glyph-name="Aring" unicode="&#xc5;" horiz-adv-x="569" 
d="M394 724c0 -17.333 -3.5 -33.168 -10.5 -47.501s-16.5 -26.166 -28.5 -35.499l95.5 -290l95.5 -290c1.33301 -2 2.16602 -5 2.49902 -9s0.5 -7.33301 0.5 -10c0 -15.333 -5.5 -27.666 -16.5 -36.999s-24.5 -14 -40.5 -14c-18 0 -31 5.66699 -39 17s-15.333 26 -22 44
l-32 97h-233l-37 -120c-4 -12 -11.333 -21.333 -22 -28s-20.667 -10 -30 -10c-15.333 0 -28.666 4.66699 -39.999 14s-17 21.666 -17 36.999c0 9.33301 1.16699 17 3.5 23s4.5 12.667 6.5 20l183 556c-12 10 -21.5 22 -28.5 36s-10.5 29.667 -10.5 47
c0 14.667 2.83301 28.667 8.5 42s13.5 25 23.5 35s21.833 18 35.5 24s28.167 9 43.5 9s29.666 -3 42.999 -9s24.833 -14 34.5 -24s17.334 -21.667 23.001 -35s8.5 -27.333 8.5 -42zM284 548.998c-12.667 -53.333 -26.499 -104.667 -41.499 -154l-45.5 -150h173l-46.5 151
c-15.667 50 -28.834 101 -39.501 153zM337.001 723.997c0 14.667 -5.16699 27.167 -15.5 37.5s-22.5 15.5 -36.5 15.5c-14.667 0 -27 -5.16699 -37 -15.5s-15 -22.833 -15 -37.5s5 -27 15 -37s22.333 -15 37 -15c14 0 26.167 5 36.5 15s15.5 22.333 15.5 37z" />
    <glyph glyph-name="AE" unicode="&#xc6;" horiz-adv-x="747" 
d="M434 0c-20.667 0 -38.832 4.16699 -54.499 12.5s-23.5 23.833 -23.5 46.5v90h-189l-38 -120c-3.33301 -11.333 -10.5 -20.666 -21.5 -27.999s-21.167 -11 -30.5 -11c-16.667 0 -30.334 4.83301 -41.001 14.5s-16 22.167 -16 37.5c0 2.66699 0.166992 6 0.5 10
s0.833008 7 1.5 9l193 583c5.33301 16 13.5 30.167 24.5 42.5s25.167 18.5 42.5 18.5h372c15.333 0 28.333 -5.16699 39 -15.5s16 -22.833 16 -37.5c0 -14 -5.33301 -25.833 -16 -35.5s-23.667 -14.5 -39 -14.5h-188v-197h169c13.333 0 25.666 -4.83301 36.999 -14.5
s17 -21.834 17 -36.501s-5.16699 -27 -15.5 -37s-23.166 -15 -38.499 -15h-169v-200h198c14.667 0 27.5 -4.83301 38.5 -14.5s16.5 -21.167 16.5 -34.5c0 -15.333 -5.33301 -28 -16 -38s-23.667 -15 -39 -15h-230zM327.002 602c-11.333 0 -18 -4.66699 -20 -14l-109 -343
h158v357h-29z" />
    <glyph glyph-name="Ccedilla" unicode="&#xc7;" horiz-adv-x="502" 
d="M392 -123c0 -24 -8.83203 -44.6611 -26.499 -61.9941s-42.5 -27 -74.5 -29c-12 0 -24.5 1.16699 -37.5 3.5s-24.833 5.5 -35.5 9.5s-19.5 8.83301 -26.5 14.5s-10.5 12.167 -10.5 19.5c0 9.33301 2.5 15.5 7.5 18.5s11.5 4.5 19.5 4.5c7.33301 0 17.166 -1 29.499 -3
s24.833 -3 37.5 -3c15.333 0 26.666 3.33301 33.999 10s11 14 11 22c0 10.667 -5.33301 17.667 -16 21s-22.167 6.16602 -34.5 8.49902s-23.833 5.5 -34.5 9.5s-16 12 -16 24c0 1.33301 0.166992 2.83301 0.5 4.5s0.5 3.16699 0.5 4.5l8 42
c-64.667 9.33301 -112.167 36.666 -142.5 81.999s-45.5 102.666 -45.5 171.999v206c0 38.667 4.83301 74 14.5 106s24.334 59.167 44.001 81.5s44.5 39.666 74.5 51.999s65.667 18.5 107 18.5c24.667 0 48.5 -2.5 71.5 -7.5s43.5 -12 61.5 -21s32.333 -19.333 43 -31
s16 -23.834 16 -36.501c0 -13.333 -4.83301 -24.666 -14.5 -33.999s-21.834 -14 -36.501 -14c-9.33301 0 -16.5 1.5 -21.5 4.5l-18.5 11.5c-11.333 9.33301 -25.833 16.833 -43.5 22.5s-35.167 8.5 -52.5 8.5c-25.333 0 -46.666 -3.66699 -63.999 -11s-31.333 -18 -42 -32
s-18.167 -31 -22.5 -51s-6.5 -42.333 -6.5 -67v-206c0 -24.667 2.16699 -47 6.5 -67s11.833 -37 22.5 -51s24.667 -24.667 42 -32s38.666 -11 63.999 -11c16 0 30.5 2.33301 43.5 7s24.833 10 35.5 16s20.667 11.333 30 16s18.333 7 27 7c13.333 0 25.166 -4.5 35.499 -13.5
s15.5 -20.167 15.5 -33.5c0 -14 -5.16699 -26.333 -15.5 -37s-23.833 -20 -40.5 -28s-36 -14.5 -58 -19.5s-44.333 -8.5 -67 -10.5c-0.666992 -5.33301 -1.16699 -10.333 -1.5 -15s-1.16602 -9.33398 -2.49902 -14.001c38.667 -2 65.834 -10.833 81.501 -26.5
s23.5 -35.834 23.5 -60.501z" />
    <glyph glyph-name="Egrave" unicode="&#xc8;" horiz-adv-x="494" 
d="M466 53c0 -15.333 -5.33203 -27.999 -15.999 -37.999s-23.667 -15 -39 -15h-265c-20.667 0 -38.834 4.16699 -54.501 12.5s-23.5 23.833 -23.5 46.5v587c0 14.667 5.83301 28.167 17.5 40.5s26.5 18.5 44.5 18.5h271c15.333 0 28.333 -5.16699 39 -15.5
s16 -22.833 16 -37.5s-5.33301 -26.667 -16 -36s-23.667 -14 -39 -14h-223v-197h204c13.333 0 25.666 -4.83301 36.999 -14.5s17 -21.834 17 -36.501s-5.16699 -27 -15.5 -37s-23.166 -15 -38.499 -15h-204v-200h233c14.667 0 27.5 -4.83301 38.5 -14.5
s16.5 -21.167 16.5 -34.5zM245.001 907.001l25.5 -24.501c9.66699 -9 19 -18.167 28 -27.5s16.667 -18.166 23 -26.499s9.5 -15.5 9.5 -21.5c0 -12.667 -4.16699 -22.834 -12.5 -30.501s-18.166 -11.5 -29.499 -11.5c-8.66699 0 -15.834 1.66699 -21.501 5
s-11.5 8.33301 -17.5 15l-75 78c-8.66699 8.66699 -13 18 -13 28c0 12 4.33301 21.833 13 29.5s17.667 11.5 27 11.5c8.66699 0 15 -1.16699 19 -3.5s8.66699 -6.16602 14 -11.499l10 -10v0z" />
    <glyph glyph-name="Eacute" unicode="&#xc9;" horiz-adv-x="494" 
d="M466 53c0 -15.333 -5.33203 -27.999 -15.999 -37.999s-23.667 -15 -39 -15h-265c-20.667 0 -38.834 4.16699 -54.501 12.5s-23.5 23.833 -23.5 46.5v587c0 14.667 5.83301 28.167 17.5 40.5s26.5 18.5 44.5 18.5h271c15.333 0 28.333 -5.16699 39 -15.5
s16 -22.833 16 -37.5s-5.33301 -26.667 -16 -36s-23.667 -14 -39 -14h-223v-197h204c13.333 0 25.666 -4.83301 36.999 -14.5s17 -21.834 17 -36.501s-5.16699 -27 -15.5 -37s-23.166 -15 -38.499 -15h-204v-200h233c14.667 0 27.5 -4.83301 38.5 -14.5
s16.5 -21.167 16.5 -34.5zM311.001 917.001c5.33301 5.33301 10 9.16699 14 11.5s10.333 3.5 19 3.5c9.33301 0 18.333 -3.83301 27 -11.5s13 -17.5 13 -29.5c0 -10 -4.33301 -19.333 -13 -28l-75 -78c-6 -6.66699 -11.833 -11.667 -17.5 -15s-12.834 -5 -21.501 -5
c-11.333 0 -21.166 3.83301 -29.499 11.5s-12.5 17.834 -12.5 30.501c0 6 3.16699 13.167 9.5 21.5s14 17.166 23 26.499s18.333 18.5 28 27.5l25.5 24.5z" />
    <glyph glyph-name="Ecircumflex" unicode="&#xca;" horiz-adv-x="494" 
d="M466 53c0 -15.333 -5.33203 -27.999 -15.999 -37.999s-23.667 -15 -39 -15h-265c-20.667 0 -38.834 4.16699 -54.501 12.5s-23.5 23.833 -23.5 46.5v587c0 14.667 5.83301 28.167 17.5 40.5s26.5 18.5 44.5 18.5h271c15.333 0 28.333 -5.16699 39 -15.5
s16 -22.833 16 -37.5s-5.33301 -26.667 -16 -36s-23.667 -14 -39 -14h-223v-197h204c13.333 0 25.666 -4.83301 36.999 -14.5s17 -21.834 17 -36.501s-5.16699 -27 -15.5 -37s-23.166 -15 -38.499 -15h-204v-200h233c14.667 0 27.5 -4.83301 38.5 -14.5
s16.5 -21.167 16.5 -34.5zM273.001 825.001c-6.66699 -5.33301 -13.6689 -11.666 -21.002 -18.999s-15 -14.5 -23 -21.5s-15.667 -12.833 -23 -17.5s-14.333 -7 -21 -7c-10 0 -19.667 3.16699 -29 9.5s-14 15.166 -14 26.499c0 8 3.5 16.333 10.5 25s14.167 15.667 21.5 21
l69 55c4 3.33301 8.33301 6 13 8s10.334 3 17.001 3s12.334 -1 17.001 -3s9 -4.66699 13 -8l69 -55c7.33301 -5.33301 14.5 -12.333 21.5 -21s10.5 -17 10.5 -25c0 -11.333 -4.66699 -20.166 -14 -26.499s-19 -9.5 -29 -9.5c-6.66699 0 -13.667 2.33301 -21 7
s-15 10.5 -23 17.5s-15.667 14.167 -23 21.5s-14.333 13.666 -21 18.999z" />
    <glyph glyph-name="Edieresis" unicode="&#xcb;" horiz-adv-x="494" 
d="M466 53c0 -15.333 -5.33203 -27.999 -15.999 -37.999s-23.667 -15 -39 -15h-265c-20.667 0 -38.834 4.16699 -54.501 12.5s-23.5 23.833 -23.5 46.5v587c0 14.667 5.83301 28.167 17.5 40.5s26.5 18.5 44.5 18.5h271c15.333 0 28.333 -5.16699 39 -15.5
s16 -22.833 16 -37.5s-5.33301 -26.667 -16 -36s-23.667 -14 -39 -14h-223v-197h204c13.333 0 25.666 -4.83301 36.999 -14.5s17 -21.834 17 -36.501s-5.16699 -27 -15.5 -37s-23.166 -15 -38.499 -15h-204v-200h233c14.667 0 27.5 -4.83301 38.5 -14.5
s16.5 -21.167 16.5 -34.5zM414.001 834.001c0 -15.333 -5.5 -28.502 -16.5 -39.502s-24.167 -16.5 -39.5 -16.5s-28.666 5.5 -39.999 16.5s-17 24.167 -17 39.5c0 14.667 5.66699 27.334 17 38.001s24.666 16 39.999 16s28.5 -5.16699 39.5 -15.5s16.5 -23.166 16.5 -38.499
zM240.001 833.999c0 -15.333 -5.5 -28.502 -16.5 -39.502s-24.5 -16.5 -40.5 -16.5c-15.333 0 -28.333 5.5 -39 16.5s-16 24.167 -16 39.5c0 14.667 5.33301 27.334 16 38.001s23.667 16 39 16c16 0 29.5 -5.16699 40.5 -15.5s16.5 -23.166 16.5 -38.499z" />
    <glyph glyph-name="Igrave" unicode="&#xcc;" horiz-adv-x="247" 
d="M68 662c0 14 5.33301 26.167 16 36.5s23.667 15.5 39 15.5s28.333 -5.16699 39 -15.5s16 -22.5 16 -36.5v-620c0 -13.333 -5.33301 -25.333 -16 -36s-23.667 -16 -39 -16s-28.333 5.33301 -39 16s-16 22.667 -16 36v620zM93 907l25.5 -24.501
c9.66699 -9 19 -18.167 28 -27.5s16.667 -18.166 23 -26.499s9.5 -15.5 9.5 -21.5c0 -12.667 -4.16699 -22.834 -12.5 -30.501s-18.166 -11.5 -29.499 -11.5c-8.66699 0 -15.834 1.66699 -21.501 5s-11.5 8.33301 -17.5 15l-75 78c-8.66699 8.66699 -13 18 -13 28
c0 12 4.33301 21.833 13 29.5s17.667 11.5 27 11.5c8.66699 0 15 -1.16699 19 -3.5s8.66699 -6.16602 14 -11.499l10 -10v0z" />
    <glyph glyph-name="Iacute" unicode="&#xcd;" horiz-adv-x="247" 
d="M68 662c0 14 5.33301 26.167 16 36.5s23.667 15.5 39 15.5s28.333 -5.16699 39 -15.5s16 -22.5 16 -36.5v-620c0 -13.333 -5.33301 -25.333 -16 -36s-23.667 -16 -39 -16s-28.333 5.33301 -39 16s-16 22.667 -16 36v620zM166 917c5.33301 5.33301 10 9.16699 14 11.5
s10.333 3.5 19 3.5c9.33301 0 18.333 -3.83301 27 -11.5s13 -17.5 13 -29.5c0 -10 -4.33301 -19.333 -13 -28l-75 -78c-6 -6.66699 -11.833 -11.667 -17.5 -15s-12.834 -5 -21.501 -5c-11.333 0 -21.166 3.83301 -29.499 11.5s-12.5 17.834 -12.5 30.501
c0 6 3.16699 13.167 9.5 21.5s14 17.166 23 26.499s18.333 18.5 28 27.5l25.5 24.5z" />
    <glyph glyph-name="Icircumflex" unicode="&#xce;" horiz-adv-x="247" 
d="M68 662c0 14 5.33301 26.167 16 36.5s23.667 15.5 39 15.5s28.333 -5.16699 39 -15.5s16 -22.5 16 -36.5v-620c0 -13.333 -5.33301 -25.333 -16 -36s-23.667 -16 -39 -16s-28.333 5.33301 -39 16s-16 22.667 -16 36v620zM125 825
c-6.66699 -5.33301 -13.6689 -11.666 -21.002 -18.999s-15 -14.5 -23 -21.5s-15.667 -12.833 -23 -17.5s-14.333 -7 -21 -7c-10 0 -19.667 3.16699 -29 9.5s-14 15.166 -14 26.499c0 8 3.5 16.333 10.5 25s14.167 15.667 21.5 21l69 55c4 3.33301 8.33301 6 13 8
s10.334 3 17.001 3s12.334 -1 17.001 -3s9 -4.66699 13 -8l69 -55c7.33301 -5.33301 14.5 -12.333 21.5 -21s10.5 -17 10.5 -25c0 -11.333 -4.66699 -20.166 -14 -26.499s-19 -9.5 -29 -9.5c-6.66699 0 -13.667 2.33301 -21 7s-15 10.5 -23 17.5s-15.667 14.167 -23 21.5
s-14.333 13.666 -21 18.999z" />
    <glyph glyph-name="Idieresis" unicode="&#xcf;" horiz-adv-x="247" 
d="M68 662c0 14 5.33301 26.167 16 36.5s23.667 15.5 39 15.5s28.333 -5.16699 39 -15.5s16 -22.5 16 -36.5v-620c0 -13.333 -5.33301 -25.333 -16 -36s-23.667 -16 -39 -16s-28.333 5.33301 -39 16s-16 22.667 -16 36v620zM268 834c0 -15.333 -5.5 -28.502 -16.5 -39.502
s-24.167 -16.5 -39.5 -16.5s-28.666 5.5 -39.999 16.5s-17 24.167 -17 39.5c0 14.667 5.66699 27.334 17 38.001s24.666 16 39.999 16s28.5 -5.16699 39.5 -15.5s16.5 -23.166 16.5 -38.499zM94 833.998c0 -15.333 -5.5 -28.502 -16.5 -39.502s-24.5 -16.5 -40.5 -16.5
c-15.333 0 -28.333 5.5 -39 16.5s-16 24.167 -16 39.5c0 14.667 5.33301 27.334 16 38.001s23.667 16 39 16c16 0 29.5 -5.16699 40.5 -15.5s16.5 -23.166 16.5 -38.499z" />
    <glyph glyph-name="Eth" unicode="&#xd0;" horiz-adv-x="595" 
d="M554 267c0 -34.667 -5.00098 -68.168 -15.001 -100.501s-26.167 -60.833 -48.5 -85.5s-52 -44.334 -89 -59.001s-82.5 -22 -136.5 -22h-113c-17.333 0 -32.166 5.83301 -44.499 17.5s-18.5 25.834 -18.5 42.501v244h-24c-14.667 0 -27 4.83301 -37 14.5
s-15 21.167 -15 34.5s5 24.833 15 34.5s22.333 14.5 37 14.5h24v243c0 16.667 6.16699 30.834 18.5 42.501s27.166 17.5 44.499 17.5h113c54 0 99.333 -7 136 -21s66.334 -33 89.001 -57s39 -51.5 49 -82.5s15 -63.5 15 -97.5v-180zM364.999 352.999
c0 -13.333 -4.83496 -24.833 -14.502 -34.5s-21.834 -14.5 -36.501 -14.5h-115v-202h83c30 0 55.333 4.33301 76 13s37.334 20.5 50.001 35.5s21.834 32.5 27.501 52.5s8.5 41.333 8.5 64v180c0 22 -2.83301 42.5 -8.5 61.5s-15 35.5 -28 49.5s-29.667 25 -50 33
s-45.5 12 -75.5 12h-83v-201h115c14.667 0 26.834 -4.83301 36.501 -14.5s14.5 -21.167 14.5 -34.5z" />
    <glyph glyph-name="Ntilde" unicode="&#xd1;" horiz-adv-x="620" 
d="M492 -10c-10.667 0 -21 2.66602 -31 7.99902s-17.667 12.333 -23 21l-260 469v-445c0 -14 -5.5 -26.333 -16.5 -37s-24.167 -16 -39.5 -16s-28.166 5.33301 -38.499 16s-15.5 23 -15.5 37v615c0 16 5.33301 29.333 16 40s24.667 16 42 16c11.333 0 22 -2.66699 32 -8
s17.667 -12.666 23 -21.999l31.5 -56l45.5 -82l52.5 -95l52.5 -96l45.5 -83l32.5 -57v446c0 14.667 5.5 27.167 16.5 37.5s24.167 15.5 39.5 15.5s28.166 -5.16699 38.499 -15.5s15.5 -22.833 15.5 -37.5v-615c0 -15.333 -5.5 -28.5 -16.5 -39.5s-25.167 -16.5 -42.5 -16.5z
M457 845.999c0 -9.33301 -2.66895 -18 -8.00195 -26s-12.333 -15 -21 -21s-18 -10.833 -28 -14.5s-19.667 -5.5 -29 -5.5c-12 0 -22.833 1.66699 -32.5 5s-18.667 7.16602 -27 11.499l-24 12.5c-7.66699 4 -15.167 6.33301 -22.5 7
c-8 0.666992 -14.667 -0.666016 -20 -3.99902s-10.166 -7 -14.499 -11s-8.66602 -7.66699 -12.999 -11s-9.83301 -5 -16.5 -5c-9.33301 0 -18 3 -26 9s-12 14.333 -12 25c0 20.667 8.66699 37.834 26 51.501s37 20.5 59 20.5c12 0 22.833 -1.83301 32.5 -5.5
s18.667 -7.66699 27 -12l23.5 -12c7.33301 -3.66699 15 -5.83398 23 -6.50098c8.66699 0 15.5 1.66699 20.5 5s9.5 7 13.5 11s8 7.66699 12 11s9.66699 5 17 5c10.667 0 20 -3.83301 28 -11.5s12 -17.167 12 -28.5z" />
    <glyph glyph-name="Ograve" unicode="&#xd2;" horiz-adv-x="580" 
d="M290 -10c-40.667 0 -76.334 6.83301 -107.001 20.5s-56.167 32.167 -76.5 55.5s-35.666 50.833 -45.999 82.5s-15.5 65.5 -15.5 101.5v206c0 34.667 4.5 67.667 13.5 99s23.333 58.833 43 82.5s45 42.334 76 56.001s68.5 20.5 112.5 20.5s81.5 -6.83301 112.5 -20.5
s56.333 -32.334 76 -56.001s34 -51.167 43 -82.5s13.5 -64.333 13.5 -99v-206c0 -36 -5.16699 -69.833 -15.5 -101.5s-25.666 -59.167 -45.999 -82.5s-45.833 -41.833 -76.5 -55.5s-66.334 -20.5 -107.001 -20.5zM290 612c-49.333 0 -84.1689 -14.333 -104.502 -43
s-30.5 -66.334 -30.5 -113.001v-206c0 -46.667 10.833 -84.5 32.5 -113.5s55.834 -43.5 102.501 -43.5c46 0 80 14.5 102 43.5s33 66.833 33 113.5v206c0 46.667 -10.167 84.334 -30.5 113.001s-55.166 43 -104.499 43zM257.997 907l25.5 -24.501
c9.66699 -9 19 -18.167 28 -27.5s16.667 -18.166 23 -26.499s9.5 -15.5 9.5 -21.5c0 -12.667 -4.16699 -22.834 -12.5 -30.501s-18.166 -11.5 -29.499 -11.5c-8.66699 0 -15.834 1.66699 -21.501 5s-11.5 8.33301 -17.5 15l-75 78c-8.66699 8.66699 -13 18 -13 28
c0 12 4.33301 21.833 13 29.5s17.667 11.5 27 11.5c8.66699 0 15 -1.16699 19 -3.5s8.66699 -6.16602 14 -11.499l10 -10v0z" />
    <glyph glyph-name="Oacute" unicode="&#xd3;" horiz-adv-x="580" 
d="M290 -10c-40.667 0 -76.334 6.83301 -107.001 20.5s-56.167 32.167 -76.5 55.5s-35.666 50.833 -45.999 82.5s-15.5 65.5 -15.5 101.5v206c0 34.667 4.5 67.667 13.5 99s23.333 58.833 43 82.5s45 42.334 76 56.001s68.5 20.5 112.5 20.5s81.5 -6.83301 112.5 -20.5
s56.333 -32.334 76 -56.001s34 -51.167 43 -82.5s13.5 -64.333 13.5 -99v-206c0 -36 -5.16699 -69.833 -15.5 -101.5s-25.666 -59.167 -45.999 -82.5s-45.833 -41.833 -76.5 -55.5s-66.334 -20.5 -107.001 -20.5zM290 612c-49.333 0 -84.1689 -14.333 -104.502 -43
s-30.5 -66.334 -30.5 -113.001v-206c0 -46.667 10.833 -84.5 32.5 -113.5s55.834 -43.5 102.501 -43.5c46 0 80 14.5 102 43.5s33 66.833 33 113.5v206c0 46.667 -10.167 84.334 -30.5 113.001s-55.166 43 -104.499 43zM328.997 917c5.33301 5.33301 10 9.16699 14 11.5
s10.333 3.5 19 3.5c9.33301 0 18.333 -3.83301 27 -11.5s13 -17.5 13 -29.5c0 -10 -4.33301 -19.333 -13 -28l-75 -78c-6 -6.66699 -11.833 -11.667 -17.5 -15s-12.834 -5 -21.501 -5c-11.333 0 -21.166 3.83301 -29.499 11.5s-12.5 17.834 -12.5 30.501
c0 6 3.16699 13.167 9.5 21.5s14 17.166 23 26.499s18.333 18.5 28 27.5l25.5 24.5z" />
    <glyph glyph-name="Ocircumflex" unicode="&#xd4;" horiz-adv-x="580" 
d="M290 -10c-40.667 0 -76.334 6.83301 -107.001 20.5s-56.167 32.167 -76.5 55.5s-35.666 50.833 -45.999 82.5s-15.5 65.5 -15.5 101.5v206c0 34.667 4.5 67.667 13.5 99s23.333 58.833 43 82.5s45 42.334 76 56.001s68.5 20.5 112.5 20.5s81.5 -6.83301 112.5 -20.5
s56.333 -32.334 76 -56.001s34 -51.167 43 -82.5s13.5 -64.333 13.5 -99v-206c0 -36 -5.16699 -69.833 -15.5 -101.5s-25.666 -59.167 -45.999 -82.5s-45.833 -41.833 -76.5 -55.5s-66.334 -20.5 -107.001 -20.5zM290 612c-49.333 0 -84.1689 -14.333 -104.502 -43
s-30.5 -66.334 -30.5 -113.001v-206c0 -46.667 10.833 -84.5 32.5 -113.5s55.834 -43.5 102.501 -43.5c46 0 80 14.5 102 43.5s33 66.833 33 113.5v206c0 46.667 -10.167 84.334 -30.5 113.001s-55.166 43 -104.499 43zM289.997 825
c-6.66699 -5.33301 -13.6689 -11.666 -21.002 -18.999s-15 -14.5 -23 -21.5s-15.667 -12.833 -23 -17.5s-14.333 -7 -21 -7c-10 0 -19.667 3.16699 -29 9.5s-14 15.166 -14 26.499c0 8 3.5 16.333 10.5 25s14.167 15.667 21.5 21l69 55c4 3.33301 8.33301 6 13 8
s10.334 3 17.001 3s12.334 -1 17.001 -3s9 -4.66699 13 -8l69 -55c7.33301 -5.33301 14.5 -12.333 21.5 -21s10.5 -17 10.5 -25c0 -11.333 -4.66699 -20.166 -14 -26.499s-19 -9.5 -29 -9.5c-6.66699 0 -13.667 2.33301 -21 7s-15 10.5 -23 17.5s-15.667 14.167 -23 21.5
s-14.333 13.666 -21 18.999z" />
    <glyph glyph-name="Otilde" unicode="&#xd5;" horiz-adv-x="580" 
d="M290 -10c-40.667 0 -76.334 6.83301 -107.001 20.5s-56.167 32.167 -76.5 55.5s-35.666 50.833 -45.999 82.5s-15.5 65.5 -15.5 101.5v206c0 34.667 4.5 67.667 13.5 99s23.333 58.833 43 82.5s45 42.334 76 56.001s68.5 20.5 112.5 20.5s81.5 -6.83301 112.5 -20.5
s56.333 -32.334 76 -56.001s34 -51.167 43 -82.5s13.5 -64.333 13.5 -99v-206c0 -36 -5.16699 -69.833 -15.5 -101.5s-25.666 -59.167 -45.999 -82.5s-45.833 -41.833 -76.5 -55.5s-66.334 -20.5 -107.001 -20.5zM290 612c-49.333 0 -84.1689 -14.333 -104.502 -43
s-30.5 -66.334 -30.5 -113.001v-206c0 -46.667 10.833 -84.5 32.5 -113.5s55.834 -43.5 102.501 -43.5c46 0 80 14.5 102 43.5s33 66.833 33 113.5v206c0 46.667 -10.167 84.334 -30.5 113.001s-55.166 43 -104.499 43zM436.997 846c0 -9.33301 -2.66895 -18 -8.00195 -26
s-12.333 -15 -21 -21s-18 -10.833 -28 -14.5s-19.667 -5.5 -29 -5.5c-12 0 -22.833 1.66699 -32.5 5s-18.667 7.16602 -27 11.499l-24 12.5c-7.66699 4 -15.167 6.33301 -22.5 7c-8 0.666992 -14.667 -0.666016 -20 -3.99902s-10.166 -7 -14.499 -11
s-8.66602 -7.66699 -12.999 -11s-9.83301 -5 -16.5 -5c-9.33301 0 -18 3 -26 9s-12 14.333 -12 25c0 20.667 8.66699 37.834 26 51.501s37 20.5 59 20.5c12 0 22.833 -1.83301 32.5 -5.5s18.667 -7.66699 27 -12l23.5 -12c7.33301 -3.66699 15 -5.83398 23 -6.50098
c8.66699 0 15.5 1.66699 20.5 5s9.5 7 13.5 11s8 7.66699 12 11s9.66699 5 17 5c10.667 0 20 -3.83301 28 -11.5s12 -17.167 12 -28.5z" />
    <glyph glyph-name="Odieresis" unicode="&#xd6;" horiz-adv-x="580" 
d="M290 -10c-40.667 0 -76.334 6.83301 -107.001 20.5s-56.167 32.167 -76.5 55.5s-35.666 50.833 -45.999 82.5s-15.5 65.5 -15.5 101.5v206c0 34.667 4.5 67.667 13.5 99s23.333 58.833 43 82.5s45 42.334 76 56.001s68.5 20.5 112.5 20.5s81.5 -6.83301 112.5 -20.5
s56.333 -32.334 76 -56.001s34 -51.167 43 -82.5s13.5 -64.333 13.5 -99v-206c0 -36 -5.16699 -69.833 -15.5 -101.5s-25.666 -59.167 -45.999 -82.5s-45.833 -41.833 -76.5 -55.5s-66.334 -20.5 -107.001 -20.5zM290 612c-49.333 0 -84.1689 -14.333 -104.502 -43
s-30.5 -66.334 -30.5 -113.001v-206c0 -46.667 10.833 -84.5 32.5 -113.5s55.834 -43.5 102.501 -43.5c46 0 80 14.5 102 43.5s33 66.833 33 113.5v206c0 46.667 -10.167 84.334 -30.5 113.001s-55.166 43 -104.499 43zM432.997 834c0 -15.333 -5.5 -28.502 -16.5 -39.502
s-24.167 -16.5 -39.5 -16.5s-28.666 5.5 -39.999 16.5s-17 24.167 -17 39.5c0 14.667 5.66699 27.334 17 38.001s24.666 16 39.999 16s28.5 -5.16699 39.5 -15.5s16.5 -23.166 16.5 -38.499zM258.997 833.998c0 -15.333 -5.5 -28.502 -16.5 -39.502s-24.5 -16.5 -40.5 -16.5
c-15.333 0 -28.333 5.5 -39 16.5s-16 24.167 -16 39.5c0 14.667 5.33301 27.334 16 38.001s23.667 16 39 16c16 0 29.5 -5.16699 40.5 -15.5s16.5 -23.166 16.5 -38.499z" />
    <glyph glyph-name="multiply" unicode="&#xd7;" horiz-adv-x="500" 
d="M305 354l119.998 -120c8 -8 12 -17.333 12 -28s-4 -19.667 -12 -27c-7.33301 -8 -16.5 -11.833 -27.5 -11.5s-20.167 4.16602 -27.5 11.499l-120 120l-120 -120c-7.33301 -7.33301 -16.5 -11.166 -27.5 -11.499s-20.167 3.5 -27.5 11.5c-8 7.33301 -12 16.333 -12 27
s4 20 12 28l120 120l-120 120c-7.33301 7.33301 -11.166 16.5 -11.499 27.5s3.5 20.167 11.5 27.5c7.33301 8 16.333 12 27 12s20 -4 28 -12l120 -120l120 120c8 8 17.333 12 28 12s19.667 -4 27 -12c8 -7.33301 11.833 -16.5 11.5 -27.5s-4.16602 -20.167 -11.499 -27.5z
" />
    <glyph glyph-name="Oslash" unicode="&#xd8;" horiz-adv-x="571" 
d="M77 100c-24.667 41.333 -36.999 91.3311 -36.999 149.998v206c0 34.667 4.5 67.667 13.5 99s23.333 58.833 43 82.5s45 42.334 76 56.001s68.5 20.5 112.5 20.5c40 0 74.667 -5.66699 104 -17s53.666 -27.333 72.999 -48l32 46c4 6 9.66699 9.66699 17 11s14 0 20 -4
c5.33301 -4 8.83301 -9.5 10.5 -16.5s0.166992 -13.5 -4.5 -19.5l-43 -61c12 -21.333 21 -44.5 27 -69.5s9 -51.5 9 -79.5v-206c0 -36 -5.16699 -69.833 -15.5 -101.5s-25.666 -59.167 -45.999 -82.5s-45.833 -41.833 -76.5 -55.5s-66.334 -20.5 -107.001 -20.5
c-38 0 -71.5 5.83301 -100.5 17.5s-53.833 27.834 -74.5 48.501l-32 -46c-4 -6 -9.66699 -9.66699 -17 -11s-14 0 -20 4c-5.33301 4 -8.83301 9.5 -10.5 16.5s-0.166992 13.5 4.5 19.5zM285.001 611.998c-49.333 0 -84.166 -14.333 -104.499 -43
s-30.5 -66.334 -30.5 -113.001v-206c0 -7.33301 0.166992 -14.666 0.5 -21.999s1.16602 -14 2.49902 -20l244 349c-10 17.333 -24.167 30.833 -42.5 40.5s-41.5 14.5 -69.5 14.5zM420.001 455.998c0 6.66699 -0.333008 13.167 -1 19.5l-2 19.5l-243 -347
c11.333 -17.333 26 -30.833 44 -40.5s40.333 -14.5 67 -14.5c46 0 80 14.5 102 43.5s33 66.833 33 113.5v206z" />
    <glyph glyph-name="Ugrave" unicode="&#xd9;" horiz-adv-x="592" 
d="M532 235c0 -35.333 -5.33301 -68 -16 -98s-26.167 -55.833 -46.5 -77.5s-45.166 -38.667 -74.499 -51s-62.333 -18.5 -99 -18.5c-38 0 -71.667 6.16699 -101 18.5s-54 29.333 -74 51s-35.167 47.5 -45.5 77.5s-15.5 62.667 -15.5 98v425
c0 15.333 5.33301 28.166 16 38.499s24 15.5 40 15.5c14.667 0 27.334 -5.16699 38.001 -15.5s16 -23.166 16 -38.499v-425c0 -42 10.167 -76.167 30.5 -102.5s52.166 -39.5 95.499 -39.5c42.667 0 74.167 13.167 94.5 39.5s30.5 60.5 30.5 102.5v425
c0 14.667 5.16699 27.334 15.5 38.001s23.166 16 38.499 16c16 0 29.5 -5.33301 40.5 -16s16.5 -23.334 16.5 -38.001v-425v0zM262 907l25.5 -24.501c9.66699 -9 19 -18.167 28 -27.5s16.667 -18.166 23 -26.499s9.5 -15.5 9.5 -21.5
c0 -12.667 -4.16699 -22.834 -12.5 -30.501s-18.166 -11.5 -29.499 -11.5c-8.66699 0 -15.834 1.66699 -21.501 5s-11.5 8.33301 -17.5 15l-75 78c-8.66699 8.66699 -13 18 -13 28c0 12 4.33301 21.833 13 29.5s17.667 11.5 27 11.5c8.66699 0 15 -1.16699 19 -3.5
s8.66699 -6.16602 14 -11.499l10 -10v0z" />
    <glyph glyph-name="Uacute" unicode="&#xda;" horiz-adv-x="592" 
d="M532 235c0 -35.333 -5.33301 -68 -16 -98s-26.167 -55.833 -46.5 -77.5s-45.166 -38.667 -74.499 -51s-62.333 -18.5 -99 -18.5c-38 0 -71.667 6.16699 -101 18.5s-54 29.333 -74 51s-35.167 47.5 -45.5 77.5s-15.5 62.667 -15.5 98v425
c0 15.333 5.33301 28.166 16 38.499s24 15.5 40 15.5c14.667 0 27.334 -5.16699 38.001 -15.5s16 -23.166 16 -38.499v-425c0 -42 10.167 -76.167 30.5 -102.5s52.166 -39.5 95.499 -39.5c42.667 0 74.167 13.167 94.5 39.5s30.5 60.5 30.5 102.5v425
c0 14.667 5.16699 27.334 15.5 38.001s23.166 16 38.499 16c16 0 29.5 -5.33301 40.5 -16s16.5 -23.334 16.5 -38.001v-425v0zM344 917c5.33301 5.33301 10 9.16699 14 11.5s10.333 3.5 19 3.5c9.33301 0 18.333 -3.83301 27 -11.5s13 -17.5 13 -29.5
c0 -10 -4.33301 -19.333 -13 -28l-75 -78c-6 -6.66699 -11.833 -11.667 -17.5 -15s-12.834 -5 -21.501 -5c-11.333 0 -21.166 3.83301 -29.499 11.5s-12.5 17.834 -12.5 30.501c0 6 3.16699 13.167 9.5 21.5s14 17.166 23 26.499s18.333 18.5 28 27.5l25.5 24.5z" />
    <glyph glyph-name="Ucircumflex" unicode="&#xdb;" horiz-adv-x="592" 
d="M532 235c0 -35.333 -5.33301 -68 -16 -98s-26.167 -55.833 -46.5 -77.5s-45.166 -38.667 -74.499 -51s-62.333 -18.5 -99 -18.5c-38 0 -71.667 6.16699 -101 18.5s-54 29.333 -74 51s-35.167 47.5 -45.5 77.5s-15.5 62.667 -15.5 98v425
c0 15.333 5.33301 28.166 16 38.499s24 15.5 40 15.5c14.667 0 27.334 -5.16699 38.001 -15.5s16 -23.166 16 -38.499v-425c0 -42 10.167 -76.167 30.5 -102.5s52.166 -39.5 95.499 -39.5c42.667 0 74.167 13.167 94.5 39.5s30.5 60.5 30.5 102.5v425
c0 14.667 5.16699 27.334 15.5 38.001s23.166 16 38.499 16c16 0 29.5 -5.33301 40.5 -16s16.5 -23.334 16.5 -38.001v-425v0zM296 825c-6.66699 -5.33301 -13.6689 -11.666 -21.002 -18.999s-15 -14.5 -23 -21.5s-15.667 -12.833 -23 -17.5s-14.333 -7 -21 -7
c-10 0 -19.667 3.16699 -29 9.5s-14 15.166 -14 26.499c0 8 3.5 16.333 10.5 25s14.167 15.667 21.5 21l69 55c4 3.33301 8.33301 6 13 8s10.334 3 17.001 3s12.334 -1 17.001 -3s9 -4.66699 13 -8l69 -55c7.33301 -5.33301 14.5 -12.333 21.5 -21s10.5 -17 10.5 -25
c0 -11.333 -4.66699 -20.166 -14 -26.499s-19 -9.5 -29 -9.5c-6.66699 0 -13.667 2.33301 -21 7s-15 10.5 -23 17.5s-15.667 14.167 -23 21.5s-14.333 13.666 -21 18.999z" />
    <glyph glyph-name="Udieresis" unicode="&#xdc;" horiz-adv-x="592" 
d="M532 235c0 -35.333 -5.33301 -68 -16 -98s-26.167 -55.833 -46.5 -77.5s-45.166 -38.667 -74.499 -51s-62.333 -18.5 -99 -18.5c-38 0 -71.667 6.16699 -101 18.5s-54 29.333 -74 51s-35.167 47.5 -45.5 77.5s-15.5 62.667 -15.5 98v425
c0 15.333 5.33301 28.166 16 38.499s24 15.5 40 15.5c14.667 0 27.334 -5.16699 38.001 -15.5s16 -23.166 16 -38.499v-425c0 -42 10.167 -76.167 30.5 -102.5s52.166 -39.5 95.499 -39.5c42.667 0 74.167 13.167 94.5 39.5s30.5 60.5 30.5 102.5v425
c0 14.667 5.16699 27.334 15.5 38.001s23.166 16 38.499 16c16 0 29.5 -5.33301 40.5 -16s16.5 -23.334 16.5 -38.001v-425v0zM438 834c0 -15.333 -5.5 -28.502 -16.5 -39.502s-24.167 -16.5 -39.5 -16.5s-28.666 5.5 -39.999 16.5s-17 24.167 -17 39.5
c0 14.667 5.66699 27.334 17 38.001s24.666 16 39.999 16s28.5 -5.16699 39.5 -15.5s16.5 -23.166 16.5 -38.499zM264 833.998c0 -15.333 -5.5 -28.502 -16.5 -39.502s-24.5 -16.5 -40.5 -16.5c-15.333 0 -28.333 5.5 -39 16.5s-16 24.167 -16 39.5
c0 14.667 5.33301 27.334 16 38.001s23.667 16 39 16c16 0 29.5 -5.16699 40.5 -15.5s16.5 -23.166 16.5 -38.499z" />
    <glyph glyph-name="Yacute" unicode="&#xdd;" horiz-adv-x="503" 
d="M251 -10c-15.333 0 -28.5 5.33301 -39.5 16s-16.5 23.334 -16.5 38.001v232l-177 361c-1.33301 3.33301 -2.5 7.16602 -3.5 11.499s-1.5 8.5 -1.5 12.5c0 14.667 5.83301 27.167 17.5 37.5s24.5 15.5 38.5 15.5c8.66699 0 17 -1.83301 25 -5.5s14.333 -9.5 19 -17.5
l138 -288l138 288c4.66699 8 11 13.833 19 17.5s16.333 5.5 25 5.5c14.667 0 27.667 -5.16699 39 -15.5s17 -22.833 17 -37.5c0 -3.33301 -0.5 -7.33301 -1.5 -12s-2.16699 -8.66699 -3.5 -12l-177 -362v-231c0 -14 -5.33301 -26.5 -16 -37.5s-24 -16.5 -40 -16.5zM284 917
c5.33301 5.33301 10 9.16699 14 11.5s10.333 3.5 19 3.5c9.33301 0 18.333 -3.83301 27 -11.5s13 -17.5 13 -29.5c0 -10 -4.33301 -19.333 -13 -28l-75 -78c-6 -6.66699 -11.833 -11.667 -17.5 -15s-12.834 -5 -21.501 -5c-11.333 0 -21.166 3.83301 -29.499 11.5
s-12.5 17.834 -12.5 30.501c0 6 3.16699 13.167 9.5 21.5s14 17.166 23 26.499s18.333 18.5 28 27.5l25.5 24.5z" />
    <glyph glyph-name="Thorn" unicode="&#xde;" horiz-adv-x="550" 
d="M68 662c0 14.667 5.33301 27.1689 16 37.502s23.667 15.5 39 15.5s28.333 -5.33301 39 -16s16 -23 16 -37v-76h100c44 0 81.333 -6.16699 112 -18.5s55.5 -29 74.5 -50s32.667 -45 41 -72s12.5 -55.167 12.5 -84.5c0 -35.333 -5.66699 -66.833 -17 -94.5
s-27.5 -50.834 -48.5 -69.501s-46.167 -32.834 -75.5 -42.501s-62.333 -14.5 -99 -14.5h-100v-97c0 -14 -5.33301 -26.333 -16 -37s-23.667 -16 -39 -16s-28.333 5.33301 -39 16s-16 23 -16 37v619zM178 242.002l100.003 0.000976562c42.667 0 75 9.66699 97 29
s33 49.666 33 90.999c0 14.667 -1.83301 29.167 -5.5 43.5s-10.334 27.333 -20.001 39s-22.834 21 -39.501 28s-38.334 10.5 -65.001 10.5h-100v-241z" />
    <glyph glyph-name="germandbls" unicode="&#xdf;" horiz-adv-x="577" 
d="M538 168c0 -28.667 -5.00684 -53.6641 -15.0068 -74.9971s-24 -39.166 -42 -53.499s-39.667 -25.166 -65 -32.499s-53.333 -11 -84 -11c-37.333 0 -65.666 5.16699 -84.999 15.5s-29 24.166 -29 41.499c0 11.333 4 22 12 32s20.667 15 38 15
c11.333 0 23.333 -1.66699 36 -5s26 -5 40 -5c10 0 19.833 1.33301 29.5 4s18.5 7 26.5 13s14.333 13.667 19 23s7 20.666 7 33.999c0 24 -4.83301 43 -14.5 57s-21.5 25.333 -35.5 34s-29.5 15.667 -46.5 21s-32.5 11.333 -46.5 18s-25.833 15.167 -35.5 25.5
s-14.5 24.5 -14.5 42.5c0 17.333 3.33301 30.666 10 39.999s15.167 17.166 25.5 23.499s21.5 11.833 33.5 16.5s23.167 10.667 33.5 18s18.833 16.833 25.5 28.5s10 27.834 10 48.501c0 28.667 -9.16699 50 -27.5 64s-41.5 21 -69.5 21c-34 0 -58.833 -10.333 -74.5 -31
s-23.5 -53 -23.5 -97v-505c0 -13.333 -5.16699 -25 -15.5 -35s-23.166 -15 -38.499 -15s-28.166 5 -38.499 15s-15.5 21.667 -15.5 35v502c0 70.667 18 126 54 166s88.333 60 157 60c28 0 54.167 -3.66699 78.5 -11s45.333 -18.166 63 -32.499s31.5 -32.333 41.5 -54
s15 -46.5 15 -74.5c0 -36.667 -8 -66.5 -24 -89.5s-35.333 -40.833 -58 -53.5c-5.33301 -2.66699 -11.166 -5.33398 -17.499 -8.00098s-12.166 -5.33398 -17.499 -8.00098s-9.83301 -5.33398 -13.5 -8.00098s-5.5 -5 -5.5 -7c0 -4 3 -7.16699 9 -9.5s14.667 -5.5 26 -9.5
c22 -9.33301 42.833 -19.5 62.5 -30.5s36.834 -23.667 51.501 -38s26.334 -31 35.001 -50s13 -40.833 13 -65.5z" />
    <glyph glyph-name="agrave" unicode="&#xe0;" horiz-adv-x="502" 
d="M317 333c0 58.667 -30.666 88.0029 -91.999 88.0029c-13.333 0 -24.333 -1.33301 -33 -4s-17.334 -5.66699 -26.001 -9l-19 -8c-6.66699 -3.33301 -15.334 -5 -26.001 -5c-14.667 0 -25.167 4.66699 -31.5 14s-9.5 19.333 -9.5 30c0 13.333 4.33301 24.666 13 33.999
s20.334 17 35.001 23s31.334 10.333 50.001 13s37.667 4 57 4c68 0 116.667 -17.333 146 -52s44 -85.334 44 -152.001v-203c0 -12.667 2.33301 -20.834 7 -24.501s10.667 -6.16699 18 -7.5c20 -4 30 -16 30 -36c0 -28 -19.667 -42 -59 -42c-34.667 0 -61.334 15 -80.001 45
c-37.333 -32 -82.666 -48 -135.999 -48c-54.667 0 -95.834 14 -123.501 42s-41.5 65.333 -41.5 112v3c0 100.667 62.333 151 187 151c30.667 0 60.667 -4 90 -12v44zM230.001 219.003c-17.333 0 -31.498 -1.83301 -42.498 -5.5s-19.5 -8.66699 -25.5 -15
s-10 -13.833 -12 -22.5s-3 -17.667 -3 -27v-3c0 -20 5.5 -35.5 16.5 -46.5s30.5 -16.5 58.5 -16.5c17.333 0 33.666 2.66699 48.999 8s30.666 14.333 45.999 27v90c-14.667 3.33301 -29.667 6 -45 8s-29.333 3 -42 3zM239.003 707.003l25.5 -24.501
c9.66699 -9 19 -18.167 28 -27.5s16.667 -18.166 23 -26.499s9.5 -15.5 9.5 -21.5c0 -12.667 -4.16699 -22.834 -12.5 -30.501s-18.166 -11.5 -29.499 -11.5c-8.66699 0 -15.834 1.66699 -21.501 5s-11.5 8.33301 -17.5 15l-75 78c-8.66699 8.66699 -13 18 -13 28
c0 12 4.33301 21.833 13 29.5s17.667 11.5 27 11.5c8.66699 0 15 -1.16699 19 -3.5s8.66699 -6.16602 14 -11.499l10 -10v0z" />
    <glyph glyph-name="aacute" unicode="&#xe1;" horiz-adv-x="502" 
d="M317 333c0 58.667 -30.666 88.0029 -91.999 88.0029c-13.333 0 -24.333 -1.33301 -33 -4s-17.334 -5.66699 -26.001 -9l-19 -8c-6.66699 -3.33301 -15.334 -5 -26.001 -5c-14.667 0 -25.167 4.66699 -31.5 14s-9.5 19.333 -9.5 30c0 13.333 4.33301 24.666 13 33.999
s20.334 17 35.001 23s31.334 10.333 50.001 13s37.667 4 57 4c68 0 116.667 -17.333 146 -52s44 -85.334 44 -152.001v-203c0 -12.667 2.33301 -20.834 7 -24.501s10.667 -6.16699 18 -7.5c20 -4 30 -16 30 -36c0 -28 -19.667 -42 -59 -42c-34.667 0 -61.334 15 -80.001 45
c-37.333 -32 -82.666 -48 -135.999 -48c-54.667 0 -95.834 14 -123.501 42s-41.5 65.333 -41.5 112v3c0 100.667 62.333 151 187 151c30.667 0 60.667 -4 90 -12v44zM230.001 219.003c-17.333 0 -31.498 -1.83301 -42.498 -5.5s-19.5 -8.66699 -25.5 -15
s-10 -13.833 -12 -22.5s-3 -17.667 -3 -27v-3c0 -20 5.5 -35.5 16.5 -46.5s30.5 -16.5 58.5 -16.5c17.333 0 33.666 2.66699 48.999 8s30.666 14.333 45.999 27v90c-14.667 3.33301 -29.667 6 -45 8s-29.333 3 -42 3zM276.003 717.003c5.33301 5.33301 10 9.16699 14 11.5
s10.333 3.5 19 3.5c9.33301 0 18.333 -3.83301 27 -11.5s13 -17.5 13 -29.5c0 -10 -4.33301 -19.333 -13 -28l-75 -78c-6 -6.66699 -11.833 -11.667 -17.5 -15s-12.834 -5 -21.501 -5c-11.333 0 -21.166 3.83301 -29.499 11.5s-12.5 17.834 -12.5 30.501
c0 6 3.16699 13.167 9.5 21.5s14 17.166 23 26.499s18.333 18.5 28 27.5l25.5 24.5z" />
    <glyph glyph-name="acircumflex" unicode="&#xe2;" horiz-adv-x="502" 
d="M317 333c0 58.667 -30.666 88.0029 -91.999 88.0029c-13.333 0 -24.333 -1.33301 -33 -4s-17.334 -5.66699 -26.001 -9l-19 -8c-6.66699 -3.33301 -15.334 -5 -26.001 -5c-14.667 0 -25.167 4.66699 -31.5 14s-9.5 19.333 -9.5 30c0 13.333 4.33301 24.666 13 33.999
s20.334 17 35.001 23s31.334 10.333 50.001 13s37.667 4 57 4c68 0 116.667 -17.333 146 -52s44 -85.334 44 -152.001v-203c0 -12.667 2.33301 -20.834 7 -24.501s10.667 -6.16699 18 -7.5c20 -4 30 -16 30 -36c0 -28 -19.667 -42 -59 -42c-34.667 0 -61.334 15 -80.001 45
c-37.333 -32 -82.666 -48 -135.999 -48c-54.667 0 -95.834 14 -123.501 42s-41.5 65.333 -41.5 112v3c0 100.667 62.333 151 187 151c30.667 0 60.667 -4 90 -12v44zM230.001 219.003c-17.333 0 -31.498 -1.83301 -42.498 -5.5s-19.5 -8.66699 -25.5 -15
s-10 -13.833 -12 -22.5s-3 -17.667 -3 -27v-3c0 -20 5.5 -35.5 16.5 -46.5s30.5 -16.5 58.5 -16.5c17.333 0 33.666 2.66699 48.999 8s30.666 14.333 45.999 27v90c-14.667 3.33301 -29.667 6 -45 8s-29.333 3 -42 3zM251.003 625.003
c-6.66699 -5.33301 -13.6689 -11.666 -21.002 -18.999s-15 -14.5 -23 -21.5s-15.667 -12.833 -23 -17.5s-14.333 -7 -21 -7c-10 0 -19.667 3.16699 -29 9.5s-14 15.166 -14 26.499c0 8 3.5 16.333 10.5 25s14.167 15.667 21.5 21l69 55c4 3.33301 8.33301 6 13 8
s10.334 3 17.001 3s12.334 -1 17.001 -3s9 -4.66699 13 -8l69 -55c7.33301 -5.33301 14.5 -12.333 21.5 -21s10.5 -17 10.5 -25c0 -11.333 -4.66699 -20.166 -14 -26.499s-19 -9.5 -29 -9.5c-6.66699 0 -13.667 2.33301 -21 7s-15 10.5 -23 17.5s-15.667 14.167 -23 21.5
s-14.333 13.666 -21 18.999z" />
    <glyph glyph-name="atilde" unicode="&#xe3;" horiz-adv-x="502" 
d="M317 333c0 58.667 -30.666 88.0029 -91.999 88.0029c-13.333 0 -24.333 -1.33301 -33 -4s-17.334 -5.66699 -26.001 -9l-19 -8c-6.66699 -3.33301 -15.334 -5 -26.001 -5c-14.667 0 -25.167 4.66699 -31.5 14s-9.5 19.333 -9.5 30c0 13.333 4.33301 24.666 13 33.999
s20.334 17 35.001 23s31.334 10.333 50.001 13s37.667 4 57 4c68 0 116.667 -17.333 146 -52s44 -85.334 44 -152.001v-203c0 -12.667 2.33301 -20.834 7 -24.501s10.667 -6.16699 18 -7.5c20 -4 30 -16 30 -36c0 -28 -19.667 -42 -59 -42c-34.667 0 -61.334 15 -80.001 45
c-37.333 -32 -82.666 -48 -135.999 -48c-54.667 0 -95.834 14 -123.501 42s-41.5 65.333 -41.5 112v3c0 100.667 62.333 151 187 151c30.667 0 60.667 -4 90 -12v44zM230.001 219.003c-17.333 0 -31.498 -1.83301 -42.498 -5.5s-19.5 -8.66699 -25.5 -15
s-10 -13.833 -12 -22.5s-3 -17.667 -3 -27v-3c0 -20 5.5 -35.5 16.5 -46.5s30.5 -16.5 58.5 -16.5c17.333 0 33.666 2.66699 48.999 8s30.666 14.333 45.999 27v90c-14.667 3.33301 -29.667 6 -45 8s-29.333 3 -42 3zM398.003 646.003c0 -9.33301 -2.66895 -18 -8.00195 -26
s-12.333 -15 -21 -21s-18 -10.833 -28 -14.5s-19.667 -5.5 -29 -5.5c-12 0 -22.833 1.66699 -32.5 5s-18.667 7.16602 -27 11.499l-24 12.5c-7.66699 4 -15.167 6.33301 -22.5 7c-8 0.666992 -14.667 -0.666016 -20 -3.99902s-10.166 -7 -14.499 -11
s-8.66602 -7.66699 -12.999 -11s-9.83301 -5 -16.5 -5c-9.33301 0 -18 3 -26 9s-12 14.333 -12 25c0 20.667 8.66699 37.834 26 51.501s37 20.5 59 20.5c12 0 22.833 -1.83301 32.5 -5.5s18.667 -7.66699 27 -12l23.5 -12c7.33301 -3.66699 15 -5.83398 23 -6.50098
c8.66699 0 15.5 1.66699 20.5 5s9.5 7 13.5 11s8 7.66699 12 11s9.66699 5 17 5c10.667 0 20 -3.83301 28 -11.5s12 -17.167 12 -28.5z" />
    <glyph glyph-name="adieresis" unicode="&#xe4;" horiz-adv-x="502" 
d="M317 333c0 58.667 -30.666 88.0029 -91.999 88.0029c-13.333 0 -24.333 -1.33301 -33 -4s-17.334 -5.66699 -26.001 -9l-19 -8c-6.66699 -3.33301 -15.334 -5 -26.001 -5c-14.667 0 -25.167 4.66699 -31.5 14s-9.5 19.333 -9.5 30c0 13.333 4.33301 24.666 13 33.999
s20.334 17 35.001 23s31.334 10.333 50.001 13s37.667 4 57 4c68 0 116.667 -17.333 146 -52s44 -85.334 44 -152.001v-203c0 -12.667 2.33301 -20.834 7 -24.501s10.667 -6.16699 18 -7.5c20 -4 30 -16 30 -36c0 -28 -19.667 -42 -59 -42c-34.667 0 -61.334 15 -80.001 45
c-37.333 -32 -82.666 -48 -135.999 -48c-54.667 0 -95.834 14 -123.501 42s-41.5 65.333 -41.5 112v3c0 100.667 62.333 151 187 151c30.667 0 60.667 -4 90 -12v44zM230.001 219.003c-17.333 0 -31.498 -1.83301 -42.498 -5.5s-19.5 -8.66699 -25.5 -15
s-10 -13.833 -12 -22.5s-3 -17.667 -3 -27v-3c0 -20 5.5 -35.5 16.5 -46.5s30.5 -16.5 58.5 -16.5c17.333 0 33.666 2.66699 48.999 8s30.666 14.333 45.999 27v90c-14.667 3.33301 -29.667 6 -45 8s-29.333 3 -42 3zM393.003 634.003c0 -15.333 -5.5 -28.502 -16.5 -39.502
s-24.167 -16.5 -39.5 -16.5s-28.666 5.5 -39.999 16.5s-17 24.167 -17 39.5c0 14.667 5.66699 27.334 17 38.001s24.666 16 39.999 16s28.5 -5.16699 39.5 -15.5s16.5 -23.166 16.5 -38.499zM219.003 634.001c0 -15.333 -5.5 -28.502 -16.5 -39.502s-24.5 -16.5 -40.5 -16.5
c-15.333 0 -28.333 5.5 -39 16.5s-16 24.167 -16 39.5c0 14.667 5.33301 27.334 16 38.001s23.667 16 39 16c16 0 29.5 -5.16699 40.5 -15.5s16.5 -23.166 16.5 -38.499z" />
    <glyph glyph-name="aring" unicode="&#xe5;" horiz-adv-x="502" 
d="M317 333c0 58.667 -30.666 88.0029 -91.999 88.0029c-13.333 0 -24.333 -1.33301 -33 -4s-17.334 -5.66699 -26.001 -9l-19 -8c-6.66699 -3.33301 -15.334 -5 -26.001 -5c-14.667 0 -25.167 4.66699 -31.5 14s-9.5 19.333 -9.5 30c0 13.333 4.33301 24.666 13 33.999
s20.334 17 35.001 23s31.334 10.333 50.001 13s37.667 4 57 4c68 0 116.667 -17.333 146 -52s44 -85.334 44 -152.001v-203c0 -12.667 2.33301 -20.834 7 -24.501s10.667 -6.16699 18 -7.5c20 -4 30 -16 30 -36c0 -28 -19.667 -42 -59 -42c-34.667 0 -61.334 15 -80.001 45
c-37.333 -32 -82.666 -48 -135.999 -48c-54.667 0 -95.834 14 -123.501 42s-41.5 65.333 -41.5 112v3c0 100.667 62.333 151 187 151c30.667 0 60.667 -4 90 -12v44zM230.001 219.003c-17.333 0 -31.498 -1.83301 -42.498 -5.5s-19.5 -8.66699 -25.5 -15
s-10 -13.833 -12 -22.5s-3 -17.667 -3 -27v-3c0 -20 5.5 -35.5 16.5 -46.5s30.5 -16.5 58.5 -16.5c17.333 0 33.666 2.66699 48.999 8s30.666 14.333 45.999 27v90c-14.667 3.33301 -29.667 6 -45 8s-29.333 3 -42 3zM357.003 644.003c0 -29.333 -10.002 -54 -30.002 -74
s-44.667 -30 -74 -30c-30 0 -55 10 -75 30s-30 44.667 -30 74c0 14 2.66699 27.333 8 40s12.833 23.834 22.5 33.501s20.834 17.167 33.501 22.5s26.334 8 41.001 8s28.334 -2.66699 41.001 -8s23.667 -12.833 33 -22.5s16.666 -20.834 21.999 -33.501s8 -26 8 -40z
M302.001 644.003c0 13.333 -4.83301 25 -14.5 35s-21.167 15 -34.5 15s-24.833 -5 -34.5 -15s-14.5 -21.667 -14.5 -35s4.83301 -24.833 14.5 -34.5s21.167 -14.5 34.5 -14.5s24.833 4.83301 34.5 14.5s14.5 21.167 14.5 34.5z" />
    <glyph glyph-name="ae" unicode="&#xe6;" horiz-adv-x="712" 
d="M502 192c-13.333 0 -27.501 0.498047 -42.501 1.49805s-29.833 2.5 -44.5 4.5v-40c0 -22.667 7.83301 -40.667 23.5 -54s39.167 -20 70.5 -20c19.333 0 36 2.33301 50 7s29.667 10.667 47 18c3.33301 1.33301 6.5 2.5 9.5 3.5s6.83301 1.5 11.5 1.5
c14 0 25.833 -4.83301 35.5 -14.5s14.5 -20.5 14.5 -32.5c0 -14 -6.5 -25.833 -19.5 -35.5s-28.667 -17.5 -47 -23.5s-37.5 -10.167 -57.5 -12.5s-36.667 -3.5 -50 -3.5c-32.667 0 -60.5 5.33301 -83.5 16s-41.833 25.667 -56.5 45c-46.667 -40.667 -101.667 -61 -165 -61
c-56.667 0 -98.834 14.333 -126.501 43s-41.5 66.667 -41.5 114v3c0 102.667 63.667 154 191 154c31.333 0 60 -3.33301 86 -10v37c0 58.667 -30.667 88 -92 88c-15.333 0 -28.166 -1.66699 -38.499 -5s-20.833 -7.66602 -31.5 -12.999
c-3.33301 -1.33301 -7.66602 -3.16602 -12.999 -5.49902s-11.666 -3.5 -18.999 -3.5c-14.667 0 -25.334 4.66699 -32.001 14s-10.334 19 -11.001 29c-1.33301 13.333 2.33398 24.833 11.001 34.5s20.5 17.5 35.5 23.5s32 10.5 51 13.5s38.167 4.5 57.5 4.5
c34 0 62 -5.5 84 -16.5s39.667 -27.5 53 -49.5c14 20 33.167 36 57.5 48s54.166 18 89.499 18c58.667 0 102.834 -15.167 132.501 -45.5s44.5 -70.833 44.5 -121.5c0 -48 -14.5 -85.667 -43.5 -113s-75.833 -41 -140.5 -41zM578.999 345.998
c0 26 -6.66797 44.666 -20.001 55.999s-32 17 -56 17c-28 0 -49.667 -6.5 -65 -19.5s-23 -30.833 -23 -53.5v-59c16 -1.33301 32.833 -2.66602 50.5 -3.99902s30.834 -2 39.501 -2c15.333 0 27.833 1.83301 37.5 5.5s17.167 8.5 22.5 14.5s9 13 11 21s3 16 3 24z
M306.998 204.997c-14.667 4 -29.666 7.00098 -44.999 9.00098s-29.333 3 -42 3c-17.333 0 -31.5 -1.83301 -42.5 -5.5s-19.5 -8.5 -25.5 -14.5s-10 -13 -12 -21s-3 -16.333 -3 -25v-3c0 -18.667 5.16699 -33.834 15.5 -45.501s29.5 -17.5 57.5 -17.5
c18.667 0 35.667 2.83301 51 8.5s30.666 14.5 45.999 26.5v85z" />
    <glyph glyph-name="ccedilla" unicode="&#xe7;" horiz-adv-x="418" 
d="M353 -123c0 -26 -9.83203 -47.6631 -29.499 -64.9961s-47.5 -26 -83.5 -26c-10 0 -20.833 0.833008 -32.5 2.5s-22.5 4.5 -32.5 8.5s-18.167 9 -24.5 15s-9.5 13.333 -9.5 22s2.66699 14.5 8 17.5s11.666 4.5 18.999 4.5c6.66699 0 16.167 -1 28.5 -3
s25.166 -3 38.499 -3c15.333 0 26.666 3.33301 33.999 10s11 14 11 22c0 10 -5.16699 17 -15.5 21s-21.833 7.33301 -34.5 10s-24.167 6 -34.5 10s-15.5 11 -15.5 21c0 8 0.833008 16.667 2.5 26s3.5 18.333 5.5 27c-24.667 4 -46 11.667 -64 23s-32.833 25 -44.5 41
s-20.334 34.167 -26.001 54.5s-8.5 41.833 -8.5 64.5v143c0 26 3.83301 50.5 11.5 73.5s19.334 42.833 35.001 59.5s35.667 29.834 60 39.501s53.166 14.5 86.499 14.5c13.333 0 28.833 -1 46.5 -3s34.5 -5.83301 50.5 -11.5s29.667 -13.334 41 -23.001
s17 -21.834 17 -36.501c0 -12.667 -4.83301 -22.834 -14.5 -30.501s-22.167 -11.5 -37.5 -11.5c-2.66699 0 -6.66699 0.666992 -12 2l-21 8c-9.33301 3.33301 -18.666 6.5 -27.999 9.5s-20.666 4.5 -33.999 4.5c-34 0 -58 -8.33301 -72 -25s-21 -40 -21 -70v-143
c0 -30 7.16699 -53.5 21.5 -70.5s38.166 -25.5 71.499 -25.5c10.667 0 20.334 1.33301 29.001 4s16.667 5.5 24 8.5s14.666 5.83301 21.999 8.5s15 4 23 4c16.667 0 28.667 -4.33301 36 -13s11 -17.667 11 -27c0 -14 -4.66699 -25.833 -14 -35.5
s-20.833 -17.334 -34.5 -23.001s-28.667 -9.83398 -45 -12.501s-31.5 -4.33398 -45.5 -5.00098c-1.33301 -5.33301 -2.16602 -10.166 -2.49902 -14.499s-0.833008 -9.16602 -1.5 -14.499c38.667 -2 65.834 -10.833 81.501 -26.5s23.5 -35.834 23.5 -60.501z" />
    <glyph glyph-name="egrave" unicode="&#xe8;" horiz-adv-x="460" 
d="M242 197c-14 0 -28.3379 0.499023 -43.0049 1.49902s-30 2.83301 -46 5.5v-46c0 -22.667 7.66699 -40.667 23 -54s39 -20 71 -20c18.667 0 35.334 2.33301 50.001 7s30.334 10.667 47.001 18c1.33301 1.33301 3.83301 2.5 7.5 3.5s8.5 1.5 14.5 1.5
c17.333 0 29.833 -5 37.5 -15s11.5 -20 11.5 -30c0 -15.333 -6.5 -27.833 -19.5 -37.5s-28.667 -17.5 -47 -23.5s-37.666 -10.167 -57.999 -12.5s-37.833 -3.5 -52.5 -3.5c-30.667 0 -58 4.33301 -82 13s-44.167 20.667 -60.5 36s-28.833 33.5 -37.5 54.5s-13 43.5 -13 67.5
v177c0 24.667 4.33301 47.5 13 68.5s21.334 39.167 38.001 54.5s37.334 27.5 62.001 36.5s53 13.5 85 13.5c60.667 0 106 -15.167 136 -45.5s45 -70.5 45 -120.5c0 -47.333 -14.333 -84.166 -43 -110.499s-75 -39.5 -139 -39.5zM316.995 349.999
c0 26.667 -6.5 45.668 -19.5 57.001s-31.833 17 -56.5 17c-28 0 -49.667 -7 -65 -21s-23 -33 -23 -57v-59c17.333 -2 34.5 -3.5 51.5 -4.5s29.167 -1.5 36.5 -1.5c28.667 0 48.5 6.16699 59.5 18.5s16.5 29.166 16.5 50.499zM207.995 707l25.5 -24.501
c9.66699 -9 19 -18.167 28 -27.5s16.667 -18.166 23 -26.499s9.5 -15.5 9.5 -21.5c0 -12.667 -4.16699 -22.834 -12.5 -30.501s-18.166 -11.5 -29.499 -11.5c-8.66699 0 -15.834 1.66699 -21.501 5s-11.5 8.33301 -17.5 15l-75 78c-8.66699 8.66699 -13 18 -13 28
c0 12 4.33301 21.833 13 29.5s17.667 11.5 27 11.5c8.66699 0 15 -1.16699 19 -3.5s8.66699 -6.16602 14 -11.499l10 -10v0z" />
    <glyph glyph-name="eacute" unicode="&#xe9;" horiz-adv-x="460" 
d="M242 197c-14 0 -28.3379 0.499023 -43.0049 1.49902s-30 2.83301 -46 5.5v-46c0 -22.667 7.66699 -40.667 23 -54s39 -20 71 -20c18.667 0 35.334 2.33301 50.001 7s30.334 10.667 47.001 18c1.33301 1.33301 3.83301 2.5 7.5 3.5s8.5 1.5 14.5 1.5
c17.333 0 29.833 -5 37.5 -15s11.5 -20 11.5 -30c0 -15.333 -6.5 -27.833 -19.5 -37.5s-28.667 -17.5 -47 -23.5s-37.666 -10.167 -57.999 -12.5s-37.833 -3.5 -52.5 -3.5c-30.667 0 -58 4.33301 -82 13s-44.167 20.667 -60.5 36s-28.833 33.5 -37.5 54.5s-13 43.5 -13 67.5
v177c0 24.667 4.33301 47.5 13 68.5s21.334 39.167 38.001 54.5s37.334 27.5 62.001 36.5s53 13.5 85 13.5c60.667 0 106 -15.167 136 -45.5s45 -70.5 45 -120.5c0 -47.333 -14.333 -84.166 -43 -110.499s-75 -39.5 -139 -39.5zM316.995 349.999
c0 26.667 -6.5 45.668 -19.5 57.001s-31.833 17 -56.5 17c-28 0 -49.667 -7 -65 -21s-23 -33 -23 -57v-59c17.333 -2 34.5 -3.5 51.5 -4.5s29.167 -1.5 36.5 -1.5c28.667 0 48.5 6.16699 59.5 18.5s16.5 29.166 16.5 50.499zM281.995 717
c5.33301 5.33301 10 9.16699 14 11.5s10.333 3.5 19 3.5c9.33301 0 18.333 -3.83301 27 -11.5s13 -17.5 13 -29.5c0 -10 -4.33301 -19.333 -13 -28l-75 -78c-6 -6.66699 -11.833 -11.667 -17.5 -15s-12.834 -5 -21.501 -5c-11.333 0 -21.166 3.83301 -29.499 11.5
s-12.5 17.834 -12.5 30.501c0 6 3.16699 13.167 9.5 21.5s14 17.166 23 26.499s18.333 18.5 28 27.5l25.5 24.5z" />
    <glyph glyph-name="ecircumflex" unicode="&#xea;" horiz-adv-x="460" 
d="M242 197c-14 0 -28.3379 0.499023 -43.0049 1.49902s-30 2.83301 -46 5.5v-46c0 -22.667 7.66699 -40.667 23 -54s39 -20 71 -20c18.667 0 35.334 2.33301 50.001 7s30.334 10.667 47.001 18c1.33301 1.33301 3.83301 2.5 7.5 3.5s8.5 1.5 14.5 1.5
c17.333 0 29.833 -5 37.5 -15s11.5 -20 11.5 -30c0 -15.333 -6.5 -27.833 -19.5 -37.5s-28.667 -17.5 -47 -23.5s-37.666 -10.167 -57.999 -12.5s-37.833 -3.5 -52.5 -3.5c-30.667 0 -58 4.33301 -82 13s-44.167 20.667 -60.5 36s-28.833 33.5 -37.5 54.5s-13 43.5 -13 67.5
v177c0 24.667 4.33301 47.5 13 68.5s21.334 39.167 38.001 54.5s37.334 27.5 62.001 36.5s53 13.5 85 13.5c60.667 0 106 -15.167 136 -45.5s45 -70.5 45 -120.5c0 -47.333 -14.333 -84.166 -43 -110.499s-75 -39.5 -139 -39.5zM316.995 349.999
c0 26.667 -6.5 45.668 -19.5 57.001s-31.833 17 -56.5 17c-28 0 -49.667 -7 -65 -21s-23 -33 -23 -57v-59c17.333 -2 34.5 -3.5 51.5 -4.5s29.167 -1.5 36.5 -1.5c28.667 0 48.5 6.16699 59.5 18.5s16.5 29.166 16.5 50.499zM234.995 625
c-6.66699 -5.33301 -13.6689 -11.666 -21.002 -18.999s-15 -14.5 -23 -21.5s-15.667 -12.833 -23 -17.5s-14.333 -7 -21 -7c-10 0 -19.667 3.16699 -29 9.5s-14 15.166 -14 26.499c0 8 3.5 16.333 10.5 25s14.167 15.667 21.5 21l69 55c4 3.33301 8.33301 6 13 8
s10.334 3 17.001 3s12.334 -1 17.001 -3s9 -4.66699 13 -8l69 -55c7.33301 -5.33301 14.5 -12.333 21.5 -21s10.5 -17 10.5 -25c0 -11.333 -4.66699 -20.166 -14 -26.499s-19 -9.5 -29 -9.5c-6.66699 0 -13.667 2.33301 -21 7s-15 10.5 -23 17.5s-15.667 14.167 -23 21.5
s-14.333 13.666 -21 18.999z" />
    <glyph glyph-name="edieresis" unicode="&#xeb;" horiz-adv-x="460" 
d="M242 197c-14 0 -28.3379 0.499023 -43.0049 1.49902s-30 2.83301 -46 5.5v-46c0 -22.667 7.66699 -40.667 23 -54s39 -20 71 -20c18.667 0 35.334 2.33301 50.001 7s30.334 10.667 47.001 18c1.33301 1.33301 3.83301 2.5 7.5 3.5s8.5 1.5 14.5 1.5
c17.333 0 29.833 -5 37.5 -15s11.5 -20 11.5 -30c0 -15.333 -6.5 -27.833 -19.5 -37.5s-28.667 -17.5 -47 -23.5s-37.666 -10.167 -57.999 -12.5s-37.833 -3.5 -52.5 -3.5c-30.667 0 -58 4.33301 -82 13s-44.167 20.667 -60.5 36s-28.833 33.5 -37.5 54.5s-13 43.5 -13 67.5
v177c0 24.667 4.33301 47.5 13 68.5s21.334 39.167 38.001 54.5s37.334 27.5 62.001 36.5s53 13.5 85 13.5c60.667 0 106 -15.167 136 -45.5s45 -70.5 45 -120.5c0 -47.333 -14.333 -84.166 -43 -110.499s-75 -39.5 -139 -39.5zM316.995 349.999
c0 26.667 -6.5 45.668 -19.5 57.001s-31.833 17 -56.5 17c-28 0 -49.667 -7 -65 -21s-23 -33 -23 -57v-59c17.333 -2 34.5 -3.5 51.5 -4.5s29.167 -1.5 36.5 -1.5c28.667 0 48.5 6.16699 59.5 18.5s16.5 29.166 16.5 50.499zM372.995 634
c0 -15.333 -5.5 -28.502 -16.5 -39.502s-24.167 -16.5 -39.5 -16.5s-28.666 5.5 -39.999 16.5s-17 24.167 -17 39.5c0 14.667 5.66699 27.334 17 38.001s24.666 16 39.999 16s28.5 -5.16699 39.5 -15.5s16.5 -23.166 16.5 -38.499zM198.995 633.998
c0 -15.333 -5.5 -28.502 -16.5 -39.502s-24.5 -16.5 -40.5 -16.5c-15.333 0 -28.333 5.5 -39 16.5s-16 24.167 -16 39.5c0 14.667 5.33301 27.334 16 38.001s23.667 16 39 16c16 0 29.5 -5.16699 40.5 -15.5s16.5 -23.166 16.5 -38.499z" />
    <glyph glyph-name="igrave" unicode="&#xec;" horiz-adv-x="265" 
d="M96 707l25.5 -24.501c9.66699 -9 19 -18.167 28 -27.5s16.667 -18.166 23 -26.499s9.5 -15.5 9.5 -21.5c0 -12.667 -4.16699 -22.834 -12.5 -30.501s-18.166 -11.5 -29.499 -11.5c-8.66699 0 -15.834 1.66699 -21.501 5s-11.5 8.33301 -17.5 15l-75 78
c-8.66699 8.66699 -13 18 -13 28c0 12 4.33301 21.833 13 29.5s17.667 11.5 27 11.5c8.66699 0 15 -1.16699 19 -3.5s8.66699 -6.16602 14 -11.499l10 -10v0zM186 42.999c0 -14.667 -5.16699 -26.834 -15.5 -36.501s-23.166 -14.5 -38.499 -14.5
s-28.166 4.83301 -38.499 14.5s-15.5 21.834 -15.5 36.501v417c0 13.333 5.16699 25 15.5 35s23.166 15 38.499 15s28.166 -5 38.499 -15s15.5 -21.667 15.5 -35v-417v0z" />
    <glyph glyph-name="iacute" unicode="&#xed;" horiz-adv-x="265" 
d="M182 717c5.33301 5.33301 10 9.16699 14 11.5s10.333 3.5 19 3.5c9.33301 0 18.333 -3.83301 27 -11.5s13 -17.5 13 -29.5c0 -10 -4.33301 -19.333 -13 -28l-75 -78c-6 -6.66699 -11.833 -11.667 -17.5 -15s-12.834 -5 -21.501 -5
c-11.333 0 -21.166 3.83301 -29.499 11.5s-12.5 17.834 -12.5 30.501c0 6 3.16699 13.167 9.5 21.5s14 17.166 23 26.499s18.333 18.5 28 27.5l25.5 24.5zM186 43.001c0 -14.667 -5.16699 -26.834 -15.5 -36.501s-23.166 -14.5 -38.499 -14.5s-28.166 4.83301 -38.499 14.5
s-15.5 21.834 -15.5 36.501v417c0 13.333 5.16699 25 15.5 35s23.166 15 38.499 15s28.166 -5 38.499 -15s15.5 -21.667 15.5 -35v-417v0z" />
    <glyph glyph-name="icircumflex" unicode="&#xee;" horiz-adv-x="265" 
d="M186 43c0 -14.667 -5.16699 -26.834 -15.5 -36.501s-23.166 -14.5 -38.499 -14.5s-28.166 4.83301 -38.499 14.5s-15.5 21.834 -15.5 36.501v417c0 13.333 5.16699 25 15.5 35s23.166 15 38.499 15s28.166 -5 38.499 -15s15.5 -21.667 15.5 -35v-417v0zM134 625
c-6.66699 -5.33301 -13.6689 -11.666 -21.002 -18.999s-15 -14.5 -23 -21.5s-15.667 -12.833 -23 -17.5s-14.333 -7 -21 -7c-10 0 -19.667 3.16699 -29 9.5s-14 15.166 -14 26.499c0 8 3.5 16.333 10.5 25s14.167 15.667 21.5 21l69 55c4 3.33301 8.33301 6 13 8
s10.334 3 17.001 3s12.334 -1 17.001 -3s9 -4.66699 13 -8l69 -55c7.33301 -5.33301 14.5 -12.333 21.5 -21s10.5 -17 10.5 -25c0 -11.333 -4.66699 -20.166 -14 -26.499s-19 -9.5 -29 -9.5c-6.66699 0 -13.667 2.33301 -21 7s-15 10.5 -23 17.5s-15.667 14.167 -23 21.5
s-14.333 13.666 -21 18.999z" />
    <glyph glyph-name="idieresis" unicode="&#xef;" horiz-adv-x="265" 
d="M277 634c0 -15.333 -5.5 -28.502 -16.5 -39.502s-24.167 -16.5 -39.5 -16.5s-28.666 5.5 -39.999 16.5s-17 24.167 -17 39.5c0 14.667 5.66699 27.334 17 38.001s24.666 16 39.999 16s28.5 -5.16699 39.5 -15.5s16.5 -23.166 16.5 -38.499zM103 633.998
c0 -15.333 -5.5 -28.502 -16.5 -39.502s-24.5 -16.5 -40.5 -16.5c-15.333 0 -28.333 5.5 -39 16.5s-16 24.167 -16 39.5c0 14.667 5.33301 27.334 16 38.001s23.667 16 39 16c16 0 29.5 -5.16699 40.5 -15.5s16.5 -23.166 16.5 -38.499zM186 42.9961
c0 -14.667 -5.16699 -26.834 -15.5 -36.501s-23.166 -14.5 -38.499 -14.5s-28.166 4.83301 -38.499 14.5s-15.5 21.834 -15.5 36.501v417c0 13.333 5.16699 25 15.5 35s23.166 15 38.499 15s28.166 -5 38.499 -15s15.5 -21.667 15.5 -35v-417v0z" />
    <glyph glyph-name="eth" unicode="&#xf0;" horiz-adv-x="537" 
d="M516 663c1.33301 -1.33301 1.99512 -3.66504 1.99512 -6.99805c0 -12.667 -4.66699 -21.667 -14 -27l-59 -39c14.667 -32 26 -70.167 34 -114.5s12 -95.833 12 -154.5c0 -66.667 -5 -121.334 -15 -164.001s-24.333 -76.334 -43 -101.001s-41.334 -41.834 -68.001 -51.501
s-56.667 -14.5 -90 -14.5c-40.667 0 -75.5 5.66699 -104.5 17s-53 27 -72 47s-33 43.5 -42 70.5s-13.5 56.5 -13.5 88.5c0 31.333 4.33301 60.833 13 88.5s21.334 51.667 38.001 72s37.5 36.5 62.5 48.5s54.167 18 87.5 18c17.333 0 38.333 -2.5 63 -7.5
s48.334 -15.167 71.001 -30.5c-1.33301 28 -3.5 52.333 -6.5 73s-7.16699 38.667 -12.5 54l-51 -31c-5.33301 -4 -10 -6.66699 -14 -8s-7.33301 -2 -10 -2c-7.33301 -1.33301 -14.666 1.5 -21.999 8.5s-10.666 15.167 -9.99902 24.5c0 5.33301 1 10.5 3 15.5
s5.66699 9.16699 11 12.5l59 38c-12.667 12 -26.334 20 -41.001 24s-29 6.66699 -43 8c-4.66699 0 -9.66699 0.5 -15 1.5s-10 3 -14 6s-7.16699 7.5 -9.5 13.5s-3.16602 14.333 -2.49902 25c1.33301 14.667 6.33301 25.5 15 32.5s27 10.5 55 10.5c56.667 0 103 -21 139 -63
l52 35c7.33301 5.33301 15.333 8.33301 24 9c6.66699 0 11.834 -1.16699 15.501 -3.5s6.5 -5.16602 8.5 -8.49902c2.66699 -3.33301 4.33398 -7.33301 5.00098 -12zM380.995 299.001c-8 6.66699 -17.3291 12.835 -27.9961 18.502s-21.834 10.5 -33.501 14.5
s-23.5 7.16699 -35.5 9.5s-23 3.5 -33 3.5c-32 0 -56.667 -11.167 -74 -33.5s-26 -53.5 -26 -93.5c0 -18.667 2.16699 -36 6.5 -52s11.166 -29.833 20.499 -41.5s21.666 -20.834 36.999 -27.501s33.666 -10 54.999 -10c42 0 71 15.167 87 45.5s24 79.166 24 146.499v20z" />
    <glyph glyph-name="ntilde" unicode="&#xf1;" horiz-adv-x="529" 
d="M180 43c0 -14 -4.50391 -25.834 -13.5039 -35.501s-22.5 -14.5 -40.5 -14.5s-31.5 4.83301 -40.5 14.5s-13.5 21.5 -13.5 35.5v321c0 10.667 -0.333008 19.167 -1 25.5s-1.66699 11.333 -3 15s-2.83301 6.5 -4.5 8.5s-3.16699 4.33301 -4.5 7c-4 6 -7 11 -9 15
s-3 9 -3 15c0 13.333 4.83301 24.333 14.5 33s22.167 13 37.5 13c18.667 0 34.334 -9.66699 47.001 -29c22.667 15.333 45.834 26.5 69.501 33.5s46.5 10.5 68.5 10.5c58 0 101.5 -17.667 130.5 -53s43.5 -81.666 43.5 -138.999v-276c0 -14 -4.66699 -25.833 -14 -35.5
s-22.666 -14.5 -39.999 -14.5s-30.666 4.83301 -39.999 14.5s-14 21.5 -14 35.5v276c0 32 -6.83301 56.667 -20.5 74s-33.167 26 -58.5 26c-28.667 0 -60 -10.333 -94 -31c2 -9.33301 3 -17.333 3 -24v-321zM398.996 645.999c0 -9.33301 -2.66895 -18 -8.00195 -26
s-12.333 -15 -21 -21s-18 -10.833 -28 -14.5s-19.667 -5.5 -29 -5.5c-12 0 -22.833 1.66699 -32.5 5s-18.667 7.16602 -27 11.499l-24 12.5c-7.66699 4 -15.167 6.33301 -22.5 7c-8 0.666992 -14.667 -0.666016 -20 -3.99902s-10.166 -7 -14.499 -11
s-8.66602 -7.66699 -12.999 -11s-9.83301 -5 -16.5 -5c-9.33301 0 -18 3 -26 9s-12 14.333 -12 25c0 20.667 8.66699 37.834 26 51.501s37 20.5 59 20.5c12 0 22.833 -1.83301 32.5 -5.5s18.667 -7.66699 27 -12l23.5 -12c7.33301 -3.66699 15 -5.83398 23 -6.50098
c8.66699 0 15.5 1.66699 20.5 5s9.5 7 13.5 11s8 7.66699 12 11s9.66699 5 17 5c10.667 0 20 -3.83301 28 -11.5s12 -17.167 12 -28.5z" />
    <glyph glyph-name="ograve" unicode="&#xf2;" horiz-adv-x="494" 
d="M247 -8c-33.333 0 -62.5 4.66699 -87.5 14s-46 22.166 -63 38.499s-29.833 35.666 -38.5 57.999s-13 46.166 -13 71.499v158c0 26 4.33301 50 13 72s21.5 41.167 38.5 57.5s38 29.166 63 38.499s54.167 14 87.5 14c32.667 0 61.667 -4.66699 87 -14
s46.5 -22.166 63.5 -38.499s29.833 -35.5 38.5 -57.5s13 -46 13 -72v-158c0 -25.333 -4.33301 -49.166 -13 -71.499s-21.5 -41.666 -38.5 -57.999s-38.167 -29.166 -63.5 -38.499s-54.333 -14 -87 -14zM247 87c31.333 0 54.833 7.66699 70.5 23s23.5 36.666 23.5 63.999v159
c0 26.667 -7.83301 47.667 -23.5 63s-39.167 23 -70.5 23s-54.833 -7.66699 -70.5 -23s-23.5 -36.333 -23.5 -63v-159c0 -27.333 7.83301 -48.666 23.5 -63.999s39.167 -23 70.5 -23zM215 707l25.5 -24.501c9.66699 -9 19 -18.167 28 -27.5s16.667 -18.166 23 -26.499
s9.5 -15.5 9.5 -21.5c0 -12.667 -4.16699 -22.834 -12.5 -30.501s-18.166 -11.5 -29.499 -11.5c-8.66699 0 -15.834 1.66699 -21.501 5s-11.5 8.33301 -17.5 15l-75 78c-8.66699 8.66699 -13 18 -13 28c0 12 4.33301 21.833 13 29.5s17.667 11.5 27 11.5
c8.66699 0 15 -1.16699 19 -3.5s8.66699 -6.16602 14 -11.499l10 -10v0z" />
    <glyph glyph-name="oacute" unicode="&#xf3;" horiz-adv-x="494" 
d="M247 -8c-33.333 0 -62.5 4.66699 -87.5 14s-46 22.166 -63 38.499s-29.833 35.666 -38.5 57.999s-13 46.166 -13 71.499v158c0 26 4.33301 50 13 72s21.5 41.167 38.5 57.5s38 29.166 63 38.499s54.167 14 87.5 14c32.667 0 61.667 -4.66699 87 -14
s46.5 -22.166 63.5 -38.499s29.833 -35.5 38.5 -57.5s13 -46 13 -72v-158c0 -25.333 -4.33301 -49.166 -13 -71.499s-21.5 -41.666 -38.5 -57.999s-38.167 -29.166 -63.5 -38.499s-54.333 -14 -87 -14zM247 87c31.333 0 54.833 7.66699 70.5 23s23.5 36.666 23.5 63.999v159
c0 26.667 -7.83301 47.667 -23.5 63s-39.167 23 -70.5 23s-54.833 -7.66699 -70.5 -23s-23.5 -36.333 -23.5 -63v-159c0 -27.333 7.83301 -48.666 23.5 -63.999s39.167 -23 70.5 -23zM277 717c5.33301 5.33301 10 9.16699 14 11.5s10.333 3.5 19 3.5
c9.33301 0 18.333 -3.83301 27 -11.5s13 -17.5 13 -29.5c0 -10 -4.33301 -19.333 -13 -28l-75 -78c-6 -6.66699 -11.833 -11.667 -17.5 -15s-12.834 -5 -21.501 -5c-11.333 0 -21.166 3.83301 -29.499 11.5s-12.5 17.834 -12.5 30.501c0 6 3.16699 13.167 9.5 21.5
s14 17.166 23 26.499s18.333 18.5 28 27.5l25.5 24.5z" />
    <glyph glyph-name="ocircumflex" unicode="&#xf4;" horiz-adv-x="494" 
d="M247 -8c-33.333 0 -62.5 4.66699 -87.5 14s-46 22.166 -63 38.499s-29.833 35.666 -38.5 57.999s-13 46.166 -13 71.499v158c0 26 4.33301 50 13 72s21.5 41.167 38.5 57.5s38 29.166 63 38.499s54.167 14 87.5 14c32.667 0 61.667 -4.66699 87 -14
s46.5 -22.166 63.5 -38.499s29.833 -35.5 38.5 -57.5s13 -46 13 -72v-158c0 -25.333 -4.33301 -49.166 -13 -71.499s-21.5 -41.666 -38.5 -57.999s-38.167 -29.166 -63.5 -38.499s-54.333 -14 -87 -14zM247 87c31.333 0 54.833 7.66699 70.5 23s23.5 36.666 23.5 63.999v159
c0 26.667 -7.83301 47.667 -23.5 63s-39.167 23 -70.5 23s-54.833 -7.66699 -70.5 -23s-23.5 -36.333 -23.5 -63v-159c0 -27.333 7.83301 -48.666 23.5 -63.999s39.167 -23 70.5 -23zM247 625c-6.66699 -5.33301 -13.6689 -11.666 -21.002 -18.999s-15 -14.5 -23 -21.5
s-15.667 -12.833 -23 -17.5s-14.333 -7 -21 -7c-10 0 -19.667 3.16699 -29 9.5s-14 15.166 -14 26.499c0 8 3.5 16.333 10.5 25s14.167 15.667 21.5 21l69 55c4 3.33301 8.33301 6 13 8s10.334 3 17.001 3s12.334 -1 17.001 -3s9 -4.66699 13 -8l69 -55
c7.33301 -5.33301 14.5 -12.333 21.5 -21s10.5 -17 10.5 -25c0 -11.333 -4.66699 -20.166 -14 -26.499s-19 -9.5 -29 -9.5c-6.66699 0 -13.667 2.33301 -21 7s-15 10.5 -23 17.5s-15.667 14.167 -23 21.5s-14.333 13.666 -21 18.999z" />
    <glyph glyph-name="otilde" unicode="&#xf5;" horiz-adv-x="494" 
d="M247 -8c-33.333 0 -62.5 4.66699 -87.5 14s-46 22.166 -63 38.499s-29.833 35.666 -38.5 57.999s-13 46.166 -13 71.499v158c0 26 4.33301 50 13 72s21.5 41.167 38.5 57.5s38 29.166 63 38.499s54.167 14 87.5 14c32.667 0 61.667 -4.66699 87 -14
s46.5 -22.166 63.5 -38.499s29.833 -35.5 38.5 -57.5s13 -46 13 -72v-158c0 -25.333 -4.33301 -49.166 -13 -71.499s-21.5 -41.666 -38.5 -57.999s-38.167 -29.166 -63.5 -38.499s-54.333 -14 -87 -14zM247 87c31.333 0 54.833 7.66699 70.5 23s23.5 36.666 23.5 63.999v159
c0 26.667 -7.83301 47.667 -23.5 63s-39.167 23 -70.5 23s-54.833 -7.66699 -70.5 -23s-23.5 -36.333 -23.5 -63v-159c0 -27.333 7.83301 -48.666 23.5 -63.999s39.167 -23 70.5 -23zM394 646c0 -9.33301 -2.66895 -18 -8.00195 -26s-12.333 -15 -21 -21
s-18 -10.833 -28 -14.5s-19.667 -5.5 -29 -5.5c-12 0 -22.833 1.66699 -32.5 5s-18.667 7.16602 -27 11.499l-24 12.5c-7.66699 4 -15.167 6.33301 -22.5 7c-8 0.666992 -14.667 -0.666016 -20 -3.99902s-10.166 -7 -14.499 -11s-8.66602 -7.66699 -12.999 -11
s-9.83301 -5 -16.5 -5c-9.33301 0 -18 3 -26 9s-12 14.333 -12 25c0 20.667 8.66699 37.834 26 51.501s37 20.5 59 20.5c12 0 22.833 -1.83301 32.5 -5.5s18.667 -7.66699 27 -12l23.5 -12c7.33301 -3.66699 15 -5.83398 23 -6.50098c8.66699 0 15.5 1.66699 20.5 5
s9.5 7 13.5 11s8 7.66699 12 11s9.66699 5 17 5c10.667 0 20 -3.83301 28 -11.5s12 -17.167 12 -28.5z" />
    <glyph glyph-name="odieresis" unicode="&#xf6;" horiz-adv-x="494" 
d="M247 -8c-33.333 0 -62.5 4.66699 -87.5 14s-46 22.166 -63 38.499s-29.833 35.666 -38.5 57.999s-13 46.166 -13 71.499v158c0 26 4.33301 50 13 72s21.5 41.167 38.5 57.5s38 29.166 63 38.499s54.167 14 87.5 14c32.667 0 61.667 -4.66699 87 -14
s46.5 -22.166 63.5 -38.499s29.833 -35.5 38.5 -57.5s13 -46 13 -72v-158c0 -25.333 -4.33301 -49.166 -13 -71.499s-21.5 -41.666 -38.5 -57.999s-38.167 -29.166 -63.5 -38.499s-54.333 -14 -87 -14zM247 87c31.333 0 54.833 7.66699 70.5 23s23.5 36.666 23.5 63.999v159
c0 26.667 -7.83301 47.667 -23.5 63s-39.167 23 -70.5 23s-54.833 -7.66699 -70.5 -23s-23.5 -36.333 -23.5 -63v-159c0 -27.333 7.83301 -48.666 23.5 -63.999s39.167 -23 70.5 -23zM389 634c0 -15.333 -5.5 -28.502 -16.5 -39.502s-24.167 -16.5 -39.5 -16.5
s-28.666 5.5 -39.999 16.5s-17 24.167 -17 39.5c0 14.667 5.66699 27.334 17 38.001s24.666 16 39.999 16s28.5 -5.16699 39.5 -15.5s16.5 -23.166 16.5 -38.499zM215 633.998c0 -15.333 -5.5 -28.502 -16.5 -39.502s-24.5 -16.5 -40.5 -16.5
c-15.333 0 -28.333 5.5 -39 16.5s-16 24.167 -16 39.5c0 14.667 5.33301 27.334 16 38.001s23.667 16 39 16c16 0 29.5 -5.16699 40.5 -15.5s16.5 -23.166 16.5 -38.499z" />
    <glyph glyph-name="oslash" unicode="&#xf8;" horiz-adv-x="494" 
d="M83 61c-13.333 15.333 -23 32.668 -29 52.001s-9 39.666 -9 60.999v158c0 26 4.33301 50 13 72s21.5 41.167 38.5 57.5s38 29.166 63 38.499s54.167 14 87.5 14c26.667 0 50.667 -3 72 -9s40 -14.667 56 -26l25 35c5.33301 7.33301 12.333 11 21 11
c7.33301 0 13.666 -2.83301 18.999 -8.5s8 -11.5 8 -17.5c0 -4.66699 -1.66699 -9.66699 -5 -15l-30 -42c24 -31.333 36 -68 36 -110v-158c0 -25.333 -4.33301 -49 -13 -71s-21.5 -41.167 -38.5 -57.5s-38.167 -29.166 -63.5 -38.499s-54.333 -14 -87 -14
c-50.667 0 -92.667 10.667 -126 32l-23 -34c-5.33301 -7.33301 -12.666 -11 -21.999 -11c-7.33301 0 -13.5 2.66699 -18.5 8s-7.5 11.333 -7.5 18c0 4.66699 1.66699 9.66699 5 15zM153 176.002c4 -1.33301 6.99902 -2 8.99902 -2l77.5 111l77.5 110
c-17.333 16 -40.666 24 -69.999 24c-31.333 0 -54.833 -7.66699 -70.5 -23s-23.5 -36.333 -23.5 -63v-157zM246.999 87.002c31.333 0 54.833 7.66797 70.5 23.001s23.5 36.666 23.5 63.999v139v12c0 4 -0.333008 8 -1 12l-161 -229c16 -14 38.667 -21 68 -21z" />
    <glyph glyph-name="ugrave" unicode="&#xf9;" horiz-adv-x="529" 
d="M381 32c-22.667 -14.667 -45.833 -25.001 -69.5 -31.001s-47.167 -9 -70.5 -9c-28 0 -52.833 4.66699 -74.5 14s-39.667 22.5 -54 39.5s-25.166 37.333 -32.499 61s-11 49.834 -11 78.501v276c0 14 4.66699 25.667 14 35s22.666 14 39.999 14s30.666 -4.66699 39.999 -14
s14 -21 14 -35v-276c0 -32 6.5 -56.667 19.5 -74s32.5 -26 58.5 -26c15.333 0 30.833 2.33301 46.5 7s31.5 11.334 47.5 20.001c-0.666992 4.66699 -1.16699 9 -1.5 13s-0.5 7.66699 -0.5 11v325c0 14 4.5 25.667 13.5 35s22.5 14 40.5 14s31.5 -4.66699 40.5 -14
s13.5 -21 13.5 -35v-335c0 -17.333 1.66699 -28.833 5 -34.5s7.66602 -11.834 12.999 -18.501c3.33301 -3.33301 6 -7.16602 8 -11.499s3 -9.5 3 -15.5c0 -14.667 -5.16699 -26.334 -15.5 -35.001s-22.166 -13 -35.499 -13c-11.333 0 -21.166 3.16699 -29.499 9.5
s-15.833 14.5 -22.5 24.5zM224.001 706.999l25.5 -24.501c9.66699 -9 19 -18.167 28 -27.5s16.667 -18.166 23 -26.499s9.5 -15.5 9.5 -21.5c0 -12.667 -4.16699 -22.834 -12.5 -30.501s-18.166 -11.5 -29.499 -11.5c-8.66699 0 -15.834 1.66699 -21.501 5
s-11.5 8.33301 -17.5 15l-75 78c-8.66699 8.66699 -13 18 -13 28c0 12 4.33301 21.833 13 29.5s17.667 11.5 27 11.5c8.66699 0 15 -1.16699 19 -3.5s8.66699 -6.16602 14 -11.499l10 -10v0z" />
    <glyph glyph-name="uacute" unicode="&#xfa;" horiz-adv-x="529" 
d="M381 32c-22.667 -14.667 -45.833 -25.001 -69.5 -31.001s-47.167 -9 -70.5 -9c-28 0 -52.833 4.66699 -74.5 14s-39.667 22.5 -54 39.5s-25.166 37.333 -32.499 61s-11 49.834 -11 78.501v276c0 14 4.66699 25.667 14 35s22.666 14 39.999 14s30.666 -4.66699 39.999 -14
s14 -21 14 -35v-276c0 -32 6.5 -56.667 19.5 -74s32.5 -26 58.5 -26c15.333 0 30.833 2.33301 46.5 7s31.5 11.334 47.5 20.001c-0.666992 4.66699 -1.16699 9 -1.5 13s-0.5 7.66699 -0.5 11v325c0 14 4.5 25.667 13.5 35s22.5 14 40.5 14s31.5 -4.66699 40.5 -14
s13.5 -21 13.5 -35v-335c0 -17.333 1.66699 -28.833 5 -34.5s7.66602 -11.834 12.999 -18.501c3.33301 -3.33301 6 -7.16602 8 -11.499s3 -9.5 3 -15.5c0 -14.667 -5.16699 -26.334 -15.5 -35.001s-22.166 -13 -35.499 -13c-11.333 0 -21.166 3.16699 -29.499 9.5
s-15.833 14.5 -22.5 24.5zM313.001 716.999c5.33301 5.33301 10 9.16699 14 11.5s10.333 3.5 19 3.5c9.33301 0 18.333 -3.83301 27 -11.5s13 -17.5 13 -29.5c0 -10 -4.33301 -19.333 -13 -28l-75 -78c-6 -6.66699 -11.833 -11.667 -17.5 -15s-12.834 -5 -21.501 -5
c-11.333 0 -21.166 3.83301 -29.499 11.5s-12.5 17.834 -12.5 30.501c0 6 3.16699 13.167 9.5 21.5s14 17.166 23 26.499s18.333 18.5 28 27.5l25.5 24.5z" />
    <glyph glyph-name="ucircumflex" unicode="&#xfb;" horiz-adv-x="529" 
d="M381 32c-22.667 -14.667 -45.833 -25.001 -69.5 -31.001s-47.167 -9 -70.5 -9c-28 0 -52.833 4.66699 -74.5 14s-39.667 22.5 -54 39.5s-25.166 37.333 -32.499 61s-11 49.834 -11 78.501v276c0 14 4.66699 25.667 14 35s22.666 14 39.999 14s30.666 -4.66699 39.999 -14
s14 -21 14 -35v-276c0 -32 6.5 -56.667 19.5 -74s32.5 -26 58.5 -26c15.333 0 30.833 2.33301 46.5 7s31.5 11.334 47.5 20.001c-0.666992 4.66699 -1.16699 9 -1.5 13s-0.5 7.66699 -0.5 11v325c0 14 4.5 25.667 13.5 35s22.5 14 40.5 14s31.5 -4.66699 40.5 -14
s13.5 -21 13.5 -35v-335c0 -17.333 1.66699 -28.833 5 -34.5s7.66602 -11.834 12.999 -18.501c3.33301 -3.33301 6 -7.16602 8 -11.499s3 -9.5 3 -15.5c0 -14.667 -5.16699 -26.334 -15.5 -35.001s-22.166 -13 -35.499 -13c-11.333 0 -21.166 3.16699 -29.499 9.5
s-15.833 14.5 -22.5 24.5zM264.001 624.999c-6.66699 -5.33301 -13.6689 -11.666 -21.002 -18.999s-15 -14.5 -23 -21.5s-15.667 -12.833 -23 -17.5s-14.333 -7 -21 -7c-10 0 -19.667 3.16699 -29 9.5s-14 15.166 -14 26.499c0 8 3.5 16.333 10.5 25s14.167 15.667 21.5 21
l69 55c4 3.33301 8.33301 6 13 8s10.334 3 17.001 3s12.334 -1 17.001 -3s9 -4.66699 13 -8l69 -55c7.33301 -5.33301 14.5 -12.333 21.5 -21s10.5 -17 10.5 -25c0 -11.333 -4.66699 -20.166 -14 -26.499s-19 -9.5 -29 -9.5c-6.66699 0 -13.667 2.33301 -21 7
s-15 10.5 -23 17.5s-15.667 14.167 -23 21.5s-14.333 13.666 -21 18.999z" />
    <glyph glyph-name="udieresis" unicode="&#xfc;" horiz-adv-x="529" 
d="M381 32c-22.667 -14.667 -45.833 -25.001 -69.5 -31.001s-47.167 -9 -70.5 -9c-28 0 -52.833 4.66699 -74.5 14s-39.667 22.5 -54 39.5s-25.166 37.333 -32.499 61s-11 49.834 -11 78.501v276c0 14 4.66699 25.667 14 35s22.666 14 39.999 14s30.666 -4.66699 39.999 -14
s14 -21 14 -35v-276c0 -32 6.5 -56.667 19.5 -74s32.5 -26 58.5 -26c15.333 0 30.833 2.33301 46.5 7s31.5 11.334 47.5 20.001c-0.666992 4.66699 -1.16699 9 -1.5 13s-0.5 7.66699 -0.5 11v325c0 14 4.5 25.667 13.5 35s22.5 14 40.5 14s31.5 -4.66699 40.5 -14
s13.5 -21 13.5 -35v-335c0 -17.333 1.66699 -28.833 5 -34.5s7.66602 -11.834 12.999 -18.501c3.33301 -3.33301 6 -7.16602 8 -11.499s3 -9.5 3 -15.5c0 -14.667 -5.16699 -26.334 -15.5 -35.001s-22.166 -13 -35.499 -13c-11.333 0 -21.166 3.16699 -29.499 9.5
s-15.833 14.5 -22.5 24.5zM407.001 633.999c0 -15.333 -5.5 -28.502 -16.5 -39.502s-24.167 -16.5 -39.5 -16.5s-28.666 5.5 -39.999 16.5s-17 24.167 -17 39.5c0 14.667 5.66699 27.334 17 38.001s24.666 16 39.999 16s28.5 -5.16699 39.5 -15.5s16.5 -23.166 16.5 -38.499
zM233.001 633.997c0 -15.333 -5.5 -28.502 -16.5 -39.502s-24.5 -16.5 -40.5 -16.5c-15.333 0 -28.333 5.5 -39 16.5s-16 24.167 -16 39.5c0 14.667 5.33301 27.334 16 38.001s23.667 16 39 16c16 0 29.5 -5.16699 40.5 -15.5s16.5 -23.166 16.5 -38.499z" />
    <glyph glyph-name="yacute" unicode="&#xfd;" horiz-adv-x="443" 
d="M304 69c-12.667 -39.333 -25.1631 -75.667 -37.4961 -109s-26.833 -62 -43.5 -86s-36.834 -42.833 -60.501 -56.5s-53.167 -20.5 -88.5 -20.5c-16 0 -29.167 4.66699 -39.5 14s-15.5 21 -15.5 35c0 12 4.5 22.833 13.5 32.5s21.5 15.167 37.5 16.5
c26.667 0 47.5 9.5 62.5 28.5s29.5 49.5 43.5 91.5l-157 428c-1.33301 3.33301 -2.16602 6.83301 -2.49902 10.5s-0.5 6.83398 -0.5 9.50098c0 13.333 5.16699 24.5 15.5 33.5s23.166 13.5 38.499 13.5c10 0 19.667 -2.83301 29 -8.5s16 -14.167 20 -25.5l9 -27l51 -151
l50 -153l46 166.5c15.333 54.333 31.666 109.166 48.999 164.499c3.33301 11.333 10.166 19.833 20.499 25.5s20.5 8.5 30.5 8.5c13.333 0 25.666 -4.5 36.999 -13.5s17 -21.167 17 -36.5c0 -5.33301 -1 -10.333 -3 -15zM276.004 716.999
c5.33301 5.33301 10 9.16699 14 11.5s10.333 3.5 19 3.5c9.33301 0 18.333 -3.83301 27 -11.5s13 -17.5 13 -29.5c0 -10 -4.33301 -19.333 -13 -28l-75 -78c-6 -6.66699 -11.833 -11.667 -17.5 -15s-12.834 -5 -21.501 -5c-11.333 0 -21.166 3.83301 -29.499 11.5
s-12.5 17.834 -12.5 30.501c0 6 3.16699 13.167 9.5 21.5s14 17.166 23 26.499s18.333 18.5 28 27.5l25.5 24.5z" />
    <glyph glyph-name="thorn" unicode="&#xfe;" horiz-adv-x="510" 
d="M177 138c24.667 -26 57 -39.001 97 -39.001c29.333 0 50.5 6.33301 63.5 19s19.5 30.667 19.5 54v183c0 22.667 -6.5 40.334 -19.5 53.001s-34.167 19 -63.5 19c-40 0 -72.333 -13 -97 -39v-250zM69 673.999c0 13.333 4.66699 24.833 14 34.5s22.666 14.5 39.999 14.5
s30.666 -4.83301 39.999 -14.5s14 -21.167 14 -34.5v-195c17.333 11.333 35.5 19.833 54.5 25.5s41.167 8.5 66.5 8.5c30 0 55.5 -4.16699 76.5 -12.5s38.333 -19.666 52 -33.999s23.5 -31.333 29.5 -51s9 -40.834 9 -63.501v-178c0 -22.667 -3 -43.834 -9 -63.501
s-15.833 -36.667 -29.5 -51s-31 -25.666 -52 -33.999s-46.5 -12.5 -76.5 -12.5c-25.333 0 -47.5 3 -66.5 9s-37.167 14.667 -54.5 26v-215c0 -13.333 -4.66699 -25 -14 -35s-22.666 -15 -39.999 -15s-30.666 5 -39.999 15s-14 21.667 -14 35v841z" />
    <glyph glyph-name="ydieresis" unicode="&#xff;" horiz-adv-x="443" 
d="M304 69c-12.667 -39.333 -25.1631 -75.667 -37.4961 -109s-26.833 -62 -43.5 -86s-36.834 -42.833 -60.501 -56.5s-53.167 -20.5 -88.5 -20.5c-16 0 -29.167 4.66699 -39.5 14s-15.5 21 -15.5 35c0 12 4.5 22.833 13.5 32.5s21.5 15.167 37.5 16.5
c26.667 0 47.5 9.5 62.5 28.5s29.5 49.5 43.5 91.5l-157 428c-1.33301 3.33301 -2.16602 6.83301 -2.49902 10.5s-0.5 6.83398 -0.5 9.50098c0 13.333 5.16699 24.5 15.5 33.5s23.166 13.5 38.499 13.5c10 0 19.667 -2.83301 29 -8.5s16 -14.167 20 -25.5l9 -27l51 -151
l50 -153l46 166.5c15.333 54.333 31.666 109.166 48.999 164.499c3.33301 11.333 10.166 19.833 20.499 25.5s20.5 8.5 30.5 8.5c13.333 0 25.666 -4.5 36.999 -13.5s17 -21.167 17 -36.5c0 -5.33301 -1 -10.333 -3 -15zM364.004 633.999
c0 -15.333 -5.5 -28.502 -16.5 -39.502s-24.167 -16.5 -39.5 -16.5s-28.666 5.5 -39.999 16.5s-17 24.167 -17 39.5c0 14.667 5.66699 27.334 17 38.001s24.666 16 39.999 16s28.5 -5.16699 39.5 -15.5s16.5 -23.166 16.5 -38.499zM190.004 633.997
c0 -15.333 -5.5 -28.502 -16.5 -39.502s-24.5 -16.5 -40.5 -16.5c-15.333 0 -28.333 5.5 -39 16.5s-16 24.167 -16 39.5c0 14.667 5.33301 27.334 16 38.001s23.667 16 39 16c16 0 29.5 -5.16699 40.5 -15.5s16.5 -23.166 16.5 -38.499z" />
    <glyph glyph-name="Amacron" unicode="&#x100;" horiz-adv-x="569" 
d="M129 29c-3.33301 -12 -10.5 -21.333 -21.5 -28s-21.167 -10 -30.5 -10c-15.333 0 -28.666 4.66699 -39.999 14s-17 21.666 -17 36.999c0 2.66699 0.166992 6 0.5 10s0.833008 7 1.5 9l195 593c5.33301 17.333 13 31.666 23 42.999s24.667 17 44 17
s33.833 -5.66699 43.5 -17s17.5 -25.666 23.5 -42.999l195 -593c1.33301 -2 2.16602 -5 2.49902 -9s0.5 -7.33301 0.5 -10c0 -15.333 -5.5 -27.666 -16.5 -36.999s-24.5 -14 -40.5 -14c-18 0 -31 5.66699 -39 17s-15.333 26 -22 44l-32 97h-233zM284 549
c-12.667 -53.333 -26.499 -104.667 -41.499 -154l-45.5 -150h173l-46.5 151c-15.667 50 -28.834 101 -39.501 153zM460.001 832.999c0 -12 -4.5 -22.167 -13.5 -30.5s-19.833 -12.5 -32.5 -12.5h-259c-13.333 0 -24.5 4.16699 -33.5 12.5s-13.5 18.5 -13.5 30.5
s4.5 22.333 13.5 31s20.167 13 33.5 13h259c12.667 0 23.5 -4.33301 32.5 -13s13.5 -19 13.5 -31z" />
    <glyph glyph-name="amacron" unicode="&#x101;" horiz-adv-x="502" 
d="M317 333c0 58.667 -30.666 88.0029 -91.999 88.0029c-13.333 0 -24.333 -1.33301 -33 -4s-17.334 -5.66699 -26.001 -9l-19 -8c-6.66699 -3.33301 -15.334 -5 -26.001 -5c-14.667 0 -25.167 4.66699 -31.5 14s-9.5 19.333 -9.5 30c0 13.333 4.33301 24.666 13 33.999
s20.334 17 35.001 23s31.334 10.333 50.001 13s37.667 4 57 4c68 0 116.667 -17.333 146 -52s44 -85.334 44 -152.001v-203c0 -12.667 2.33301 -20.834 7 -24.501s10.667 -6.16699 18 -7.5c20 -4 30 -16 30 -36c0 -28 -19.667 -42 -59 -42c-34.667 0 -61.334 15 -80.001 45
c-37.333 -32 -82.666 -48 -135.999 -48c-54.667 0 -95.834 14 -123.501 42s-41.5 65.333 -41.5 112v3c0 100.667 62.333 151 187 151c30.667 0 60.667 -4 90 -12v44zM230.001 219.003c-17.333 0 -31.498 -1.83301 -42.498 -5.5s-19.5 -8.66699 -25.5 -15
s-10 -13.833 -12 -22.5s-3 -17.667 -3 -27v-3c0 -20 5.5 -35.5 16.5 -46.5s30.5 -16.5 58.5 -16.5c17.333 0 33.666 2.66699 48.999 8s30.666 14.333 45.999 27v90c-14.667 3.33301 -29.667 6 -45 8s-29.333 3 -42 3zM415.003 633.003c0 -12 -4.5 -22.167 -13.5 -30.5
s-19.833 -12.5 -32.5 -12.5h-259c-13.333 0 -24.5 4.16699 -33.5 12.5s-13.5 18.5 -13.5 30.5s4.5 22.333 13.5 31s20.167 13 33.5 13h259c12.667 0 23.5 -4.33301 32.5 -13s13.5 -19 13.5 -31z" />
    <glyph glyph-name="Abreve" unicode="&#x102;" horiz-adv-x="569" 
d="M129 29c-3.33301 -12 -10.5 -21.333 -21.5 -28s-21.167 -10 -30.5 -10c-15.333 0 -28.666 4.66699 -39.999 14s-17 21.666 -17 36.999c0 2.66699 0.166992 6 0.5 10s0.833008 7 1.5 9l195 593c5.33301 17.333 13 31.666 23 42.999s24.667 17 44 17
s33.833 -5.66699 43.5 -17s17.5 -25.666 23.5 -42.999l195 -593c1.33301 -2 2.16602 -5 2.49902 -9s0.5 -7.33301 0.5 -10c0 -15.333 -5.5 -27.666 -16.5 -36.999s-24.5 -14 -40.5 -14c-18 0 -31 5.66699 -39 17s-15.333 26 -22 44l-32 97h-233zM284 549
c-12.667 -53.333 -26.499 -104.667 -41.499 -154l-45.5 -150h173l-46.5 151c-15.667 50 -28.834 101 -39.501 153zM284.001 838.999c15.333 0 27.667 3.66797 37 11.001s17.666 15.666 24.999 24.999c5.33301 6 10.666 10.667 15.999 14s12.333 5 21 5
c10.667 0 20.334 -3.33301 29.001 -10s11 -18.667 7 -36c-3.33301 -14 -10 -26.333 -20 -37s-21.5 -19.667 -34.5 -27s-26.833 -12.833 -41.5 -16.5s-28 -5.5 -40 -5.5c-13.333 0 -27.166 2 -41.499 6s-28 9.83301 -41 17.5s-24.333 16.667 -34 27
s-15.834 22.166 -18.501 35.499c-4 17.333 -1.66699 29.333 7 36s18.334 10 29.001 10c9.33301 0 16.833 -2 22.5 -6s10.5 -8.33301 14.5 -13c7.33301 -9.33301 15.833 -17.666 25.5 -24.999s22.167 -11 37.5 -11z" />
    <glyph glyph-name="abreve" unicode="&#x103;" horiz-adv-x="502" 
d="M317 333c0 58.667 -30.666 88.0029 -91.999 88.0029c-13.333 0 -24.333 -1.33301 -33 -4s-17.334 -5.66699 -26.001 -9l-19 -8c-6.66699 -3.33301 -15.334 -5 -26.001 -5c-14.667 0 -25.167 4.66699 -31.5 14s-9.5 19.333 -9.5 30c0 13.333 4.33301 24.666 13 33.999
s20.334 17 35.001 23s31.334 10.333 50.001 13s37.667 4 57 4c68 0 116.667 -17.333 146 -52s44 -85.334 44 -152.001v-203c0 -12.667 2.33301 -20.834 7 -24.501s10.667 -6.16699 18 -7.5c20 -4 30 -16 30 -36c0 -28 -19.667 -42 -59 -42c-34.667 0 -61.334 15 -80.001 45
c-37.333 -32 -82.666 -48 -135.999 -48c-54.667 0 -95.834 14 -123.501 42s-41.5 65.333 -41.5 112v3c0 100.667 62.333 151 187 151c30.667 0 60.667 -4 90 -12v44zM230.001 219.003c-17.333 0 -31.498 -1.83301 -42.498 -5.5s-19.5 -8.66699 -25.5 -15
s-10 -13.833 -12 -22.5s-3 -17.667 -3 -27v-3c0 -20 5.5 -35.5 16.5 -46.5s30.5 -16.5 58.5 -16.5c17.333 0 33.666 2.66699 48.999 8s30.666 14.333 45.999 27v90c-14.667 3.33301 -29.667 6 -45 8s-29.333 3 -42 3zM251.003 639.003c15.333 0 27.667 3.66797 37 11.001
s17.666 15.666 24.999 24.999c5.33301 6 10.666 10.667 15.999 14s12.333 5 21 5c10.667 0 20.334 -3.33301 29.001 -10s11 -18.667 7 -36c-3.33301 -14 -10 -26.333 -20 -37s-21.5 -19.667 -34.5 -27s-26.833 -12.833 -41.5 -16.5s-28 -5.5 -40 -5.5
c-13.333 0 -27.166 2 -41.499 6s-28 9.83301 -41 17.5s-24.333 16.667 -34 27s-15.834 22.166 -18.501 35.499c-4 17.333 -1.66699 29.333 7 36s18.334 10 29.001 10c9.33301 0 16.833 -2 22.5 -6s10.5 -8.33301 14.5 -13c7.33301 -9.33301 15.833 -17.666 25.5 -24.999
s22.167 -11 37.5 -11z" />
    <glyph glyph-name="Aogonek" unicode="&#x104;" horiz-adv-x="569" 
d="M608 -161c0 -10 -2.82715 -18 -8.49414 -24s-12.834 -10.667 -21.501 -14s-18 -5.5 -28 -6.5s-19.333 -1.5 -28 -1.5c-34 0 -61.167 7.66699 -81.5 23s-30.5 39.666 -30.5 72.999c0 18.667 4.16699 38.334 12.5 59.001s18.833 40 31.5 58
c-6.66699 6 -12.667 14.667 -18 26s-10.166 23.833 -14.499 37.5s-8.33301 27.5 -12 41.5s-7.16699 26.667 -10.5 38h-233l-17.5 -57c-5.66699 -18.667 -11.834 -35.334 -18.501 -50.001s-14.667 -26.5 -24 -35.5s-20.333 -13.5 -33 -13.5c-14 0 -26.333 4.5 -37 13.5
s-16 20.833 -16 35.5c0 2.66699 0.166992 6 0.5 10s0.833008 7 1.5 9l195 593c5.33301 16 13.166 30 23.499 42s24.833 18 43.5 18c15.333 0 27.666 -3.83301 36.999 -11.5s16.666 -18.167 21.999 -31.5l15 -38l188 -572c1.33301 -2 2.16602 -5 2.49902 -9
s0.5 -7.33301 0.5 -10c0 -7.33301 -1.66699 -14 -5 -20s-7 -11.667 -11 -17c-11.333 -13.333 -20.5 -29.166 -27.5 -47.499s-10.5 -35.833 -10.5 -52.5c0 -10 2.83301 -18.333 8.5 -25s14.5 -10 26.5 -10c9.33301 0 17.166 0.666992 23.499 2s12.5 2 18.5 2
c10 0 18.5 -3.5 25.5 -10.5s10.5 -15.167 10.5 -24.5zM284.006 549c-12.667 -53.333 -26.499 -104.667 -41.499 -154l-45.5 -150h173l-46.5 151c-15.667 50 -28.834 101 -39.501 153z" />
    <glyph glyph-name="aogonek" unicode="&#x105;" horiz-adv-x="502" 
d="M535 -161c0 -10 -2.83594 -18 -8.50293 -24s-12.834 -10.667 -21.501 -14s-18 -5.5 -28 -6.5s-19.333 -1.5 -28 -1.5c-34 0 -61.167 7.66699 -81.5 23s-30.5 39.666 -30.5 72.999c0 18 4.16699 36.833 12.5 56.5s19.5 38.5 33.5 56.5
c-17.333 6.66699 -31.333 19.667 -42 39c-18.667 -16 -39 -28.167 -61 -36.5s-47 -12.5 -75 -12.5c-54.667 0 -95.834 14.167 -123.501 42.5s-41.5 65.833 -41.5 112.5v3c0 100.667 62.333 151 187 151c30.667 0 60.667 -4 90 -12v44c0 58.667 -30.667 88 -92 88
c-15.333 0 -28.166 -1.66699 -38.499 -5s-20.833 -7.66602 -31.5 -12.999c-3.33301 -1.33301 -7.66602 -3.16602 -12.999 -5.49902s-11.666 -3.5 -18.999 -3.5c-15.333 0 -26.333 5 -33 15s-10 20 -10 30c-0.666992 13.333 3.5 24.666 12.5 33.999s20.833 17 35.5 23
s31.334 10.333 50.001 13s37.667 4 57 4c68 0 116.667 -17.333 146 -52s44 -85.334 44 -152.001v-203c0 -12.667 2.33301 -20.334 7 -23.001s10.667 -5.66699 18 -9c4 -2 8.33301 -4.66699 13 -8s8.33398 -7.33301 11.001 -12s4 -10 4 -16s-2 -12.333 -6 -19
c-6 -9.33301 -12 -19.166 -18 -29.499s-11.167 -21 -15.5 -32s-7 -22 -8 -33s0.5 -21.833 4.5 -32.5c2 -5.33301 5.5 -9.16602 10.5 -11.499s10.5 -4 16.5 -5s12.333 -1.5 19 -1.5h18c10 0 18.5 -3.5 25.5 -10.5s10.5 -15.167 10.5 -24.5zM229.997 219
c-17.333 0 -31.498 -1.83301 -42.498 -5.5s-19.5 -8.66699 -25.5 -15s-10 -13.833 -12 -22.5s-3 -17.667 -3 -27v-3c0 -20 5.5 -35.5 16.5 -46.5s30.5 -16.5 58.5 -16.5c17.333 0 33.666 2.66699 48.999 8s30.666 14.333 45.999 27v90c-14.667 3.33301 -29.667 6 -45 8
s-29.333 3 -42 3z" />
    <glyph glyph-name="Cacute" unicode="&#x106;" horiz-adv-x="502" 
d="M40 456c0 38.667 4.83398 74.0029 14.501 106.003s24.334 59.167 44.001 81.5s44.5 39.666 74.5 51.999s65.667 18.5 107 18.5c24.667 0 48.5 -2.5 71.5 -7.5s43.5 -12 61.5 -21s32.333 -19.333 43 -31s16 -23.834 16 -36.501c0 -13.333 -4.83301 -24.666 -14.5 -33.999
s-21.834 -14 -36.501 -14c-9.33301 0 -16.5 1.5 -21.5 4.5l-18.5 11.5l-5 3c-26.667 18.667 -57 28 -91 28c-25.333 0 -46.666 -3.66699 -63.999 -11s-31.333 -18 -42 -32s-18.167 -31 -22.5 -51s-6.5 -42.333 -6.5 -67v-206c0 -24.667 2.16699 -47 6.5 -67
s11.833 -37 22.5 -51s24.667 -24.667 42 -32s38.666 -11 63.999 -11c33.333 0 63.666 9 90.999 27l5 3l18.5 11.5c5 3 12.167 4.5 21.5 4.5c14.667 0 26.834 -4.66699 36.501 -14s14.5 -20.333 14.5 -33c0 -13.333 -5.33301 -25.833 -16 -37.5s-25 -21.834 -43 -30.501
s-38.5 -15.5 -61.5 -20.5s-46.833 -7.5 -71.5 -7.5c-41.333 0 -77 6.16699 -107 18.5s-54.833 29.666 -74.5 51.999s-34.334 49.333 -44.001 81s-14.5 67.167 -14.5 106.5v206zM322.001 917.003c5.33301 5.33301 10 9.16699 14 11.5s10.333 3.5 19 3.5
c9.33301 0 18.333 -3.83301 27 -11.5s13 -17.5 13 -29.5c0 -10 -4.33301 -19.333 -13 -28l-75 -78c-6 -6.66699 -11.833 -11.667 -17.5 -15s-12.834 -5 -21.501 -5c-11.333 0 -21.166 3.83301 -29.499 11.5s-12.5 17.834 -12.5 30.501c0 6 3.16699 13.167 9.5 21.5
s14 17.166 23 26.499s18.333 18.5 28 27.5l25.5 24.5z" />
    <glyph glyph-name="cacute" unicode="&#x107;" horiz-adv-x="418" 
d="M45 323c0 26 3.83398 50.502 11.501 73.502s19.334 42.833 35.001 59.5s35.667 29.834 60 39.501s53.166 14.5 86.499 14.5c13.333 0 28.833 -1 46.5 -3s34.5 -5.83301 50.5 -11.5s29.667 -13.334 41 -23.001s17 -21.834 17 -36.501
c0 -10.667 -3.66699 -20.334 -11 -29.001s-19.666 -13 -36.999 -13c-8 0 -16.333 1.33301 -25 4c-11.333 5.33301 -22.333 10 -33 14s-24.334 6 -41.001 6c-34 0 -58 -8.33301 -72 -25s-21 -40 -21 -70v-143c0 -30 7 -53.5 21 -70.5s38 -25.5 72 -25.5
c16.667 0 30.334 2 41.001 6s21.667 8.66699 33 14c4 1.33301 7.66699 2.5 11 3.5s7.66602 1.5 12.999 1.5c17.333 0 29.833 -4.5 37.5 -13.5s11.5 -18.833 11.5 -29.5c0 -14.667 -5.66699 -26.834 -17 -36.501s-25 -17.167 -41 -22.5s-33 -9.16602 -51 -11.499
s-33.667 -3.5 -47 -3.5c-33.333 0 -62 4.83301 -86 14.5s-43.833 23 -59.5 40s-27.334 37 -35.001 60s-11.5 47.5 -11.5 73.5v143zM267.001 717.002c5.33301 5.33301 10 9.16699 14 11.5s10.333 3.5 19 3.5c9.33301 0 18.333 -3.83301 27 -11.5s13 -17.5 13 -29.5
c0 -10 -4.33301 -19.333 -13 -28l-75 -78c-6 -6.66699 -11.833 -11.667 -17.5 -15s-12.834 -5 -21.501 -5c-11.333 0 -21.166 3.83301 -29.499 11.5s-12.5 17.834 -12.5 30.501c0 6 3.16699 13.167 9.5 21.5s14 17.166 23 26.499s18.333 18.5 28 27.5l25.5 24.5z" />
    <glyph glyph-name="Ccircumflex" unicode="&#x108;" horiz-adv-x="502" 
d="M40 456c0 38.667 4.83398 74.0029 14.501 106.003s24.334 59.167 44.001 81.5s44.5 39.666 74.5 51.999s65.667 18.5 107 18.5c24.667 0 48.5 -2.5 71.5 -7.5s43.5 -12 61.5 -21s32.333 -19.333 43 -31s16 -23.834 16 -36.501c0 -13.333 -4.83301 -24.666 -14.5 -33.999
s-21.834 -14 -36.501 -14c-9.33301 0 -16.5 1.5 -21.5 4.5l-18.5 11.5l-5 3c-26.667 18.667 -57 28 -91 28c-25.333 0 -46.666 -3.66699 -63.999 -11s-31.333 -18 -42 -32s-18.167 -31 -22.5 -51s-6.5 -42.333 -6.5 -67v-206c0 -24.667 2.16699 -47 6.5 -67
s11.833 -37 22.5 -51s24.667 -24.667 42 -32s38.666 -11 63.999 -11c33.333 0 63.666 9 90.999 27l5 3l18.5 11.5c5 3 12.167 4.5 21.5 4.5c14.667 0 26.834 -4.66699 36.501 -14s14.5 -20.333 14.5 -33c0 -13.333 -5.33301 -25.833 -16 -37.5s-25 -21.834 -43 -30.501
s-38.5 -15.5 -61.5 -20.5s-46.833 -7.5 -71.5 -7.5c-41.333 0 -77 6.16699 -107 18.5s-54.833 29.666 -74.5 51.999s-34.334 49.333 -44.001 81s-14.5 67.167 -14.5 106.5v206zM264.001 825.003c-6.66699 -5.33301 -13.6689 -11.666 -21.002 -18.999s-15 -14.5 -23 -21.5
s-15.667 -12.833 -23 -17.5s-14.333 -7 -21 -7c-10 0 -19.667 3.16699 -29 9.5s-14 15.166 -14 26.499c0 8 3.5 16.333 10.5 25s14.167 15.667 21.5 21l69 55c4 3.33301 8.33301 6 13 8s10.334 3 17.001 3s12.334 -1 17.001 -3s9 -4.66699 13 -8l69 -55
c7.33301 -5.33301 14.5 -12.333 21.5 -21s10.5 -17 10.5 -25c0 -11.333 -4.66699 -20.166 -14 -26.499s-19 -9.5 -29 -9.5c-6.66699 0 -13.667 2.33301 -21 7s-15 10.5 -23 17.5s-15.667 14.167 -23 21.5s-14.333 13.666 -21 18.999z" />
    <glyph glyph-name="ccircumflex" unicode="&#x109;" horiz-adv-x="418" 
d="M45 323c0 26 3.83398 50.502 11.501 73.502s19.334 42.833 35.001 59.5s35.667 29.834 60 39.501s53.166 14.5 86.499 14.5c13.333 0 28.833 -1 46.5 -3s34.5 -5.83301 50.5 -11.5s29.667 -13.334 41 -23.001s17 -21.834 17 -36.501
c0 -10.667 -3.66699 -20.334 -11 -29.001s-19.666 -13 -36.999 -13c-8 0 -16.333 1.33301 -25 4c-11.333 5.33301 -22.333 10 -33 14s-24.334 6 -41.001 6c-34 0 -58 -8.33301 -72 -25s-21 -40 -21 -70v-143c0 -30 7 -53.5 21 -70.5s38 -25.5 72 -25.5
c16.667 0 30.334 2 41.001 6s21.667 8.66699 33 14c4 1.33301 7.66699 2.5 11 3.5s7.66602 1.5 12.999 1.5c17.333 0 29.833 -4.5 37.5 -13.5s11.5 -18.833 11.5 -29.5c0 -14.667 -5.66699 -26.834 -17 -36.501s-25 -17.167 -41 -22.5s-33 -9.16602 -51 -11.499
s-33.667 -3.5 -47 -3.5c-33.333 0 -62 4.83301 -86 14.5s-43.833 23 -59.5 40s-27.334 37 -35.001 60s-11.5 47.5 -11.5 73.5v143zM226.001 625.002c-6.66699 -5.33301 -13.6689 -11.666 -21.002 -18.999s-15 -14.5 -23 -21.5s-15.667 -12.833 -23 -17.5s-14.333 -7 -21 -7
c-10 0 -19.667 3.16699 -29 9.5s-14 15.166 -14 26.499c0 8 3.5 16.333 10.5 25s14.167 15.667 21.5 21l69 55c4 3.33301 8.33301 6 13 8s10.334 3 17.001 3s12.334 -1 17.001 -3s9 -4.66699 13 -8l69 -55c7.33301 -5.33301 14.5 -12.333 21.5 -21s10.5 -17 10.5 -25
c0 -11.333 -4.66699 -20.166 -14 -26.499s-19 -9.5 -29 -9.5c-6.66699 0 -13.667 2.33301 -21 7s-15 10.5 -23 17.5s-15.667 14.167 -23 21.5s-14.333 13.666 -21 18.999z" />
    <glyph glyph-name="Cdotaccent" unicode="&#x10a;" horiz-adv-x="502" 
d="M40 456c0 38.667 4.83398 74.0029 14.501 106.003s24.334 59.167 44.001 81.5s44.5 39.666 74.5 51.999s65.667 18.5 107 18.5c24.667 0 48.5 -2.5 71.5 -7.5s43.5 -12 61.5 -21s32.333 -19.333 43 -31s16 -23.834 16 -36.501c0 -13.333 -4.83301 -24.666 -14.5 -33.999
s-21.834 -14 -36.501 -14c-9.33301 0 -16.5 1.5 -21.5 4.5l-18.5 11.5l-5 3c-26.667 18.667 -57 28 -91 28c-25.333 0 -46.666 -3.66699 -63.999 -11s-31.333 -18 -42 -32s-18.167 -31 -22.5 -51s-6.5 -42.333 -6.5 -67v-206c0 -24.667 2.16699 -47 6.5 -67
s11.833 -37 22.5 -51s24.667 -24.667 42 -32s38.666 -11 63.999 -11c33.333 0 63.666 9 90.999 27l5 3l18.5 11.5c5 3 12.167 4.5 21.5 4.5c14.667 0 26.834 -4.66699 36.501 -14s14.5 -20.333 14.5 -33c0 -13.333 -5.33301 -25.833 -16 -37.5s-25 -21.834 -43 -30.501
s-38.5 -15.5 -61.5 -20.5s-46.833 -7.5 -71.5 -7.5c-41.333 0 -77 6.16699 -107 18.5s-54.833 29.666 -74.5 51.999s-34.334 49.333 -44.001 81s-14.5 67.167 -14.5 106.5v206zM307.001 827.003c0 -15.333 -5.5 -28.502 -16.5 -39.502s-24.5 -16.5 -40.5 -16.5
c-15.333 0 -28.333 5.5 -39 16.5s-16 24.167 -16 39.5c0 14.667 5.33301 27.334 16 38.001s23.667 16 39 16c16 0 29.5 -5.16699 40.5 -15.5s16.5 -23.166 16.5 -38.499z" />
    <glyph glyph-name="cdotaccent" unicode="&#x10b;" horiz-adv-x="418" 
d="M45 323c0 26 3.83398 50.502 11.501 73.502s19.334 42.833 35.001 59.5s35.667 29.834 60 39.501s53.166 14.5 86.499 14.5c13.333 0 28.833 -1 46.5 -3s34.5 -5.83301 50.5 -11.5s29.667 -13.334 41 -23.001s17 -21.834 17 -36.501
c0 -10.667 -3.66699 -20.334 -11 -29.001s-19.666 -13 -36.999 -13c-8 0 -16.333 1.33301 -25 4c-11.333 5.33301 -22.333 10 -33 14s-24.334 6 -41.001 6c-34 0 -58 -8.33301 -72 -25s-21 -40 -21 -70v-143c0 -30 7 -53.5 21 -70.5s38 -25.5 72 -25.5
c16.667 0 30.334 2 41.001 6s21.667 8.66699 33 14c4 1.33301 7.66699 2.5 11 3.5s7.66602 1.5 12.999 1.5c17.333 0 29.833 -4.5 37.5 -13.5s11.5 -18.833 11.5 -29.5c0 -14.667 -5.66699 -26.834 -17 -36.501s-25 -17.167 -41 -22.5s-33 -9.16602 -51 -11.499
s-33.667 -3.5 -47 -3.5c-33.333 0 -62 4.83301 -86 14.5s-43.833 23 -59.5 40s-27.334 37 -35.001 60s-11.5 47.5 -11.5 73.5v143zM264.001 627.002c0 -15.333 -5.5 -28.502 -16.5 -39.502s-24.5 -16.5 -40.5 -16.5c-15.333 0 -28.333 5.5 -39 16.5s-16 24.167 -16 39.5
c0 14.667 5.33301 27.334 16 38.001s23.667 16 39 16c16 0 29.5 -5.16699 40.5 -15.5s16.5 -23.166 16.5 -38.499z" />
    <glyph glyph-name="Ccaron" unicode="&#x10c;" horiz-adv-x="502" 
d="M40 456c0 38.667 4.83398 74.0029 14.501 106.003s24.334 59.167 44.001 81.5s44.5 39.666 74.5 51.999s65.667 18.5 107 18.5c24.667 0 48.5 -2.5 71.5 -7.5s43.5 -12 61.5 -21s32.333 -19.333 43 -31s16 -23.834 16 -36.501c0 -13.333 -4.83301 -24.666 -14.5 -33.999
s-21.834 -14 -36.501 -14c-9.33301 0 -16.5 1.5 -21.5 4.5l-18.5 11.5l-5 3c-26.667 18.667 -57 28 -91 28c-25.333 0 -46.666 -3.66699 -63.999 -11s-31.333 -18 -42 -32s-18.167 -31 -22.5 -51s-6.5 -42.333 -6.5 -67v-206c0 -24.667 2.16699 -47 6.5 -67
s11.833 -37 22.5 -51s24.667 -24.667 42 -32s38.666 -11 63.999 -11c33.333 0 63.666 9 90.999 27l5 3l18.5 11.5c5 3 12.167 4.5 21.5 4.5c14.667 0 26.834 -4.66699 36.501 -14s14.5 -20.333 14.5 -33c0 -13.333 -5.33301 -25.833 -16 -37.5s-25 -21.834 -43 -30.501
s-38.5 -15.5 -61.5 -20.5s-46.833 -7.5 -71.5 -7.5c-41.333 0 -77 6.16699 -107 18.5s-54.833 29.666 -74.5 51.999s-34.334 49.333 -44.001 81s-14.5 67.167 -14.5 106.5v206zM282.001 842.003c7.33301 6 14.668 12.833 22.001 20.5s14.833 15 22.5 22s15.5 13 23.5 18
s16.333 7.5 25 7.5c12 0 22.333 -3.16699 31 -9.5s13 -15.5 13 -27.5c0 -6.66699 -1.33301 -12.334 -4 -17.001s-6.66699 -9.66699 -12 -15c-6 -6 -14.167 -13.667 -24.5 -23s-21.333 -18.666 -33 -27.999s-23.167 -17.333 -34.5 -24s-21 -10 -29 -10
s-17.667 3.33301 -29 10s-22.833 14.667 -34.5 24s-22.667 18.666 -33 27.999s-18.5 17 -24.5 23c-5.33301 5.33301 -9.33301 10.333 -12 15s-4 10.334 -4 17.001c0 12 4.33301 21.167 13 27.5s19 9.5 31 9.5c8.66699 0 17 -2.5 25 -7.5s15.833 -11 23.5 -18
s15.167 -14.333 22.5 -22s14.666 -14.5 21.999 -20.5z" />
    <glyph glyph-name="ccaron" unicode="&#x10d;" horiz-adv-x="418" 
d="M45 323c0 26 3.83398 50.502 11.501 73.502s19.334 42.833 35.001 59.5s35.667 29.834 60 39.501s53.166 14.5 86.499 14.5c13.333 0 28.833 -1 46.5 -3s34.5 -5.83301 50.5 -11.5s29.667 -13.334 41 -23.001s17 -21.834 17 -36.501
c0 -10.667 -3.66699 -20.334 -11 -29.001s-19.666 -13 -36.999 -13c-8 0 -16.333 1.33301 -25 4c-11.333 5.33301 -22.333 10 -33 14s-24.334 6 -41.001 6c-34 0 -58 -8.33301 -72 -25s-21 -40 -21 -70v-143c0 -30 7 -53.5 21 -70.5s38 -25.5 72 -25.5
c16.667 0 30.334 2 41.001 6s21.667 8.66699 33 14c4 1.33301 7.66699 2.5 11 3.5s7.66602 1.5 12.999 1.5c17.333 0 29.833 -4.5 37.5 -13.5s11.5 -18.833 11.5 -29.5c0 -14.667 -5.66699 -26.834 -17 -36.501s-25 -17.167 -41 -22.5s-33 -9.16602 -51 -11.499
s-33.667 -3.5 -47 -3.5c-33.333 0 -62 4.83301 -86 14.5s-43.833 23 -59.5 40s-27.334 37 -35.001 60s-11.5 47.5 -11.5 73.5v143zM237.001 642.002c7.33301 6 14.668 12.833 22.001 20.5s14.833 15 22.5 22s15.5 13 23.5 18s16.333 7.5 25 7.5
c12 0 22.333 -3.16699 31 -9.5s13 -15.5 13 -27.5c0 -6.66699 -1.33301 -12.334 -4 -17.001s-6.66699 -9.66699 -12 -15c-6 -6 -14.167 -13.667 -24.5 -23s-21.333 -18.666 -33 -27.999s-23.167 -17.333 -34.5 -24s-21 -10 -29 -10s-17.667 3.33301 -29 10
s-22.833 14.667 -34.5 24s-22.667 18.666 -33 27.999s-18.5 17 -24.5 23c-5.33301 5.33301 -9.33301 10.333 -12 15s-4 10.334 -4 17.001c0 12 4.33301 21.167 13 27.5s19 9.5 31 9.5c8.66699 0 17 -2.5 25 -7.5s15.833 -11 23.5 -18s15.167 -14.333 22.5 -22
s14.666 -14.5 21.999 -20.5z" />
    <glyph glyph-name="Dcaron" unicode="&#x10e;" horiz-adv-x="574" 
d="M533 267c0 -34.667 -5.00098 -68.167 -15.001 -100.5s-26.167 -60.833 -48.5 -85.5s-52 -44.334 -89 -59.001s-82.5 -22 -136.5 -22h-113c-17.333 0 -32.166 5.83301 -44.499 17.5s-18.5 25.834 -18.5 42.501v586c0 16 6.16699 30 18.5 42s27.166 18 44.499 18h113
c54 0 99.333 -7.16699 136 -21.5s66.334 -33.333 89.001 -57s39 -51.167 49 -82.5s15 -64 15 -98v-180zM422.999 447c0 22 -2.83496 42.5 -8.50195 61.5s-15 35.5 -28 49.5s-29.667 25 -50 33s-45.5 12 -75.5 12h-83v-501h83c30 0 55.333 4.33301 76 13
s37.334 20.5 50.001 35.5s21.834 32.5 27.501 52.5s8.5 41.333 8.5 64v180zM286.997 842c7.33301 6 14.668 12.833 22.001 20.5s14.833 15 22.5 22s15.5 13 23.5 18s16.333 7.5 25 7.5c12 0 22.333 -3.16699 31 -9.5s13 -15.5 13 -27.5
c0 -6.66699 -1.33301 -12.334 -4 -17.001s-6.66699 -9.66699 -12 -15c-6 -6 -14.167 -13.667 -24.5 -23s-21.333 -18.666 -33 -27.999s-23.167 -17.333 -34.5 -24s-21 -10 -29 -10s-17.667 3.33301 -29 10s-22.833 14.667 -34.5 24s-22.667 18.666 -33 27.999
s-18.5 17 -24.5 23c-5.33301 5.33301 -9.33301 10.333 -12 15s-4 10.334 -4 17.001c0 12 4.33301 21.167 13 27.5s19 9.5 31 9.5c8.66699 0 17 -2.5 25 -7.5s15.833 -11 23.5 -18s15.167 -14.333 22.5 -22s14.666 -14.5 21.999 -20.5z" />
    <glyph glyph-name="dcaron" unicode="&#x10f;" horiz-adv-x="657" 
d="M223 509c16 0 32.167 -1.33301 48.5 -4s33.5 -7.66699 51.5 -15v184c0 13.333 4.66699 24.833 14 34.5s22.666 14.5 39.999 14.5s30.666 -4.83301 39.999 -14.5s14 -21.167 14 -34.5v-553c0 -10.667 1.66699 -19.334 5 -26.001s9 -13.667 17 -21
c7.33301 -8.66699 11 -17.667 11 -27c0 -15.333 -5.33301 -27.166 -16 -35.499s-22 -12.5 -34 -12.5s-22.667 3.16699 -32 9.5s-17.666 14.833 -24.999 25.5c-23.333 -12.667 -46.333 -22.834 -69 -30.501s-46.667 -11.5 -72 -11.5c-28 0 -52.5 4.66699 -73.5 14
s-38.833 22.5 -53.5 39.5s-25.667 37.333 -33 61s-11 49.834 -11 78.501v120c0 30 3 57.5 9 82.5s15.833 46.5 29.5 64.5s31.834 32 54.501 42s51 15 85 15zM323 401c-16 6 -32 10.333 -48 13s-29 4 -39 4c-30.667 0 -52.167 -9.16699 -64.5 -27.5
s-18.5 -46.833 -18.5 -85.5v-120c0 -66.667 27 -100 81 -100c26 0 56.333 8.33301 91 25c-1.33301 4 -2 7.66699 -2 11v10v270zM516 504c0 8 1.49902 15.3301 4.49902 21.9971s6.33301 13.334 10 20.001s7.33398 13.834 11.001 21.501s6.83398 16.834 9.50098 27.501
c-16.667 2.66699 -30.334 10 -41.001 22s-16 26.333 -16 43c0 17.333 6.66699 32.5 20 45.5s29.666 19.5 48.999 19.5c18 0 33.833 -6.33301 47.5 -19s20.5 -28.667 20.5 -48c0 -16 -2.66699 -34.667 -8 -56s-12.166 -41.5 -20.499 -60.5s-17.5 -35.167 -27.5 -48.5
s-19.667 -20 -29 -20c-6.66699 0 -13.667 1.83301 -21 5.5s-10.333 12.167 -9 25.5z" />
    <glyph glyph-name="Dcroat" unicode="&#x110;" horiz-adv-x="595" 
d="M554 267c0 -34.667 -5.00098 -68.168 -15.001 -100.501s-26.167 -60.833 -48.5 -85.5s-52 -44.334 -89 -59.001s-82.5 -22 -136.5 -22h-113c-17.333 0 -32.166 5.83301 -44.499 17.5s-18.5 25.834 -18.5 42.501v244h-24c-14.667 0 -27 4.83301 -37 14.5
s-15 21.167 -15 34.5s5 24.833 15 34.5s22.333 14.5 37 14.5h24v243c0 16.667 6.16699 30.834 18.5 42.501s27.166 17.5 44.499 17.5h113c54 0 99.333 -7 136 -21s66.334 -33 89.001 -57s39 -51.5 49 -82.5s15 -63.5 15 -97.5v-180zM364.999 352.999
c0 -13.333 -4.83496 -24.833 -14.502 -34.5s-21.834 -14.5 -36.501 -14.5h-115v-202h83c30 0 55.333 4.33301 76 13s37.334 20.5 50.001 35.5s21.834 32.5 27.501 52.5s8.5 41.333 8.5 64v180c0 22 -2.83301 42.5 -8.5 61.5s-15 35.5 -28 49.5s-29.667 25 -50 33
s-45.5 12 -75.5 12h-83v-201h115c14.667 0 26.834 -4.83301 36.501 -14.5s14.5 -21.167 14.5 -34.5z" />
    <glyph glyph-name="dcroat" unicode="&#x111;" horiz-adv-x="540" 
d="M223 509c16 0 32.167 -1.33301 48.5 -4s33.5 -7.66699 51.5 -15v69h-100c-12 0 -22 4.16699 -30 12.5s-12 18.5 -12 30.5c0 11.333 4 21.333 12 30s18 13 30 13h100v29c0 13.333 4.66699 24.833 14 34.5s22.666 14.5 39.999 14.5s30.666 -4.83301 39.999 -14.5
s14 -21.167 14 -34.5v-29h56c11.333 0 21 -4.33301 29 -13s12 -18.667 12 -30s-4 -21.333 -12 -30s-17.667 -13 -29 -13h-56v-438c0 -10.667 1.66699 -19.334 5 -26.001s9 -13.667 17 -21c7.33301 -8.66699 11 -17.667 11 -27c0 -15.333 -5.33301 -27.166 -16 -35.499
s-22 -12.5 -34 -12.5s-22.667 3.16699 -32 9.5s-17.666 14.833 -24.999 25.5c-23.333 -12.667 -46.333 -22.834 -69 -30.501s-46.667 -11.5 -72 -11.5c-28 0 -52.5 4.66699 -73.5 14s-38.833 22.5 -53.5 39.5s-25.667 37.333 -33 61s-11 49.834 -11 78.501v120
c0 30 3 57.5 9 82.5s15.833 46.5 29.5 64.5s31.834 32 54.501 42s51 15 85 15zM323 401c-16 6 -32 10.333 -48 13s-29 4 -39 4c-30.667 0 -52.167 -9.16699 -64.5 -27.5s-18.5 -46.833 -18.5 -85.5v-120c0 -66.667 27 -100 81 -100c26 0 56.333 8.33301 91 25
c-1.33301 4 -2 7.66699 -2 11v10v270z" />
    <glyph glyph-name="Emacron" unicode="&#x112;" horiz-adv-x="494" 
d="M466 53c0 -15.333 -5.33203 -27.999 -15.999 -37.999s-23.667 -15 -39 -15h-265c-20.667 0 -38.834 4.16699 -54.501 12.5s-23.5 23.833 -23.5 46.5v587c0 14.667 5.83301 28.167 17.5 40.5s26.5 18.5 44.5 18.5h271c15.333 0 28.333 -5.16699 39 -15.5
s16 -22.833 16 -37.5s-5.33301 -26.667 -16 -36s-23.667 -14 -39 -14h-223v-197h204c13.333 0 25.666 -4.83301 36.999 -14.5s17 -21.834 17 -36.501s-5.16699 -27 -15.5 -37s-23.166 -15 -38.499 -15h-204v-200h233c14.667 0 27.5 -4.83301 38.5 -14.5
s16.5 -21.167 16.5 -34.5zM423.001 833.001c0 -12 -4.5 -22.167 -13.5 -30.5s-19.833 -12.5 -32.5 -12.5h-259c-13.333 0 -24.5 4.16699 -33.5 12.5s-13.5 18.5 -13.5 30.5s4.5 22.333 13.5 31s20.167 13 33.5 13h259c12.667 0 23.5 -4.33301 32.5 -13s13.5 -19 13.5 -31z
" />
    <glyph glyph-name="emacron" unicode="&#x113;" horiz-adv-x="460" 
d="M242 197c-14 0 -28.3379 0.499023 -43.0049 1.49902s-30 2.83301 -46 5.5v-46c0 -22.667 7.66699 -40.667 23 -54s39 -20 71 -20c18.667 0 35.334 2.33301 50.001 7s30.334 10.667 47.001 18c1.33301 1.33301 3.83301 2.5 7.5 3.5s8.5 1.5 14.5 1.5
c17.333 0 29.833 -5 37.5 -15s11.5 -20 11.5 -30c0 -15.333 -6.5 -27.833 -19.5 -37.5s-28.667 -17.5 -47 -23.5s-37.666 -10.167 -57.999 -12.5s-37.833 -3.5 -52.5 -3.5c-30.667 0 -58 4.33301 -82 13s-44.167 20.667 -60.5 36s-28.833 33.5 -37.5 54.5s-13 43.5 -13 67.5
v177c0 24.667 4.33301 47.5 13 68.5s21.334 39.167 38.001 54.5s37.334 27.5 62.001 36.5s53 13.5 85 13.5c60.667 0 106 -15.167 136 -45.5s45 -70.5 45 -120.5c0 -47.333 -14.333 -84.166 -43 -110.499s-75 -39.5 -139 -39.5zM316.995 349.999
c0 26.667 -6.5 45.668 -19.5 57.001s-31.833 17 -56.5 17c-28 0 -49.667 -7 -65 -21s-23 -33 -23 -57v-59c17.333 -2 34.5 -3.5 51.5 -4.5s29.167 -1.5 36.5 -1.5c28.667 0 48.5 6.16699 59.5 18.5s16.5 29.166 16.5 50.499zM404.995 633c0 -12 -4.5 -22.167 -13.5 -30.5
s-19.833 -12.5 -32.5 -12.5h-259c-13.333 0 -24.5 4.16699 -33.5 12.5s-13.5 18.5 -13.5 30.5s4.5 22.333 13.5 31s20.167 13 33.5 13h259c12.667 0 23.5 -4.33301 32.5 -13s13.5 -19 13.5 -31z" />
    <glyph glyph-name="Ebreve" unicode="&#x114;" horiz-adv-x="494" 
d="M466 53c0 -15.333 -5.33203 -27.999 -15.999 -37.999s-23.667 -15 -39 -15h-265c-20.667 0 -38.834 4.16699 -54.501 12.5s-23.5 23.833 -23.5 46.5v587c0 14.667 5.83301 28.167 17.5 40.5s26.5 18.5 44.5 18.5h271c15.333 0 28.333 -5.16699 39 -15.5
s16 -22.833 16 -37.5s-5.33301 -26.667 -16 -36s-23.667 -14 -39 -14h-223v-197h204c13.333 0 25.666 -4.83301 36.999 -14.5s17 -21.834 17 -36.501s-5.16699 -27 -15.5 -37s-23.166 -15 -38.499 -15h-204v-200h233c14.667 0 27.5 -4.83301 38.5 -14.5
s16.5 -21.167 16.5 -34.5zM247.001 839.001c15.333 0 27.667 3.66797 37 11.001s17.666 15.666 24.999 24.999c5.33301 6 10.666 10.667 15.999 14s12.333 5 21 5c10.667 0 20.334 -3.33301 29.001 -10s11 -18.667 7 -36c-3.33301 -14 -10 -26.333 -20 -37
s-21.5 -19.667 -34.5 -27s-26.833 -12.833 -41.5 -16.5s-28 -5.5 -40 -5.5c-13.333 0 -27.166 2 -41.499 6s-28 9.83301 -41 17.5s-24.333 16.667 -34 27s-15.834 22.166 -18.501 35.499c-4 17.333 -1.66699 29.333 7 36s18.334 10 29.001 10c9.33301 0 16.833 -2 22.5 -6
s10.5 -8.33301 14.5 -13c7.33301 -9.33301 15.833 -17.666 25.5 -24.999s22.167 -11 37.5 -11z" />
    <glyph glyph-name="ebreve" unicode="&#x115;" horiz-adv-x="460" 
d="M242 197c-14 0 -28.3379 0.499023 -43.0049 1.49902s-30 2.83301 -46 5.5v-46c0 -22.667 7.66699 -40.667 23 -54s39 -20 71 -20c18.667 0 35.334 2.33301 50.001 7s30.334 10.667 47.001 18c1.33301 1.33301 3.83301 2.5 7.5 3.5s8.5 1.5 14.5 1.5
c17.333 0 29.833 -5 37.5 -15s11.5 -20 11.5 -30c0 -15.333 -6.5 -27.833 -19.5 -37.5s-28.667 -17.5 -47 -23.5s-37.666 -10.167 -57.999 -12.5s-37.833 -3.5 -52.5 -3.5c-30.667 0 -58 4.33301 -82 13s-44.167 20.667 -60.5 36s-28.833 33.5 -37.5 54.5s-13 43.5 -13 67.5
v177c0 24.667 4.33301 47.5 13 68.5s21.334 39.167 38.001 54.5s37.334 27.5 62.001 36.5s53 13.5 85 13.5c60.667 0 106 -15.167 136 -45.5s45 -70.5 45 -120.5c0 -47.333 -14.333 -84.166 -43 -110.499s-75 -39.5 -139 -39.5zM316.995 349.999
c0 26.667 -6.5 45.668 -19.5 57.001s-31.833 17 -56.5 17c-28 0 -49.667 -7 -65 -21s-23 -33 -23 -57v-59c17.333 -2 34.5 -3.5 51.5 -4.5s29.167 -1.5 36.5 -1.5c28.667 0 48.5 6.16699 59.5 18.5s16.5 29.166 16.5 50.499zM228.995 639c15.333 0 27.667 3.66797 37 11.001
s17.666 15.666 24.999 24.999c5.33301 6 10.666 10.667 15.999 14s12.333 5 21 5c10.667 0 20.334 -3.33301 29.001 -10s11 -18.667 7 -36c-3.33301 -14 -10 -26.333 -20 -37s-21.5 -19.667 -34.5 -27s-26.833 -12.833 -41.5 -16.5s-28 -5.5 -40 -5.5
c-13.333 0 -27.166 2 -41.499 6s-28 9.83301 -41 17.5s-24.333 16.667 -34 27s-15.834 22.166 -18.501 35.499c-4 17.333 -1.66699 29.333 7 36s18.334 10 29.001 10c9.33301 0 16.833 -2 22.5 -6s10.5 -8.33301 14.5 -13c7.33301 -9.33301 15.833 -17.666 25.5 -24.999
s22.167 -11 37.5 -11z" />
    </font>
</defs>
</svg>
